StandardSymL.ufo
<glyph name="exclam" format="1">
  <advance width="333"/>
  <unicode hex="0021"/>
  <outline>
    <contour>
      <point x="173" y="186" type="line"/>
      <point x="196" y="186" type="line"/>
      <point x="232" y="542" type="line" smooth="yes"/>
      <point x="239" y="607"/>
      <point x="239" y="607"/>
      <point x="239" y="620" type="curve" smooth="yes"/>
      <point x="239" y="661"/>
      <point x="218" y="686"/>
      <point x="183" y="686" type="curve" smooth="yes"/>
      <point x="147" y="686"/>
      <point x="128" y="661"/>
      <point x="128" y="615" type="curve" smooth="yes"/>
      <point x="128" y="600"/>
      <point x="128" y="595"/>
      <point x="134" y="543" type="curve" smooth="yes"/>
    </contour>
    <contour>
      <point x="185" y="100" type="curve" smooth="yes"/>
      <point x="154" y="100"/>
      <point x="128" y="75"/>
      <point x="128" y="44" type="curve" smooth="yes"/>
      <point x="128" y="13"/>
      <point x="153" y="-13"/>
      <point x="184" y="-13" type="curve" smooth="yes"/>
      <point x="215" y="-13"/>
      <point x="240" y="13"/>
      <point x="240" y="44" type="curve" smooth="yes"/>
      <point x="240" y="74"/>
      <point x="214" y="100"/>
    </contour>
  </outline>
</glyph>
<glyph name="numbersign" format="1">
  <advance width="500"/>
  <unicode hex="0023"/>
  <outline>
    <contour>
      <point x="458" y="257" type="line"/>
      <point x="364" y="257" type="line"/>
      <point x="383" y="387" type="line"/>
      <point x="481" y="387" type="line"/>
      <point x="481" y="439" type="line"/>
      <point x="391" y="439" type="line"/>
      <point x="419" y="631" type="line"/>
      <point x="364" y="631" type="line"/>
      <point x="336" y="439" type="line"/>
      <point x="210" y="439" type="line"/>
      <point x="238" y="631" type="line"/>
      <point x="185" y="631" type="line"/>
      <point x="156" y="439" type="line"/>
      <point x="45" y="439" type="line"/>
      <point x="45" y="385" type="line"/>
      <point x="146" y="385" type="line"/>
      <point x="129" y="257" type="line"/>
      <point x="20" y="257" type="line"/>
      <point x="20" y="205" type="line"/>
      <point x="121" y="205" type="line"/>
      <point x="90" y="0" type="line"/>
      <point x="146" y="0" type="line"/>
      <point x="175" y="205" type="line"/>
      <point x="301" y="205" type="line"/>
      <point x="271" y="0" type="line"/>
      <point x="326" y="0" type="line"/>
      <point x="356" y="205" type="line"/>
      <point x="458" y="205" type="line"/>
    </contour>
    <contour>
      <point x="328" y="387" type="line"/>
      <point x="309" y="257" type="line"/>
      <point x="184" y="257" type="line"/>
      <point x="202" y="387" type="line"/>
    </contour>
  </outline>
</glyph>
<glyph name="percent" format="1">
  <advance width="833"/>
  <unicode hex="0025"/>
  <outline>
    <contour>
      <point x="231" y="0" type="line"/>
      <point x="650" y="673" type="line"/>
      <point x="597" y="673" type="line"/>
      <point x="572" y="630"/>
      <point x="517" y="603"/>
      <point x="456" y="603" type="curve" smooth="yes"/>
      <point x="425" y="603"/>
      <point x="406" y="610"/>
      <point x="371" y="634" type="curve" smooth="yes"/>
      <point x="330" y="662"/>
      <point x="312" y="669"/>
      <point x="282" y="669" type="curve" smooth="yes"/>
      <point x="173" y="669"/>
      <point x="63" y="548"/>
      <point x="63" y="427" type="curve" smooth="yes"/>
      <point x="63" y="350"/>
      <point x="112" y="299"/>
      <point x="187" y="299" type="curve" smooth="yes"/>
      <point x="295" y="299"/>
      <point x="392" y="417"/>
      <point x="392" y="548" type="curve" smooth="yes"/>
      <point x="392" y="563"/>
      <point x="391" y="570"/>
      <point x="387" y="587" type="curve"/>
      <point x="406" y="580"/>
      <point x="433" y="576"/>
      <point x="458" y="576" type="curve" smooth="yes"/>
      <point x="492" y="576"/>
      <point x="521" y="584"/>
      <point x="560" y="603" type="curve"/>
      <point x="177" y="0" type="line"/>
    </contour>
    <contour>
      <point x="359" y="595" type="curve"/>
      <point x="363" y="586"/>
      <point x="364" y="578"/>
      <point x="364" y="556" type="curve" smooth="yes"/>
      <point x="364" y="494"/>
      <point x="346" y="441"/>
      <point x="308" y="396" type="curve" smooth="yes"/>
      <point x="277" y="358"/>
      <point x="237" y="335"/>
      <point x="202" y="335" type="curve" smooth="yes"/>
      <point x="164" y="335"/>
      <point x="140" y="358"/>
      <point x="140" y="394" type="curve" smooth="yes"/>
      <point x="140" y="489"/>
      <point x="227" y="635"/>
      <point x="284" y="635" type="curve" smooth="yes"/>
      <point x="288" y="635"/>
      <point x="291" y="635"/>
      <point x="297" y="634" type="curve"/>
      <point x="315" y="615"/>
      <point x="322" y="610"/>
    </contour>
    <contour>
      <point x="658" y="360" type="curve" smooth="yes"/>
      <point x="543" y="360"/>
      <point x="432" y="239"/>
      <point x="432" y="114" type="curve" smooth="yes"/>
      <point x="432" y="43"/>
      <point x="484" y="-7"/>
      <point x="557" y="-7" type="curve" smooth="yes"/>
      <point x="609" y="-7"/>
      <point x="652" y="14"/>
      <point x="690" y="58" type="curve" smooth="yes"/>
      <point x="740" y="116"/>
      <point x="771" y="190"/>
      <point x="771" y="254" type="curve" smooth="yes"/>
      <point x="771" y="317"/>
      <point x="726" y="360"/>
    </contour>
    <contour>
      <point x="670" y="324" type="curve" smooth="yes"/>
      <point x="709" y="324"/>
      <point x="739" y="292"/>
      <point x="739" y="249" type="curve" smooth="yes"/>
      <point x="739" y="192"/>
      <point x="711" y="124"/>
      <point x="669" y="78" type="curve" smooth="yes"/>
      <point x="642" y="48"/>
      <point x="600" y="29"/>
      <point x="564" y="29" type="curve" smooth="yes"/>
      <point x="530" y="29"/>
      <point x="509" y="52"/>
      <point x="509" y="90" type="curve" smooth="yes"/>
      <point x="509" y="194"/>
      <point x="598" y="324"/>
    </contour>
  </outline>
</glyph>
<glyph name="ampersand" format="1">
  <advance width="778"/>
  <unicode hex="0026"/>
  <outline>
    <contour>
      <point x="496" y="426" type="line"/>
      <point x="496" y="406" type="line"/>
      <point x="542" y="403"/>
      <point x="560" y="390"/>
      <point x="560" y="359" type="curve" smooth="yes"/>
      <point x="560" y="317"/>
      <point x="520" y="238"/>
      <point x="468" y="179" type="curve"/>
      <point x="436" y="213"/>
      <point x="375" y="309"/>
      <point x="340" y="382" type="curve"/>
      <point x="376" y="399"/>
      <point x="397" y="411"/>
      <point x="417" y="425" type="curve" smooth="yes"/>
      <point x="467" y="460"/>
      <point x="494" y="507"/>
      <point x="494" y="555" type="curve" smooth="yes"/>
      <point x="494" y="624"/>
      <point x="438" y="675"/>
      <point x="362" y="675" type="curve" smooth="yes"/>
      <point x="278" y="675"/>
      <point x="204" y="604"/>
      <point x="204" y="521" type="curve" smooth="yes"/>
      <point x="204" y="477"/>
      <point x="217" y="426"/>
      <point x="241" y="371" type="curve"/>
      <point x="174" y="335"/>
      <point x="159" y="326"/>
      <point x="141" y="314" type="curve" smooth="yes"/>
      <point x="74" y="266"/>
      <point x="41" y="211"/>
      <point x="41" y="146" type="curve" smooth="yes"/>
      <point x="41" y="50"/>
      <point x="112" y="-13"/>
      <point x="219" y="-13" type="curve" smooth="yes"/>
      <point x="299" y="-13"/>
      <point x="370" y="17"/>
      <point x="430" y="78" type="curve"/>
      <point x="483" y="18"/>
      <point x="543" y="-13"/>
      <point x="603" y="-13" type="curve" smooth="yes"/>
      <point x="661" y="-13"/>
      <point x="705" y="20"/>
      <point x="750" y="100" type="curve"/>
      <point x="734" y="113" type="line"/>
      <point x="705" y="74"/>
      <point x="679" y="58"/>
      <point x="648" y="58" type="curve" smooth="yes"/>
      <point x="595" y="58"/>
      <point x="546" y="87"/>
      <point x="493" y="150" type="curve"/>
      <point x="518" y="180"/>
      <point x="540" y="211"/>
      <point x="562" y="248" type="curve" smooth="yes"/>
      <point x="611" y="332"/>
      <point x="611" y="332"/>
      <point x="614" y="337" type="curve" smooth="yes"/>
      <point x="624" y="353"/>
      <point x="632" y="364"/>
      <point x="640" y="373" type="curve" smooth="yes"/>
      <point x="656" y="391"/>
      <point x="680" y="401"/>
      <point x="714" y="406" type="curve"/>
      <point x="714" y="426" type="line"/>
    </contour>
    <contour>
      <point x="324" y="413" type="curve"/>
      <point x="301" y="459"/>
      <point x="285" y="515"/>
      <point x="285" y="552" type="curve" smooth="yes"/>
      <point x="285" y="606"/>
      <point x="314" y="642"/>
      <point x="359" y="642" type="curve" smooth="yes"/>
      <point x="406" y="642"/>
      <point x="439" y="606"/>
      <point x="439" y="556" type="curve" smooth="yes"/>
      <point x="439" y="507"/>
      <point x="409" y="459"/>
      <point x="359" y="431" type="curve"/>
      <point x="348" y="424"/>
      <point x="344" y="422"/>
    </contour>
    <contour>
      <point x="256" y="339" type="curve"/>
      <point x="306" y="241"/>
      <point x="352" y="168"/>
      <point x="404" y="104" type="curve"/>
      <point x="364" y="62"/>
      <point x="318" y="40"/>
      <point x="270" y="40" type="curve" smooth="yes"/>
      <point x="197" y="40"/>
      <point x="138" y="104"/>
      <point x="138" y="183" type="curve" smooth="yes"/>
      <point x="138" y="247"/>
      <point x="182" y="304"/>
    </contour>
  </outline>
</glyph>
<glyph name="parenleft" format="1">
  <advance width="333"/>
  <unicode hex="0028"/>
  <outline>
    <contour>
      <point x="300" y="-155" type="line"/>
      <point x="266" y="-132"/>
      <point x="250" y="-117"/>
      <point x="230" y="-91" type="curve" smooth="yes"/>
      <point x="176" y="-19"/>
      <point x="145" y="106"/>
      <point x="145" y="254" type="curve" smooth="yes"/>
      <point x="145" y="389"/>
      <point x="171" y="509"/>
      <point x="217" y="581" type="curve" smooth="yes"/>
      <point x="239" y="615"/>
      <point x="258" y="634"/>
      <point x="300" y="663" type="curve"/>
      <point x="287" y="680" type="line"/>
      <point x="241" y="656"/>
      <point x="221" y="642"/>
      <point x="195" y="618" type="curve" smooth="yes"/>
      <point x="105" y="535"/>
      <point x="53" y="400"/>
      <point x="53" y="254" type="curve" smooth="yes"/>
      <point x="53" y="117"/>
      <point x="98" y="-9"/>
      <point x="179" y="-93" type="curve" smooth="yes"/>
      <point x="209" y="-126"/>
      <point x="233" y="-143"/>
      <point x="287" y="-172" type="curve"/>
    </contour>
  </outline>
</glyph>
<glyph name="parenright" format="1">
  <advance width="333"/>
  <unicode hex="0029"/>
  <outline>
    <contour>
      <point x="43" y="-172" type="line"/>
      <point x="89" y="-147"/>
      <point x="109" y="-134"/>
      <point x="135" y="-110" type="curve" smooth="yes"/>
      <point x="224" y="-27"/>
      <point x="277" y="108"/>
      <point x="277" y="254" type="curve" smooth="yes"/>
      <point x="277" y="391"/>
      <point x="231" y="517"/>
      <point x="151" y="602" type="curve" smooth="yes"/>
      <point x="121" y="634"/>
      <point x="97" y="652"/>
      <point x="43" y="680" type="curve"/>
      <point x="30" y="663" type="line"/>
      <point x="65" y="639"/>
      <point x="80" y="625"/>
      <point x="100" y="599" type="curve" smooth="yes"/>
      <point x="154" y="527"/>
      <point x="185" y="402"/>
      <point x="185" y="254" type="curve" smooth="yes"/>
      <point x="185" y="119"/>
      <point x="159" y="0"/>
      <point x="113" y="-72" type="curve" smooth="yes"/>
      <point x="90" y="-107"/>
      <point x="71" y="-127"/>
      <point x="30" y="-155" type="curve"/>
    </contour>
  </outline>
</glyph>
<glyph name="plus" format="1">
  <advance width="549"/>
  <unicode hex="002B"/>
  <outline>
    <contour>
      <point x="302" y="533" type="line"/>
      <point x="247" y="533" type="line"/>
      <point x="247" y="294" type="line"/>
      <point x="10" y="294" type="line"/>
      <point x="10" y="239" type="line"/>
      <point x="247" y="239" type="line"/>
      <point x="247" y="0" type="line"/>
      <point x="302" y="0" type="line"/>
      <point x="302" y="239" type="line"/>
      <point x="539" y="239" type="line"/>
      <point x="539" y="294" type="line"/>
      <point x="302" y="294" type="line"/>
    </contour>
  </outline>
</glyph>
<glyph name="comma" format="1">
  <advance width="250"/>
  <unicode hex="002C"/>
  <outline>
    <contour>
      <point x="56" y="-120" type="line"/>
      <point x="93" y="-116"/>
      <point x="111" y="-109"/>
      <point x="138" y="-89" type="curve" smooth="yes"/>
      <point x="177" y="-60"/>
      <point x="194" y="-28"/>
      <point x="194" y="15" type="curve" smooth="yes"/>
      <point x="194" y="64"/>
      <point x="160" y="102"/>
      <point x="117" y="102" type="curve" smooth="yes"/>
      <point x="87" y="102"/>
      <point x="63" y="77"/>
      <point x="63" y="45" type="curve" smooth="yes"/>
      <point x="63" y="13"/>
      <point x="87" y="-13"/>
      <point x="116" y="-13" type="curve" smooth="yes"/>
      <point x="125" y="-13"/>
      <point x="131" y="-12"/>
      <point x="146" y="-8" type="curve"/>
      <point x="148" y="-50"/>
      <point x="105" y="-95"/>
      <point x="56" y="-104" type="curve"/>
    </contour>
  </outline>
</glyph>
<glyph name="period" format="1">
  <advance width="250"/>
  <unicode hex="002E"/>
  <outline>
    <contour>
      <point x="126" y="100" type="curve" smooth="yes"/>
      <point x="95" y="100"/>
      <point x="69" y="75"/>
      <point x="69" y="44" type="curve" smooth="yes"/>
      <point x="69" y="13"/>
      <point x="94" y="-13"/>
      <point x="125" y="-13" type="curve" smooth="yes"/>
      <point x="156" y="-13"/>
      <point x="181" y="13"/>
      <point x="181" y="44" type="curve" smooth="yes"/>
      <point x="181" y="74"/>
      <point x="155" y="100"/>
    </contour>
  </outline>
</glyph>
<glyph name="slash" format="1">
  <advance width="278"/>
  <unicode hex="002F"/>
  <outline>
    <contour>
      <point x="254" y="673" type="line"/>
      <point x="198" y="673" type="line"/>
      <point x="0" y="0" type="line"/>
      <point x="56" y="0" type="line"/>
    </contour>
  </outline>
</glyph>
<glyph name="zero" format="1">
  <advance width="500"/>
  <unicode hex="0030"/>
  <outline>
    <contour>
      <point x="252" y="686" type="curve" smooth="yes"/>
      <point x="165" y="686"/>
      <point x="102" y="641"/>
      <point x="62" y="549" type="curve" smooth="yes"/>
      <point x="35" y="488"/>
      <point x="23" y="420"/>
      <point x="23" y="336" type="curve" smooth="yes"/>
      <point x="23" y="124"/>
      <point x="111" y="-13"/>
      <point x="247" y="-13" type="curve" smooth="yes"/>
      <point x="383" y="-13"/>
      <point x="471" y="124"/>
      <point x="471" y="336" type="curve" smooth="yes"/>
      <point x="471" y="545"/>
      <point x="383" y="686"/>
    </contour>
    <contour>
      <point x="250" y="650" type="curve" smooth="yes"/>
      <point x="336" y="650"/>
      <point x="375" y="553"/>
      <point x="375" y="339" type="curve" smooth="yes"/>
      <point x="375" y="123"/>
      <point x="336" y="28"/>
      <point x="248" y="28" type="curve" smooth="yes"/>
      <point x="158" y="28"/>
      <point x="119" y="122"/>
      <point x="119" y="340" type="curve" smooth="yes"/>
      <point x="119" y="558"/>
      <point x="158" y="650"/>
    </contour>
  </outline>
</glyph>
<glyph name="one" format="1">
  <advance width="500"/>
  <unicode hex="0031"/>
  <outline>
    <contour>
      <point x="117" y="559" type="line"/>
      <point x="150" y="573"/>
      <point x="167" y="578"/>
      <point x="179" y="578" type="curve" smooth="yes"/>
      <point x="191" y="578"/>
      <point x="203" y="571"/>
      <point x="207" y="561" type="curve" smooth="yes"/>
      <point x="212" y="547"/>
      <point x="212" y="547"/>
      <point x="213" y="484" type="curve" smooth="yes"/>
      <point x="213" y="142" type="line" smooth="yes"/>
      <point x="213" y="46"/>
      <point x="200" y="30"/>
      <point x="117" y="26" type="curve"/>
      <point x="117" y="0" type="line"/>
      <point x="390" y="0" type="line"/>
      <point x="390" y="26" type="line"/>
      <point x="306" y="32"/>
      <point x="295" y="45"/>
      <point x="295" y="142" type="curve" smooth="yes"/>
      <point x="295" y="673" type="line"/>
      <point x="277" y="673" type="line"/>
      <point x="240" y="650"/>
      <point x="201" y="629"/>
      <point x="117" y="588" type="curve"/>
    </contour>
  </outline>
</glyph>
<glyph name="two" format="1">
  <advance width="500"/>
  <unicode hex="0032"/>
  <outline>
    <contour>
      <point x="25" y="0" type="line"/>
      <point x="421" y="0" type="line"/>
      <point x="475" y="134" type="line"/>
      <point x="450" y="134" type="line"/>
      <point x="419" y="81"/>
      <point x="401" y="73"/>
      <point x="314" y="73" type="curve" smooth="yes"/>
      <point x="122" y="73" type="line"/>
      <point x="326" y="272"/>
      <point x="399" y="385"/>
      <point x="399" y="503" type="curve" smooth="yes"/>
      <point x="399" y="609"/>
      <point x="325" y="686"/>
      <point x="223" y="686" type="curve" smooth="yes"/>
      <point x="172" y="686"/>
      <point x="129" y="666"/>
      <point x="95" y="625" type="curve" smooth="yes"/>
      <point x="67" y="592"/>
      <point x="55" y="561"/>
      <point x="45" y="500" type="curve"/>
      <point x="62" y="500" type="line"/>
      <point x="73" y="533"/>
      <point x="81" y="548"/>
      <point x="95" y="565" type="curve" smooth="yes"/>
      <point x="119" y="594"/>
      <point x="156" y="611"/>
      <point x="191" y="611" type="curve" smooth="yes"/>
      <point x="261" y="611"/>
      <point x="322" y="542"/>
      <point x="322" y="463" type="curve" smooth="yes"/>
      <point x="322" y="368"/>
      <point x="250" y="242"/>
      <point x="124" y="115" type="curve" smooth="yes"/>
      <point x="49" y="38" type="line"/>
      <point x="25" y="14" type="line"/>
    </contour>
  </outline>
</glyph>
<glyph name="three" format="1">
  <advance width="500"/>
  <unicode hex="0033"/>
  <outline>
    <contour>
      <point x="188" y="361" type="line"/>
      <point x="188" y="336" type="line"/>
      <point x="197" y="336" type="line" smooth="yes"/>
      <point x="250" y="336"/>
      <point x="284" y="322"/>
      <point x="314" y="288" type="curve" smooth="yes"/>
      <point x="343" y="255"/>
      <point x="358" y="214"/>
      <point x="358" y="168" type="curve" smooth="yes"/>
      <point x="358" y="89"/>
      <point x="309" y="33"/>
      <point x="238" y="33" type="curve" smooth="yes"/>
      <point x="198" y="33"/>
      <point x="175" y="41"/>
      <point x="134" y="71" type="curve" smooth="yes"/>
      <point x="105" y="92"/>
      <point x="90" y="99"/>
      <point x="75" y="99" type="curve" smooth="yes"/>
      <point x="55" y="99"/>
      <point x="39" y="82"/>
      <point x="39" y="62" type="curve" smooth="yes"/>
      <point x="39" y="23"/>
      <point x="108" y="-13"/>
      <point x="186" y="-13" type="curve" smooth="yes"/>
      <point x="323" y="-13"/>
      <point x="435" y="91"/>
      <point x="435" y="220" type="curve" smooth="yes"/>
      <point x="435" y="295"/>
      <point x="401" y="346"/>
      <point x="324" y="386" type="curve"/>
      <point x="392" y="439"/>
      <point x="420" y="485"/>
      <point x="420" y="544" type="curve" smooth="yes"/>
      <point x="420" y="624"/>
      <point x="354" y="686"/>
      <point x="268" y="686" type="curve" smooth="yes"/>
      <point x="183" y="686"/>
      <point x="130" y="643"/>
      <point x="96" y="545" type="curve"/>
      <point x="111" y="536" type="line"/>
      <point x="148" y="597"/>
      <point x="182" y="620"/>
      <point x="235" y="620" type="curve" smooth="yes"/>
      <point x="298" y="620"/>
      <point x="343" y="573"/>
      <point x="343" y="507" type="curve" smooth="yes"/>
      <point x="343" y="471"/>
      <point x="329" y="436"/>
      <point x="302" y="409" type="curve" smooth="yes"/>
      <point x="275" y="382"/>
      <point x="231" y="361"/>
      <point x="199" y="361" type="curve" smooth="yes"/>
    </contour>
  </outline>
</glyph>
<glyph name="four" format="1">
  <advance width="500"/>
  <unicode hex="0034"/>
  <outline>
    <contour>
      <point x="288" y="0" type="line"/>
      <point x="370" y="0" type="line"/>
      <point x="370" y="183" type="line"/>
      <point x="469" y="183" type="line"/>
      <point x="469" y="247" type="line"/>
      <point x="370" y="247" type="line"/>
      <point x="370" y="680" type="line"/>
      <point x="319" y="680" type="line"/>
      <point x="16" y="247" type="line"/>
      <point x="16" y="183" type="line"/>
      <point x="288" y="183" type="line"/>
    </contour>
    <contour>
      <point x="288" y="556" type="line"/>
      <point x="288" y="247" type="line"/>
      <point x="70" y="247" type="line"/>
    </contour>
  </outline>
</glyph>
<glyph name="five" format="1">
  <advance width="500"/>
  <unicode hex="0035"/>
  <outline>
    <contour>
      <point x="398" y="596" type="line"/>
      <point x="443" y="691" type="line"/>
      <point x="428" y="699" type="line"/>
      <point x="412" y="678"/>
      <point x="402" y="673"/>
      <point x="378" y="673" type="curve" smooth="yes"/>
      <point x="192" y="673" type="line"/>
      <point x="77" y="411" type="line"/>
      <point x="137" y="410"/>
      <point x="175" y="400"/>
      <point x="220" y="376" type="curve" smooth="yes"/>
      <point x="297" y="335"/>
      <point x="342" y="267"/>
      <point x="342" y="193" type="curve" smooth="yes"/>
      <point x="342" y="111"/>
      <point x="283" y="44"/>
      <point x="211" y="44" type="curve" smooth="yes"/>
      <point x="181" y="44"/>
      <point x="149" y="55"/>
      <point x="120" y="74" type="curve" smooth="yes"/>
      <point x="83" y="99"/>
      <point x="78" y="101"/>
      <point x="63" y="101" type="curve" smooth="yes"/>
      <point x="44" y="101"/>
      <point x="29" y="85"/>
      <point x="29" y="65" type="curve" smooth="yes"/>
      <point x="29" y="23"/>
      <point x="90" y="-13"/>
      <point x="162" y="-13" type="curve" smooth="yes"/>
      <point x="294" y="-13"/>
      <point x="408" y="101"/>
      <point x="408" y="233" type="curve" smooth="yes"/>
      <point x="408" y="307"/>
      <point x="375" y="376"/>
      <point x="315" y="425" type="curve" smooth="yes"/>
      <point x="276" y="457"/>
      <point x="238" y="474"/>
      <point x="157" y="495" type="curve"/>
      <point x="201" y="596" type="line"/>
    </contour>
  </outline>
</glyph>
<glyph name="six" format="1">
  <advance width="500"/>
  <unicode hex="0036"/>
  <outline>
    <contour>
      <point x="433" y="685" type="line"/>
      <point x="344" y="685"/>
      <point x="299" y="675"/>
      <point x="239" y="639" type="curve" smooth="yes"/>
      <point x="117" y="567"/>
      <point x="36" y="418"/>
      <point x="36" y="265" type="curve" smooth="yes"/>
      <point x="36" y="106"/>
      <point x="129" y="-13"/>
      <point x="252" y="-13" type="curve" smooth="yes"/>
      <point x="370" y="-13"/>
      <point x="468" y="90"/>
      <point x="468" y="216" type="curve" smooth="yes"/>
      <point x="468" y="335"/>
      <point x="386" y="419"/>
      <point x="271" y="419" type="curve" smooth="yes"/>
      <point x="226" y="419"/>
      <point x="184" y="406"/>
      <point x="140" y="377" type="curve"/>
      <point x="178" y="543"/>
      <point x="294" y="657"/>
      <point x="433" y="667" type="curve"/>
    </contour>
    <contour>
      <point x="130" y="335" type="curve"/>
      <point x="180" y="363"/>
      <point x="206" y="371"/>
      <point x="242" y="371" type="curve" smooth="yes"/>
      <point x="292" y="371"/>
      <point x="326" y="350"/>
      <point x="349" y="302" type="curve" smooth="yes"/>
      <point x="369" y="262"/>
      <point x="380" y="213"/>
      <point x="380" y="166" type="curve" smooth="yes"/>
      <point x="380" y="79"/>
      <point x="336" y="23"/>
      <point x="268" y="23" type="curve" smooth="yes"/>
      <point x="180" y="23"/>
      <point x="124" y="114"/>
      <point x="124" y="257" type="curve" smooth="yes"/>
      <point x="124" y="282"/>
      <point x="126" y="313"/>
      <point x="129" y="328" type="curve" smooth="yes"/>
      <point x="130" y="332"/>
      <point x="130" y="332"/>
    </contour>
  </outline>
</glyph>
<glyph name="seven" format="1">
  <advance width="500"/>
  <unicode hex="0037"/>
  <outline>
    <contour>
      <point x="448" y="673" type="line"/>
      <point x="86" y="673" type="line"/>
      <point x="24" y="509" type="line"/>
      <point x="54" y="509" type="line"/>
      <point x="69" y="541"/>
      <point x="89" y="567"/>
      <point x="108" y="579" type="curve" smooth="yes"/>
      <point x="126" y="591"/>
      <point x="133" y="592"/>
      <point x="205" y="592" type="curve" smooth="yes"/>
      <point x="360" y="592" type="line"/>
      <point x="150" y="9" type="line"/>
      <point x="176" y="3"/>
      <point x="180" y="2"/>
      <point x="207" y="-7" type="curve"/>
    </contour>
  </outline>
</glyph>
<glyph name="eight" format="1">
  <advance width="500"/>
  <unicode hex="0038"/>
  <outline>
    <contour>
      <point x="196" y="334" type="curve"/>
      <point x="94" y="268"/>
      <point x="54" y="215"/>
      <point x="54" y="144" type="curve" smooth="yes"/>
      <point x="54" y="53"/>
      <point x="135" y="-13"/>
      <point x="248" y="-13" type="curve" smooth="yes"/>
      <point x="359" y="-13"/>
      <point x="440" y="58"/>
      <point x="440" y="155" type="curve" smooth="yes"/>
      <point x="440" y="226"/>
      <point x="402" y="280"/>
      <point x="292" y="367" type="curve"/>
      <point x="383" y="418"/>
      <point x="426" y="471"/>
      <point x="426" y="531" type="curve" smooth="yes"/>
      <point x="426" y="617"/>
      <point x="346" y="686"/>
      <point x="245" y="686" type="curve" smooth="yes"/>
      <point x="141" y="686"/>
      <point x="62" y="617"/>
      <point x="62" y="527" type="curve" smooth="yes"/>
      <point x="62" y="461"/>
      <point x="93" y="417"/>
    </contour>
    <contour>
      <point x="224" y="314" type="curve"/>
      <point x="346" y="208"/>
      <point x="368" y="178"/>
      <point x="368" y="122" type="curve" smooth="yes"/>
      <point x="368" y="66"/>
      <point x="320" y="25"/>
      <point x="255" y="25" type="curve" smooth="yes"/>
      <point x="178" y="25"/>
      <point x="131" y="75"/>
      <point x="131" y="157" type="curve" smooth="yes"/>
      <point x="131" y="216"/>
      <point x="158" y="261"/>
    </contour>
    <contour>
      <point x="266" y="388" type="curve"/>
      <point x="171" y="456"/>
      <point x="134" y="502"/>
      <point x="134" y="553" type="curve" smooth="yes"/>
      <point x="134" y="606"/>
      <point x="184" y="650"/>
      <point x="244" y="650" type="curve" smooth="yes"/>
      <point x="310" y="650"/>
      <point x="358" y="599"/>
      <point x="358" y="530" type="curve" smooth="yes"/>
      <point x="358" y="473"/>
      <point x="334" y="436"/>
    </contour>
  </outline>
</glyph>
<glyph name="nine" format="1">
  <advance width="500"/>
  <unicode hex="0039"/>
  <outline>
    <contour>
      <point x="46" y="-12" type="line"/>
      <point x="61" y="-13"/>
      <point x="73" y="-13"/>
      <point x="80" y="-13" type="curve" smooth="yes"/>
      <point x="168" y="-13"/>
      <point x="258" y="26"/>
      <point x="327" y="92" type="curve" smooth="yes"/>
      <point x="409" y="173"/>
      <point x="460" y="295"/>
      <point x="460" y="410" type="curve" smooth="yes"/>
      <point x="460" y="473"/>
      <point x="443" y="538"/>
      <point x="412" y="590" type="curve" smooth="yes"/>
      <point x="375" y="651"/>
      <point x="313" y="686"/>
      <point x="240" y="686" type="curve" smooth="yes"/>
      <point x="120" y="686"/>
      <point x="31" y="588"/>
      <point x="31" y="457" type="curve" smooth="yes"/>
      <point x="31" y="336"/>
      <point x="110" y="253"/>
      <point x="224" y="253" type="curve" smooth="yes"/>
      <point x="265" y="253"/>
      <point x="294" y="262"/>
      <point x="352" y="291" type="curve"/>
      <point x="303" y="122"/>
      <point x="182" y="10"/>
      <point x="46" y="8" type="curve"/>
    </contour>
    <contour>
      <point x="362" y="331" type="curve"/>
      <point x="309" y="306"/>
      <point x="281" y="298"/>
      <point x="248" y="298" type="curve" smooth="yes"/>
      <point x="172" y="298"/>
      <point x="126" y="376"/>
      <point x="126" y="504" type="curve" smooth="yes"/>
      <point x="126" y="592"/>
      <point x="170" y="651"/>
      <point x="236" y="651" type="curve" smooth="yes"/>
      <point x="317" y="651"/>
      <point x="372" y="562"/>
      <point x="372" y="430" type="curve" smooth="yes"/>
      <point x="372" y="395"/>
      <point x="370" y="371"/>
    </contour>
  </outline>
</glyph>
<glyph name="colon" format="1">
  <advance width="278"/>
  <unicode hex="003A"/>
  <outline>
    <contour>
      <point x="138" y="100" type="curve" smooth="yes"/>
      <point x="107" y="100"/>
      <point x="81" y="75"/>
      <point x="81" y="44" type="curve" smooth="yes"/>
      <point x="81" y="13"/>
      <point x="106" y="-13"/>
      <point x="137" y="-13" type="curve" smooth="yes"/>
      <point x="168" y="-13"/>
      <point x="193" y="13"/>
      <point x="193" y="44" type="curve" smooth="yes"/>
      <point x="193" y="74"/>
      <point x="167" y="100"/>
    </contour>
    <contour>
      <point x="138" y="463" type="curve" smooth="yes"/>
      <point x="107" y="463"/>
      <point x="81" y="438"/>
      <point x="81" y="407" type="curve" smooth="yes"/>
      <point x="81" y="376"/>
      <point x="106" y="350"/>
      <point x="137" y="350" type="curve" smooth="yes"/>
      <point x="168" y="350"/>
      <point x="193" y="376"/>
      <point x="193" y="407" type="curve" smooth="yes"/>
      <point x="193" y="437"/>
      <point x="168" y="463"/>
    </contour>
  </outline>
</glyph>
<glyph name="semicolon" format="1">
  <advance width="278"/>
  <unicode hex="003B"/>
  <outline>
    <contour>
      <point x="156" y="463" type="curve" smooth="yes"/>
      <point x="124" y="463"/>
      <point x="99" y="438"/>
      <point x="99" y="407" type="curve" smooth="yes"/>
      <point x="99" y="375"/>
      <point x="124" y="350"/>
      <point x="155" y="350" type="curve" smooth="yes"/>
      <point x="186" y="350"/>
      <point x="211" y="375"/>
      <point x="211" y="407" type="curve" smooth="yes"/>
      <point x="211" y="438"/>
      <point x="186" y="463"/>
    </contour>
    <contour>
      <point x="83" y="-120" type="line"/>
      <point x="120" y="-116"/>
      <point x="138" y="-109"/>
      <point x="165" y="-89" type="curve" smooth="yes"/>
      <point x="204" y="-60"/>
      <point x="221" y="-28"/>
      <point x="221" y="15" type="curve" smooth="yes"/>
      <point x="221" y="64"/>
      <point x="187" y="102"/>
      <point x="144" y="102" type="curve" smooth="yes"/>
      <point x="114" y="102"/>
      <point x="90" y="77"/>
      <point x="90" y="45" type="curve" smooth="yes"/>
      <point x="90" y="13"/>
      <point x="114" y="-13"/>
      <point x="143" y="-13" type="curve" smooth="yes"/>
      <point x="152" y="-13"/>
      <point x="158" y="-12"/>
      <point x="173" y="-8" type="curve"/>
      <point x="175" y="-50"/>
      <point x="132" y="-95"/>
      <point x="83" y="-104" type="curve"/>
    </contour>
  </outline>
</glyph>
<glyph name="less" format="1">
  <advance width="549"/>
  <unicode hex="003C"/>
  <outline>
    <contour>
      <point x="523" y="522" type="line"/>
      <point x="26" y="288" type="line"/>
      <point x="26" y="233" type="line"/>
      <point x="523" y="0" type="line"/>
      <point x="523" y="62" type="line"/>
      <point x="105" y="261" type="line"/>
      <point x="523" y="460" type="line"/>
    </contour>
  </outline>
</glyph>
<glyph name="equal" format="1">
  <advance width="549"/>
  <unicode hex="003D"/>
  <outline>
    <contour>
      <point x="537" y="391" type="line"/>
      <point x="11" y="391" type="line"/>
      <point x="11" y="336" type="line"/>
      <point x="537" y="336" type="line"/>
    </contour>
    <contour>
      <point x="537" y="197" type="line"/>
      <point x="11" y="197" type="line"/>
      <point x="11" y="142" type="line"/>
      <point x="537" y="142" type="line"/>
    </contour>
  </outline>
</glyph>
<glyph name="greater" format="1">
  <advance width="549"/>
  <unicode hex="003E"/>
  <outline>
    <contour>
      <point x="26" y="522" type="line"/>
      <point x="26" y="460" type="line"/>
      <point x="444" y="261" type="line"/>
      <point x="26" y="62" type="line"/>
      <point x="26" y="0" type="line"/>
      <point x="523" y="233" type="line"/>
      <point x="523" y="288" type="line"/>
    </contour>
  </outline>
</glyph>
<glyph name="question" format="1">
  <advance width="444"/>
  <unicode hex="003F"/>
  <outline>
    <contour>
      <point x="243" y="176" type="line"/>
      <point x="244" y="238"/>
      <point x="260" y="283"/>
      <point x="298" y="330" type="curve"/>
      <point x="359" y="397"/>
      <point x="359" y="397"/>
      <point x="375" y="421" type="curve" smooth="yes"/>
      <point x="400" y="458"/>
      <point x="412" y="496"/>
      <point x="412" y="536" type="curve" smooth="yes"/>
      <point x="412" y="624"/>
      <point x="341" y="686"/>
      <point x="239" y="686" type="curve" smooth="yes"/>
      <point x="146" y="686"/>
      <point x="70" y="624"/>
      <point x="70" y="546" type="curve" smooth="yes"/>
      <point x="70" y="503"/>
      <point x="94" y="471"/>
      <point x="125" y="471" type="curve" smooth="yes"/>
      <point x="149" y="471"/>
      <point x="168" y="489"/>
      <point x="168" y="512" type="curve" smooth="yes"/>
      <point x="168" y="523"/>
      <point x="164" y="534"/>
      <point x="155" y="546" type="curve" smooth="yes"/>
      <point x="138" y="570"/>
      <point x="136" y="573"/>
      <point x="136" y="587" type="curve" smooth="yes"/>
      <point x="136" y="624"/>
      <point x="173" y="653"/>
      <point x="221" y="653" type="curve" smooth="yes"/>
      <point x="281" y="653"/>
      <point x="317" y="607"/>
      <point x="317" y="532" type="curve" smooth="yes"/>
      <point x="317" y="487"/>
      <point x="311" y="467"/>
      <point x="266" y="377" type="curve" smooth="yes"/>
      <point x="229" y="302"/>
      <point x="223" y="275"/>
      <point x="221" y="176" type="curve"/>
    </contour>
    <contour>
      <point x="240" y="99" type="curve" smooth="yes"/>
      <point x="208" y="99"/>
      <point x="183" y="74"/>
      <point x="183" y="43" type="curve" smooth="yes"/>
      <point x="183" y="12"/>
      <point x="208" y="-13"/>
      <point x="239" y="-13" type="curve" smooth="yes"/>
      <point x="270" y="-13"/>
      <point x="295" y="12"/>
      <point x="295" y="43" type="curve" smooth="yes"/>
      <point x="295" y="73"/>
      <point x="270" y="99"/>
    </contour>
  </outline>
</glyph>
<glyph name="bracketleft" format="1">
  <advance width="333"/>
  <unicode hex="005B"/>
  <outline>
    <contour>
      <point x="299" y="-165" type="line"/>
      <point x="299" y="-131" type="line"/>
      <point x="196" y="-131" type="line" smooth="yes"/>
      <point x="179" y="-131"/>
      <point x="173" y="-125"/>
      <point x="173" y="-108" type="curve" smooth="yes"/>
      <point x="173" y="610" type="line" smooth="yes"/>
      <point x="173" y="635"/>
      <point x="177" y="639"/>
      <point x="200" y="639" type="curve" smooth="yes"/>
      <point x="299" y="639" type="line"/>
      <point x="299" y="673" type="line"/>
      <point x="86" y="673" type="line"/>
      <point x="86" y="-165" type="line"/>
    </contour>
  </outline>
</glyph>
<glyph name="bracketright" format="1">
  <advance width="333"/>
  <unicode hex="005D"/>
  <outline>
    <contour>
      <point x="33" y="-165" type="line"/>
      <point x="246" y="-165" type="line"/>
      <point x="246" y="673" type="line"/>
      <point x="33" y="673" type="line"/>
      <point x="33" y="639" type="line"/>
      <point x="132" y="639" type="line" smooth="yes"/>
      <point x="155" y="639"/>
      <point x="159" y="634"/>
      <point x="159" y="610" type="curve" smooth="yes"/>
      <point x="159" y="-104" type="line" smooth="yes"/>
      <point x="159" y="-126"/>
      <point x="154" y="-131"/>
      <point x="130" y="-131" type="curve" smooth="yes"/>
      <point x="33" y="-131" type="line"/>
    </contour>
  </outline>
</glyph>
<glyph name="underscore" format="1">
  <advance width="500"/>
  <unicode hex="005F"/>
  <outline>
    <contour>
      <point x="-2" y="-206" type="line"/>
      <point x="-2" y="-252" type="line"/>
      <point x="502" y="-252" type="line"/>
      <point x="502" y="-206" type="line"/>
    </contour>
  </outline>
</glyph>
<glyph name="braceleft" format="1">
  <advance width="480"/>
  <unicode hex="007B"/>
  <outline>
    <contour>
      <point x="267" y="556" type="line" smooth="yes"/>
      <point x="267" y="601"/>
      <point x="275" y="616"/>
      <point x="307" y="631" type="curve" smooth="yes"/>
      <point x="330" y="641"/>
      <point x="352" y="646"/>
      <point x="396" y="649" type="curve"/>
      <point x="396" y="673" type="line"/>
      <point x="299" y="673"/>
      <point x="275" y="670"/>
      <point x="240" y="655" type="curve" smooth="yes"/>
      <point x="199" y="637"/>
      <point x="179" y="605"/>
      <point x="179" y="557" type="curve" smooth="yes"/>
      <point x="179" y="379" type="line" smooth="yes"/>
      <point x="179" y="344"/>
      <point x="172" y="330"/>
      <point x="147" y="315" type="curve" smooth="yes"/>
      <point x="123" y="301"/>
      <point x="108" y="297"/>
      <point x="58" y="289" type="curve"/>
      <point x="58" y="265" type="line"/>
      <point x="104" y="259"/>
      <point x="120" y="255"/>
      <point x="144" y="243" type="curve" smooth="yes"/>
      <point x="171" y="229"/>
      <point x="179" y="214"/>
      <point x="179" y="175" type="curve" smooth="yes"/>
      <point x="179" y="-38" type="line" smooth="yes"/>
      <point x="179" y="-94"/>
      <point x="198" y="-129"/>
      <point x="238" y="-146" type="curve" smooth="yes"/>
      <point x="273" y="-162"/>
      <point x="298" y="-165"/>
      <point x="397" y="-165" type="curve"/>
      <point x="397" y="-141" type="line"/>
      <point x="363" y="-140"/>
      <point x="336" y="-135"/>
      <point x="314" y="-126" type="curve" smooth="yes"/>
      <point x="276" y="-111"/>
      <point x="267" y="-96"/>
      <point x="267" y="-48" type="curve" smooth="yes"/>
      <point x="267" y="165" type="line" smooth="yes"/>
      <point x="267" y="204"/>
      <point x="253" y="234"/>
      <point x="225" y="250" type="curve" smooth="yes"/>
      <point x="203" y="263"/>
      <point x="187" y="269"/>
      <point x="141" y="277" type="curve"/>
      <point x="237" y="295"/>
      <point x="267" y="321"/>
      <point x="267" y="384" type="curve" smooth="yes"/>
    </contour>
  </outline>
</glyph>
<glyph name="bar" format="1">
  <advance width="200"/>
  <unicode hex="007C"/>
  <outline>
    <contour>
      <point x="65" y="673" type="line"/>
      <point x="65" y="-177" type="line"/>
      <point x="135" y="-177" type="line"/>
      <point x="135" y="673" type="line"/>
    </contour>
  </outline>
</glyph>
<glyph name="braceright" format="1">
  <advance width="480"/>
  <unicode hex="007D"/>
  <outline>
    <contour>
      <point x="209" y="-48" type="line" smooth="yes"/>
      <point x="209" y="-94"/>
      <point x="200" y="-109"/>
      <point x="166" y="-124" type="curve" smooth="yes"/>
      <point x="143" y="-134"/>
      <point x="115" y="-140"/>
      <point x="79" y="-141" type="curve"/>
      <point x="79" y="-165" type="line"/>
      <point x="180" y="-165"/>
      <point x="203" y="-162"/>
      <point x="238" y="-146" type="curve" smooth="yes"/>
      <point x="278" y="-129"/>
      <point x="297" y="-94"/>
      <point x="297" y="-38" type="curve" smooth="yes"/>
      <point x="297" y="175" type="line" smooth="yes"/>
      <point x="297" y="214"/>
      <point x="305" y="229"/>
      <point x="332" y="243" type="curve" smooth="yes"/>
      <point x="356" y="255"/>
      <point x="372" y="259"/>
      <point x="418" y="265" type="curve"/>
      <point x="418" y="289" type="line"/>
      <point x="368" y="297"/>
      <point x="353" y="301"/>
      <point x="329" y="315" type="curve" smooth="yes"/>
      <point x="304" y="330"/>
      <point x="297" y="344"/>
      <point x="297" y="379" type="curve" smooth="yes"/>
      <point x="297" y="557" type="line" smooth="yes"/>
      <point x="297" y="605"/>
      <point x="277" y="637"/>
      <point x="236" y="655" type="curve" smooth="yes"/>
      <point x="201" y="670"/>
      <point x="176" y="673"/>
      <point x="80" y="673" type="curve"/>
      <point x="80" y="649" type="line"/>
      <point x="122" y="646"/>
      <point x="143" y="642"/>
      <point x="165" y="633" type="curve" smooth="yes"/>
      <point x="200" y="618"/>
      <point x="209" y="602"/>
      <point x="209" y="556" type="curve" smooth="yes"/>
      <point x="209" y="384" type="line" smooth="yes"/>
      <point x="209" y="321"/>
      <point x="239" y="295"/>
      <point x="335" y="277" type="curve"/>
      <point x="289" y="269"/>
      <point x="273" y="263"/>
      <point x="251" y="250" type="curve" smooth="yes"/>
      <point x="223" y="234"/>
      <point x="209" y="204"/>
      <point x="209" y="165" type="curve" smooth="yes"/>
    </contour>
  </outline>
</glyph>
<glyph name="logicalnot" format="1">
  <advance width="713"/>
  <unicode hex="00AC"/>
  <outline>
    <contour>
      <point x="15" y="367" type="line"/>
      <point x="15" y="307" type="line"/>
      <point x="621" y="307" type="line"/>
      <point x="621" y="40" type="line"/>
      <point x="680" y="40" type="line"/>
      <point x="680" y="367" type="line"/>
    </contour>
  </outline>
</glyph>
<glyph name="plusminus" format="1">
  <advance width="549"/>
  <unicode hex="00B1"/>
  <outline>
    <contour>
      <point x="11" y="55" type="line"/>
      <point x="11" y="0" type="line"/>
      <point x="535" y="0" type="line"/>
      <point x="535" y="55" type="line"/>
    </contour>
    <contour>
      <point x="302" y="662" type="line"/>
      <point x="247" y="662" type="line"/>
      <point x="247" y="423" type="line"/>
      <point x="10" y="423" type="line"/>
      <point x="10" y="368" type="line"/>
      <point x="247" y="368" type="line"/>
      <point x="247" y="129" type="line"/>
      <point x="302" y="129" type="line"/>
      <point x="302" y="368" type="line"/>
      <point x="539" y="368" type="line"/>
      <point x="539" y="423" type="line"/>
      <point x="302" y="423" type="line"/>
    </contour>
  </outline>
</glyph>
<glyph name="multiply" format="1">
  <advance width="549"/>
  <unicode hex="00D7"/>
  <outline>
    <contour>
      <point x="236" y="267" type="line"/>
      <point x="17" y="47" type="line"/>
      <point x="56" y="9" type="line"/>
      <point x="275" y="228" type="line"/>
      <point x="494" y="9" type="line"/>
      <point x="533" y="47" type="line"/>
      <point x="314" y="267" type="line"/>
      <point x="533" y="486" type="line"/>
      <point x="494" y="525" type="line"/>
      <point x="275" y="305" type="line"/>
      <point x="56" y="525" type="line"/>
      <point x="17" y="486" type="line"/>
    </contour>
  </outline>
</glyph>
<glyph name="divide" format="1">
  <advance width="549"/>
  <unicode hex="00F7"/>
  <outline>
    <contour>
      <point x="274" y="126" type="curve" smooth="yes"/>
      <point x="239" y="126"/>
      <point x="211" y="99"/>
      <point x="211" y="65" type="curve" smooth="yes"/>
      <point x="211" y="30"/>
      <point x="239" y="2"/>
      <point x="273" y="2" type="curve" smooth="yes"/>
      <point x="307" y="2"/>
      <point x="335" y="30"/>
      <point x="335" y="64" type="curve" smooth="yes"/>
      <point x="335" y="98"/>
      <point x="307" y="126"/>
    </contour>
    <contour>
      <point x="274" y="525" type="curve" smooth="yes"/>
      <point x="239" y="525"/>
      <point x="211" y="497"/>
      <point x="211" y="464" type="curve" smooth="yes"/>
      <point x="211" y="429"/>
      <point x="239" y="401"/>
      <point x="273" y="401" type="curve" smooth="yes"/>
      <point x="307" y="401"/>
      <point x="335" y="429"/>
      <point x="335" y="463" type="curve" smooth="yes"/>
      <point x="335" y="497"/>
      <point x="307" y="525"/>
    </contour>
    <contour>
      <point x="10" y="294" type="line"/>
      <point x="10" y="239" type="line"/>
      <point x="536" y="239" type="line"/>
      <point x="536" y="294" type="line"/>
    </contour>
  </outline>
</glyph>
<glyph name="florin" format="1">
  <advance width="500"/>
  <unicode hex="0192"/>
  <outline>
    <contour>
      <point x="116" y="422" type="line"/>
      <point x="106" y="390" type="line"/>
      <point x="214" y="390" type="line"/>
      <point x="202" y="302"/>
      <point x="193" y="217"/>
      <point x="183" y="112" type="curve" smooth="yes"/>
      <point x="170" y="-37"/>
      <point x="161" y="-85"/>
      <point x="140" y="-119" type="curve" smooth="yes"/>
      <point x="128" y="-137"/>
      <point x="110" y="-148"/>
      <point x="93" y="-148" type="curve" smooth="yes"/>
      <point x="82" y="-148"/>
      <point x="75" y="-144"/>
      <point x="75" y="-137" type="curve" smooth="yes"/>
      <point x="75" y="-134"/>
      <point x="76" y="-131"/>
      <point x="78" y="-128" type="curve"/>
      <point x="88" y="-111"/>
      <point x="90" y="-106"/>
      <point x="90" y="-94" type="curve" smooth="yes"/>
      <point x="90" y="-74"/>
      <point x="74" y="-59"/>
      <point x="52" y="-59" type="curve" smooth="yes"/>
      <point x="23" y="-59"/>
      <point x="2" y="-80"/>
      <point x="2" y="-108" type="curve" smooth="yes"/>
      <point x="2" y="-146"/>
      <point x="37" y="-174"/>
      <point x="84" y="-174" type="curve" smooth="yes"/>
      <point x="156" y="-174"/>
      <point x="204" y="-119"/>
      <point x="239" y="3" type="curve" smooth="yes"/>
      <point x="266" y="98"/>
      <point x="276" y="156"/>
      <point x="303" y="390" type="curve"/>
      <point x="422" y="390" type="line"/>
      <point x="432" y="422" type="line"/>
      <point x="307" y="422" type="line"/>
      <point x="325" y="562"/>
      <point x="329" y="586"/>
      <point x="341" y="614" type="curve" smooth="yes"/>
      <point x="354" y="645"/>
      <point x="373" y="661"/>
      <point x="396" y="661" type="curve" smooth="yes"/>
      <point x="408" y="661"/>
      <point x="416" y="656"/>
      <point x="416" y="648" type="curve" smooth="yes"/>
      <point x="416" y="646"/>
      <point x="415" y="643"/>
      <point x="414" y="641" type="curve" smooth="yes"/>
      <point x="405" y="623"/>
      <point x="404" y="620"/>
      <point x="404" y="612" type="curve" smooth="yes"/>
      <point x="404" y="590"/>
      <point x="421" y="575"/>
      <point x="445" y="575" type="curve" smooth="yes"/>
      <point x="473" y="575"/>
      <point x="494" y="596"/>
      <point x="494" y="624" type="curve" smooth="yes"/>
      <point x="494" y="660"/>
      <point x="456" y="687"/>
      <point x="406" y="687" type="curve" smooth="yes"/>
      <point x="309" y="687"/>
      <point x="253" y="606"/>
      <point x="219" y="422" type="curve"/>
    </contour>
  </outline>
</glyph>
<glyph name="Alpha" format="1">
  <advance width="722"/>
  <unicode hex="0391"/>
  <outline>
    <contour>
      <point x="353" y="673" type="line"/>
      <point x="342" y="673" type="line"/>
      <point x="118" y="142" type="line" smooth="yes"/>
      <point x="76" y="44"/>
      <point x="69" y="37"/>
      <point x="4" y="26" type="curve"/>
      <point x="4" y="0" type="line"/>
      <point x="198" y="0" type="line"/>
      <point x="198" y="26" type="line"/>
      <point x="160" y="28"/>
      <point x="143" y="41"/>
      <point x="143" y="67" type="curve" smooth="yes"/>
      <point x="143" y="83"/>
      <point x="148" y="99"/>
      <point x="166" y="142" type="curve" smooth="yes"/>
      <point x="196" y="214" type="line"/>
      <point x="439" y="214" type="line"/>
      <point x="470" y="142" type="line" smooth="yes"/>
      <point x="493" y="89"/>
      <point x="494" y="84"/>
      <point x="494" y="67" type="curve" smooth="yes"/>
      <point x="494" y="42"/>
      <point x="480" y="30"/>
      <point x="446" y="26" type="curve"/>
      <point x="446" y="0" type="line"/>
      <point x="684" y="0" type="line"/>
      <point x="684" y="26" type="line"/>
      <point x="629" y="39"/>
      <point x="627" y="41"/>
      <point x="582" y="142" type="curve" smooth="yes"/>
    </contour>
    <contour>
      <point x="318" y="501" type="line"/>
      <point x="426" y="255" type="line"/>
      <point x="212" y="255" type="line"/>
    </contour>
  </outline>
</glyph>
<glyph name="Beta" format="1">
  <advance width="667"/>
  <unicode hex="0392"/>
  <outline>
    <contour>
      <point x="29" y="647" type="line"/>
      <point x="32" y="647" type="line" smooth="yes"/>
      <point x="65" y="647"/>
      <point x="92" y="635"/>
      <point x="106" y="616" type="curve"/>
      <point x="117" y="598"/>
      <point x="120" y="583"/>
      <point x="120" y="531" type="curve" smooth="yes"/>
      <point x="120" y="142" type="line" smooth="yes"/>
      <point x="120" y="90"/>
      <point x="117" y="74"/>
      <point x="106" y="57" type="curve"/>
      <point x="92" y="38"/>
      <point x="65" y="26"/>
      <point x="32" y="26" type="curve" smooth="yes"/>
      <point x="29" y="26" type="line"/>
      <point x="29" y="0" type="line"/>
      <point x="355" y="0" type="line" smooth="yes"/>
      <point x="413" y="0"/>
      <point x="457" y="8"/>
      <point x="492" y="26" type="curve" smooth="yes"/>
      <point x="555" y="58"/>
      <point x="592" y="116"/>
      <point x="592" y="184" type="curve" smooth="yes"/>
      <point x="592" y="241"/>
      <point x="565" y="286"/>
      <point x="514" y="316" type="curve" smooth="yes"/>
      <point x="487" y="332"/>
      <point x="464" y="340"/>
      <point x="414" y="350" type="curve"/>
      <point x="502" y="365"/>
      <point x="557" y="420"/>
      <point x="557" y="494" type="curve" smooth="yes"/>
      <point x="557" y="559"/>
      <point x="523" y="614"/>
      <point x="463" y="646" type="curve" smooth="yes"/>
      <point x="426" y="665"/>
      <point x="380" y="673"/>
      <point x="302" y="673" type="curve" smooth="yes"/>
      <point x="29" y="673" type="line"/>
    </contour>
    <contour>
      <point x="222" y="370" type="line"/>
      <point x="222" y="621" type="line" smooth="yes"/>
      <point x="222" y="634"/>
      <point x="222" y="634"/>
      <point x="284" y="634" type="curve" smooth="yes"/>
      <point x="337" y="634"/>
      <point x="361" y="631"/>
      <point x="383" y="622" type="curve" smooth="yes"/>
      <point x="426" y="605"/>
      <point x="454" y="559"/>
      <point x="454" y="506" type="curve" smooth="yes"/>
      <point x="454" y="422"/>
      <point x="392" y="370"/>
      <point x="293" y="370" type="curve" smooth="yes"/>
    </contour>
    <contour>
      <point x="222" y="332" type="line"/>
      <point x="292" y="332" type="line" smooth="yes"/>
      <point x="408" y="332"/>
      <point x="469" y="281"/>
      <point x="469" y="186" type="curve" smooth="yes"/>
      <point x="469" y="90"/>
      <point x="409" y="40"/>
      <point x="294" y="40" type="curve" smooth="yes"/>
      <point x="233" y="40"/>
      <point x="222" y="42"/>
      <point x="222" y="56" type="curve" smooth="yes"/>
    </contour>
  </outline>
</glyph>
<glyph name="Gamma" format="1">
  <advance width="603"/>
  <unicode hex="0393"/>
  <outline>
    <contour>
      <point x="217" y="632" type="line"/>
      <point x="443" y="632" type="line" smooth="yes"/>
      <point x="531" y="632"/>
      <point x="570" y="598"/>
      <point x="583" y="511" type="curve"/>
      <point x="609" y="511" type="line"/>
      <point x="599" y="673" type="line"/>
      <point x="24" y="673" type="line"/>
      <point x="24" y="647" type="line"/>
      <point x="27" y="647" type="line" smooth="yes"/>
      <point x="60" y="647"/>
      <point x="87" y="635"/>
      <point x="101" y="616" type="curve"/>
      <point x="112" y="599"/>
      <point x="115" y="583"/>
      <point x="115" y="531" type="curve" smooth="yes"/>
      <point x="115" y="142" type="line" smooth="yes"/>
      <point x="115" y="90"/>
      <point x="112" y="74"/>
      <point x="101" y="57" type="curve"/>
      <point x="87" y="38"/>
      <point x="60" y="26"/>
      <point x="27" y="26" type="curve" smooth="yes"/>
      <point x="24" y="26" type="line"/>
      <point x="24" y="0" type="line"/>
      <point x="325" y="0" type="line"/>
      <point x="325" y="26" type="line"/>
      <point x="315" y="26" type="line" smooth="yes"/>
      <point x="278" y="26"/>
      <point x="245" y="38"/>
      <point x="231" y="57" type="curve" smooth="yes"/>
      <point x="220" y="73"/>
      <point x="217" y="89"/>
      <point x="217" y="142" type="curve" smooth="yes"/>
    </contour>
  </outline>
</glyph>
<glyph name="Epsilon" format="1">
  <advance width="611"/>
  <unicode hex="0395"/>
  <outline>
    <contour>
      <point x="32" y="647" type="line"/>
      <point x="35" y="647" type="line" smooth="yes"/>
      <point x="68" y="647"/>
      <point x="95" y="635"/>
      <point x="109" y="616" type="curve"/>
      <point x="120" y="599"/>
      <point x="123" y="583"/>
      <point x="123" y="531" type="curve" smooth="yes"/>
      <point x="123" y="142" type="line" smooth="yes"/>
      <point x="123" y="90"/>
      <point x="120" y="74"/>
      <point x="109" y="57" type="curve"/>
      <point x="95" y="38"/>
      <point x="68" y="26"/>
      <point x="35" y="26" type="curve" smooth="yes"/>
      <point x="32" y="26" type="line"/>
      <point x="32" y="0" type="line"/>
      <point x="564" y="0" type="line"/>
      <point x="617" y="173" type="line"/>
      <point x="590" y="173" type="line"/>
      <point x="549" y="69"/>
      <point x="508" y="41"/>
      <point x="397" y="41" type="curve" smooth="yes"/>
      <point x="267" y="41" type="line" smooth="yes"/>
      <point x="231" y="41"/>
      <point x="225" y="48"/>
      <point x="225" y="92" type="curve" smooth="yes"/>
      <point x="225" y="329" type="line"/>
      <point x="367" y="329" type="line" smooth="yes"/>
      <point x="453" y="329"/>
      <point x="473" y="312"/>
      <point x="476" y="232" type="curve"/>
      <point x="501" y="232" type="line"/>
      <point x="501" y="470" type="line"/>
      <point x="476" y="470" type="line"/>
      <point x="476" y="465" type="line" smooth="yes"/>
      <point x="476" y="442"/>
      <point x="469" y="412"/>
      <point x="460" y="399" type="curve" smooth="yes"/>
      <point x="445" y="378"/>
      <point x="421" y="370"/>
      <point x="367" y="370" type="curve" smooth="yes"/>
      <point x="225" y="370" type="line"/>
      <point x="225" y="632" type="line"/>
      <point x="390" y="632" type="line" smooth="yes"/>
      <point x="478" y="632"/>
      <point x="517" y="598"/>
      <point x="530" y="511" type="curve"/>
      <point x="556" y="511" type="line"/>
      <point x="546" y="673" type="line"/>
      <point x="32" y="673" type="line"/>
    </contour>
  </outline>
</glyph>
<glyph name="Zeta" format="1">
  <advance width="611"/>
  <unicode hex="0396"/>
  <outline>
    <contour>
      <point x="618" y="673" type="line"/>
      <point x="116" y="673" type="line"/>
      <point x="99" y="497" type="line"/>
      <point x="125" y="497" type="line"/>
      <point x="138" y="608"/>
      <point x="164" y="630"/>
      <point x="283" y="630" type="curve" smooth="yes"/>
      <point x="465" y="630" type="line"/>
      <point x="44" y="0" type="line"/>
      <point x="599" y="0" type="line"/>
      <point x="636" y="171" type="line"/>
      <point x="610" y="171" type="line"/>
      <point x="600" y="129"/>
      <point x="583" y="100"/>
      <point x="555" y="75" type="curve" smooth="yes"/>
      <point x="527" y="50"/>
      <point x="491" y="41"/>
      <point x="425" y="41" type="curve" smooth="yes"/>
      <point x="195" y="41" type="line"/>
    </contour>
  </outline>
</glyph>
<glyph name="Eta" format="1">
  <advance width="722"/>
  <unicode hex="0397"/>
  <outline>
    <contour>
      <point x="232" y="364" type="line"/>
      <point x="232" y="531" type="line" smooth="yes"/>
      <point x="232" y="583"/>
      <point x="235" y="599"/>
      <point x="246" y="616" type="curve"/>
      <point x="260" y="635"/>
      <point x="287" y="647"/>
      <point x="320" y="647" type="curve" smooth="yes"/>
      <point x="323" y="647" type="line"/>
      <point x="323" y="673" type="line"/>
      <point x="39" y="673" type="line"/>
      <point x="39" y="647" type="line"/>
      <point x="42" y="647" type="line" smooth="yes"/>
      <point x="75" y="647"/>
      <point x="102" y="635"/>
      <point x="116" y="616" type="curve"/>
      <point x="127" y="599"/>
      <point x="130" y="583"/>
      <point x="130" y="531" type="curve" smooth="yes"/>
      <point x="130" y="142" type="line" smooth="yes"/>
      <point x="130" y="90"/>
      <point x="127" y="74"/>
      <point x="116" y="57" type="curve"/>
      <point x="102" y="38"/>
      <point x="75" y="26"/>
      <point x="42" y="26" type="curve" smooth="yes"/>
      <point x="39" y="26" type="line"/>
      <point x="39" y="0" type="line"/>
      <point x="323" y="0" type="line"/>
      <point x="323" y="26" type="line"/>
      <point x="320" y="26" type="line" smooth="yes"/>
      <point x="287" y="26"/>
      <point x="260" y="38"/>
      <point x="246" y="57" type="curve"/>
      <point x="235" y="74"/>
      <point x="232" y="90"/>
      <point x="232" y="142" type="curve" smooth="yes"/>
      <point x="232" y="322" type="line"/>
      <point x="536" y="322" type="line"/>
      <point x="536" y="142" type="line" smooth="yes"/>
      <point x="536" y="90"/>
      <point x="533" y="74"/>
      <point x="522" y="57" type="curve"/>
      <point x="508" y="38"/>
      <point x="481" y="26"/>
      <point x="448" y="26" type="curve" smooth="yes"/>
      <point x="445" y="26" type="line"/>
      <point x="445" y="0" type="line"/>
      <point x="729" y="0" type="line"/>
      <point x="729" y="26" type="line"/>
      <point x="726" y="26" type="line" smooth="yes"/>
      <point x="693" y="26"/>
      <point x="666" y="38"/>
      <point x="652" y="57" type="curve"/>
      <point x="641" y="74"/>
      <point x="638" y="90"/>
      <point x="638" y="142" type="curve" smooth="yes"/>
      <point x="638" y="531" type="line" smooth="yes"/>
      <point x="638" y="583"/>
      <point x="641" y="599"/>
      <point x="652" y="616" type="curve"/>
      <point x="666" y="635"/>
      <point x="693" y="647"/>
      <point x="726" y="647" type="curve" smooth="yes"/>
      <point x="729" y="647" type="line"/>
      <point x="729" y="673" type="line"/>
      <point x="445" y="673" type="line"/>
      <point x="445" y="647" type="line"/>
      <point x="448" y="647" type="line" smooth="yes"/>
      <point x="481" y="647"/>
      <point x="508" y="635"/>
      <point x="522" y="616" type="curve"/>
      <point x="533" y="599"/>
      <point x="536" y="583"/>
      <point x="536" y="531" type="curve" smooth="yes"/>
      <point x="536" y="364" type="line"/>
    </contour>
  </outline>
</glyph>
<glyph name="Theta" format="1">
  <advance width="741"/>
  <unicode hex="0398"/>
  <outline>
    <contour>
      <point x="505" y="457" type="line"/>
      <point x="481" y="457" type="line"/>
      <point x="476" y="396"/>
      <point x="459" y="382"/>
      <point x="394" y="382" type="curve" smooth="yes"/>
      <point x="360" y="382" type="line" smooth="yes"/>
      <point x="298" y="382"/>
      <point x="280" y="398"/>
      <point x="276" y="457" type="curve"/>
      <point x="252" y="457" type="line"/>
      <point x="252" y="227" type="line"/>
      <point x="276" y="227" type="line"/>
      <point x="281" y="289"/>
      <point x="297" y="303"/>
      <point x="363" y="303" type="curve" smooth="yes"/>
      <point x="396" y="303" type="line" smooth="yes"/>
      <point x="461" y="303"/>
      <point x="477" y="289"/>
      <point x="481" y="227" type="curve"/>
      <point x="505" y="227" type="line"/>
    </contour>
    <contour>
      <point x="382" y="686" type="curve" smooth="yes"/>
      <point x="182" y="686"/>
      <point x="41" y="541"/>
      <point x="41" y="336" type="curve" smooth="yes"/>
      <point x="41" y="134"/>
      <point x="183" y="-13"/>
      <point x="378" y="-13" type="curve" smooth="yes"/>
      <point x="573" y="-13"/>
      <point x="715" y="134"/>
      <point x="715" y="336" type="curve" smooth="yes"/>
      <point x="715" y="537"/>
      <point x="573" y="686"/>
    </contour>
    <contour>
      <point x="372" y="647" type="curve" smooth="yes"/>
      <point x="417" y="647"/>
      <point x="463" y="630"/>
      <point x="498" y="600" type="curve" smooth="yes"/>
      <point x="562" y="547"/>
      <point x="597" y="450"/>
      <point x="597" y="328" type="curve" smooth="yes"/>
      <point x="597" y="215"/>
      <point x="566" y="122"/>
      <point x="511" y="72" type="curve" smooth="yes"/>
      <point x="480" y="43"/>
      <point x="432" y="26"/>
      <point x="383" y="26" type="curve" smooth="yes"/>
      <point x="248" y="26"/>
      <point x="159" y="151"/>
      <point x="159" y="340" type="curve" smooth="yes"/>
      <point x="159" y="533"/>
      <point x="238" y="647"/>
    </contour>
  </outline>
</glyph>
<glyph name="Iota" format="1">
  <advance width="333"/>
  <unicode hex="0399"/>
  <outline>
    <contour>
      <point x="32" y="647" type="line"/>
      <point x="35" y="647" type="line" smooth="yes"/>
      <point x="68" y="647"/>
      <point x="95" y="635"/>
      <point x="109" y="616" type="curve"/>
      <point x="120" y="599"/>
      <point x="123" y="583"/>
      <point x="123" y="531" type="curve" smooth="yes"/>
      <point x="123" y="142" type="line" smooth="yes"/>
      <point x="123" y="90"/>
      <point x="120" y="74"/>
      <point x="109" y="57" type="curve"/>
      <point x="95" y="38"/>
      <point x="68" y="26"/>
      <point x="35" y="26" type="curve" smooth="yes"/>
      <point x="32" y="26" type="line"/>
      <point x="32" y="0" type="line"/>
      <point x="316" y="0" type="line"/>
      <point x="316" y="26" type="line"/>
      <point x="313" y="26" type="line" smooth="yes"/>
      <point x="280" y="26"/>
      <point x="253" y="38"/>
      <point x="239" y="57" type="curve"/>
      <point x="228" y="74"/>
      <point x="225" y="90"/>
      <point x="225" y="142" type="curve" smooth="yes"/>
      <point x="225" y="531" type="line" smooth="yes"/>
      <point x="225" y="583"/>
      <point x="228" y="599"/>
      <point x="239" y="616" type="curve"/>
      <point x="253" y="635"/>
      <point x="280" y="647"/>
      <point x="313" y="647" type="curve" smooth="yes"/>
      <point x="316" y="647" type="line"/>
      <point x="316" y="673" type="line"/>
      <point x="32" y="673" type="line"/>
    </contour>
  </outline>
</glyph>
<glyph name="Kappa" format="1">
  <advance width="722"/>
  <unicode hex="039A"/>
  <outline>
    <contour>
      <point x="228" y="531" type="line" smooth="yes"/>
      <point x="228" y="583"/>
      <point x="231" y="598"/>
      <point x="242" y="616" type="curve"/>
      <point x="256" y="635"/>
      <point x="283" y="647"/>
      <point x="316" y="647" type="curve" smooth="yes"/>
      <point x="319" y="647" type="line"/>
      <point x="319" y="673" type="line"/>
      <point x="35" y="673" type="line"/>
      <point x="35" y="647" type="line"/>
      <point x="38" y="647" type="line" smooth="yes"/>
      <point x="71" y="647"/>
      <point x="98" y="635"/>
      <point x="112" y="616" type="curve"/>
      <point x="123" y="598"/>
      <point x="126" y="583"/>
      <point x="126" y="531" type="curve" smooth="yes"/>
      <point x="126" y="142" type="line" smooth="yes"/>
      <point x="126" y="90"/>
      <point x="123" y="74"/>
      <point x="112" y="57" type="curve"/>
      <point x="98" y="38"/>
      <point x="71" y="26"/>
      <point x="38" y="26" type="curve" smooth="yes"/>
      <point x="35" y="26" type="line"/>
      <point x="35" y="0" type="line"/>
      <point x="319" y="0" type="line"/>
      <point x="319" y="26" type="line"/>
      <point x="316" y="26" type="line" smooth="yes"/>
      <point x="283" y="26"/>
      <point x="256" y="38"/>
      <point x="242" y="57" type="curve"/>
      <point x="231" y="74"/>
      <point x="228" y="90"/>
      <point x="228" y="142" type="curve" smooth="yes"/>
      <point x="228" y="284" type="line"/>
      <point x="268" y="317" type="line"/>
      <point x="319" y="267"/>
      <point x="332" y="252"/>
      <point x="422" y="146" type="curve" smooth="yes"/>
      <point x="470" y="89"/>
      <point x="485" y="66"/>
      <point x="485" y="50" type="curve" smooth="yes"/>
      <point x="485" y="33"/>
      <point x="471" y="26"/>
      <point x="440" y="26" type="curve" smooth="yes"/>
      <point x="407" y="26" type="line"/>
      <point x="407" y="0" type="line"/>
      <point x="722" y="0" type="line"/>
      <point x="722" y="26" type="line"/>
      <point x="662" y="31"/>
      <point x="629" y="53"/>
      <point x="565" y="131" type="curve" smooth="yes"/>
      <point x="343" y="387" type="line"/>
      <point x="386" y="429" type="line" smooth="yes"/>
      <point x="504" y="556"/>
      <point x="545" y="598"/>
      <point x="569" y="617" type="curve" smooth="yes"/>
      <point x="594" y="637"/>
      <point x="628" y="647"/>
      <point x="669" y="647" type="curve" smooth="yes"/>
      <point x="678" y="647" type="line"/>
      <point x="678" y="673" type="line"/>
      <point x="407" y="673" type="line"/>
      <point x="407" y="647" type="line"/>
      <point x="451" y="646"/>
      <point x="457" y="646"/>
      <point x="467" y="642" type="curve"/>
      <point x="479" y="638"/>
      <point x="487" y="629"/>
      <point x="487" y="620" type="curve" smooth="yes"/>
      <point x="487" y="596"/>
      <point x="351" y="447"/>
      <point x="228" y="336" type="curve"/>
    </contour>
  </outline>
</glyph>
<glyph name="Lambda" format="1">
  <advance width="686"/>
  <unicode hex="039B"/>
  <outline>
    <contour>
      <point x="314" y="501" type="line"/>
      <point x="466" y="142" type="line" smooth="yes"/>
      <point x="489" y="89"/>
      <point x="490" y="84"/>
      <point x="490" y="67" type="curve" smooth="yes"/>
      <point x="490" y="42"/>
      <point x="476" y="30"/>
      <point x="442" y="26" type="curve"/>
      <point x="442" y="0" type="line"/>
      <point x="680" y="0" type="line"/>
      <point x="680" y="26" type="line"/>
      <point x="625" y="39"/>
      <point x="623" y="41"/>
      <point x="578" y="142" type="curve" smooth="yes"/>
      <point x="343" y="688" type="line"/>
      <point x="114" y="142" type="line" smooth="yes"/>
      <point x="73" y="47"/>
      <point x="66" y="39"/>
      <point x="6" y="26" type="curve"/>
      <point x="6" y="0" type="line"/>
      <point x="194" y="0" type="line"/>
      <point x="194" y="26" type="line"/>
      <point x="156" y="28"/>
      <point x="139" y="41"/>
      <point x="139" y="67" type="curve" smooth="yes"/>
      <point x="139" y="83"/>
      <point x="144" y="99"/>
      <point x="162" y="142" type="curve" smooth="yes"/>
    </contour>
  </outline>
</glyph>
<glyph name="Mu" format="1">
  <advance width="889"/>
  <unicode hex="039C"/>
  <outline>
    <contour>
      <point x="424" y="1" type="line"/>
      <point x="694" y="541" type="line"/>
      <point x="694" y="142" type="line" smooth="yes"/>
      <point x="694" y="90"/>
      <point x="691" y="74"/>
      <point x="680" y="57" type="curve"/>
      <point x="666" y="38"/>
      <point x="639" y="26"/>
      <point x="606" y="26" type="curve" smooth="yes"/>
      <point x="603" y="26" type="line"/>
      <point x="603" y="0" type="line"/>
      <point x="887" y="0" type="line"/>
      <point x="887" y="26" type="line"/>
      <point x="884" y="26" type="line" smooth="yes"/>
      <point x="851" y="26"/>
      <point x="824" y="38"/>
      <point x="810" y="57" type="curve"/>
      <point x="799" y="74"/>
      <point x="796" y="90"/>
      <point x="796" y="142" type="curve" smooth="yes"/>
      <point x="796" y="531" type="line" smooth="yes"/>
      <point x="796" y="583"/>
      <point x="799" y="599"/>
      <point x="810" y="616" type="curve"/>
      <point x="824" y="635"/>
      <point x="852" y="647"/>
      <point x="884" y="647" type="curve" smooth="yes"/>
      <point x="887" y="647" type="line"/>
      <point x="887" y="673" type="line"/>
      <point x="713" y="673" type="line"/>
      <point x="460" y="170" type="line"/>
      <point x="215" y="673" type="line"/>
      <point x="28" y="673" type="line"/>
      <point x="28" y="647" type="line"/>
      <point x="31" y="647" type="line" smooth="yes"/>
      <point x="65" y="647"/>
      <point x="91" y="635"/>
      <point x="105" y="616" type="curve"/>
      <point x="116" y="598"/>
      <point x="119" y="583"/>
      <point x="119" y="531" type="curve" smooth="yes"/>
      <point x="119" y="142" type="line" smooth="yes"/>
      <point x="119" y="90"/>
      <point x="116" y="74"/>
      <point x="105" y="57" type="curve"/>
      <point x="91" y="38"/>
      <point x="64" y="26"/>
      <point x="31" y="26" type="curve" smooth="yes"/>
      <point x="28" y="26" type="line"/>
      <point x="28" y="0" type="line"/>
      <point x="254" y="0" type="line"/>
      <point x="254" y="26" type="line"/>
      <point x="251" y="26" type="line" smooth="yes"/>
      <point x="218" y="26"/>
      <point x="191" y="38"/>
      <point x="177" y="57" type="curve"/>
      <point x="166" y="74"/>
      <point x="163" y="90"/>
      <point x="163" y="142" type="curve" smooth="yes"/>
      <point x="163" y="541" type="line"/>
    </contour>
  </outline>
</glyph>
<glyph name="Nu" format="1">
  <advance width="722"/>
  <unicode hex="039D"/>
  <outline>
    <contour>
      <point x="30" y="647" type="line"/>
      <point x="34" y="647" type="line" smooth="yes"/>
      <point x="67" y="647"/>
      <point x="94" y="635"/>
      <point x="108" y="616" type="curve"/>
      <point x="119" y="599"/>
      <point x="122" y="584"/>
      <point x="122" y="532" type="curve" smooth="yes"/>
      <point x="122" y="142" type="line" smooth="yes"/>
      <point x="122" y="86"/>
      <point x="120" y="76"/>
      <point x="108" y="57" type="curve" smooth="yes"/>
      <point x="94" y="37"/>
      <point x="68" y="26"/>
      <point x="34" y="26" type="curve" smooth="yes"/>
      <point x="29" y="26" type="line"/>
      <point x="29" y="0" type="line"/>
      <point x="258" y="0" type="line"/>
      <point x="258" y="26" type="line"/>
      <point x="253" y="26" type="line" smooth="yes"/>
      <point x="220" y="26"/>
      <point x="193" y="38"/>
      <point x="179" y="57" type="curve"/>
      <point x="168" y="74"/>
      <point x="165" y="90"/>
      <point x="165" y="142" type="curve" smooth="yes"/>
      <point x="165" y="532" type="line"/>
      <point x="584" y="0" type="line"/>
      <point x="629" y="0" type="line"/>
      <point x="629" y="531" type="line" smooth="yes"/>
      <point x="629" y="584"/>
      <point x="631" y="599"/>
      <point x="643" y="616" type="curve" smooth="yes"/>
      <point x="657" y="635"/>
      <point x="684" y="647"/>
      <point x="715" y="647" type="curve" smooth="yes"/>
      <point x="720" y="647" type="line"/>
      <point x="720" y="673" type="line"/>
      <point x="496" y="673" type="line"/>
      <point x="496" y="647" type="line"/>
      <point x="499" y="647" type="line" smooth="yes"/>
      <point x="532" y="647"/>
      <point x="559" y="635"/>
      <point x="573" y="616" type="curve" smooth="yes"/>
      <point x="585" y="599"/>
      <point x="587" y="584"/>
      <point x="587" y="531" type="curve" smooth="yes"/>
      <point x="587" y="160" type="line"/>
      <point x="189" y="673" type="line"/>
      <point x="30" y="673" type="line"/>
    </contour>
  </outline>
</glyph>
<glyph name="Xi" format="1">
  <advance width="645"/>
  <unicode hex="039E"/>
  <outline>
    <contour>
      <point x="560" y="673" type="line"/>
      <point x="78" y="673" type="line"/>
      <point x="68" y="505" type="line"/>
      <point x="94" y="505" type="line"/>
      <point x="106" y="577"/>
      <point x="122" y="589"/>
      <point x="207" y="589" type="curve" smooth="yes"/>
      <point x="432" y="589" type="line" smooth="yes"/>
      <point x="515" y="589"/>
      <point x="531" y="576"/>
      <point x="544" y="505" type="curve"/>
      <point x="570" y="505" type="line"/>
    </contour>
    <contour>
      <point x="571" y="180" type="line"/>
      <point x="546" y="98"/>
      <point x="522" y="84"/>
      <point x="398" y="84" type="curve" smooth="yes"/>
      <point x="226" y="84" type="line" smooth="yes"/>
      <point x="114" y="84"/>
      <point x="91" y="98"/>
      <point x="66" y="180" type="curve"/>
      <point x="40" y="180" type="line"/>
      <point x="78" y="0" type="line"/>
      <point x="560" y="0" type="line"/>
      <point x="599" y="180" type="line"/>
    </contour>
    <contour>
      <point x="446" y="457" type="line"/>
      <point x="422" y="457" type="line"/>
      <point x="417" y="396"/>
      <point x="400" y="382"/>
      <point x="335" y="382" type="curve" smooth="yes"/>
      <point x="301" y="382" type="line" smooth="yes"/>
      <point x="239" y="382"/>
      <point x="221" y="398"/>
      <point x="217" y="457" type="curve"/>
      <point x="193" y="457" type="line"/>
      <point x="193" y="227" type="line"/>
      <point x="217" y="227" type="line"/>
      <point x="222" y="289"/>
      <point x="238" y="303"/>
      <point x="304" y="303" type="curve" smooth="yes"/>
      <point x="337" y="303" type="line" smooth="yes"/>
      <point x="402" y="303"/>
      <point x="418" y="289"/>
      <point x="422" y="227" type="curve"/>
      <point x="446" y="227" type="line"/>
    </contour>
  </outline>
</glyph>
<glyph name="Omicron" format="1">
  <advance width="722"/>
  <unicode hex="039F"/>
  <outline>
    <contour>
      <point x="382" y="686" type="curve" smooth="yes"/>
      <point x="182" y="686"/>
      <point x="41" y="541"/>
      <point x="41" y="336" type="curve" smooth="yes"/>
      <point x="41" y="134"/>
      <point x="183" y="-13"/>
      <point x="378" y="-13" type="curve" smooth="yes"/>
      <point x="573" y="-13"/>
      <point x="715" y="134"/>
      <point x="715" y="336" type="curve" smooth="yes"/>
      <point x="715" y="537"/>
      <point x="573" y="686"/>
    </contour>
    <contour>
      <point x="372" y="647" type="curve" smooth="yes"/>
      <point x="417" y="647"/>
      <point x="463" y="630"/>
      <point x="498" y="600" type="curve" smooth="yes"/>
      <point x="562" y="547"/>
      <point x="597" y="450"/>
      <point x="597" y="328" type="curve" smooth="yes"/>
      <point x="597" y="215"/>
      <point x="566" y="122"/>
      <point x="511" y="72" type="curve" smooth="yes"/>
      <point x="480" y="43"/>
      <point x="432" y="26"/>
      <point x="383" y="26" type="curve" smooth="yes"/>
      <point x="248" y="26"/>
      <point x="159" y="151"/>
      <point x="159" y="340" type="curve" smooth="yes"/>
      <point x="159" y="533"/>
      <point x="238" y="647"/>
    </contour>
  </outline>
</glyph>
<glyph name="Pi" format="1">
  <advance width="768"/>
  <unicode hex="03A0"/>
  <outline>
    <contour>
      <point x="25" y="647" type="line"/>
      <point x="28" y="647" type="line" smooth="yes"/>
      <point x="61" y="647"/>
      <point x="88" y="635"/>
      <point x="102" y="615" type="curve" smooth="yes"/>
      <point x="113" y="598"/>
      <point x="116" y="583"/>
      <point x="116" y="531" type="curve" smooth="yes"/>
      <point x="116" y="142" type="line" smooth="yes"/>
      <point x="116" y="90"/>
      <point x="113" y="74"/>
      <point x="102" y="57" type="curve"/>
      <point x="88" y="38"/>
      <point x="61" y="26"/>
      <point x="28" y="26" type="curve" smooth="yes"/>
      <point x="25" y="26" type="line"/>
      <point x="25" y="0" type="line"/>
      <point x="309" y="0" type="line"/>
      <point x="309" y="26" type="line"/>
      <point x="306" y="26" type="line" smooth="yes"/>
      <point x="273" y="26"/>
      <point x="246" y="38"/>
      <point x="232" y="57" type="curve"/>
      <point x="221" y="74"/>
      <point x="218" y="90"/>
      <point x="218" y="142" type="curve" smooth="yes"/>
      <point x="218" y="520" type="line" smooth="yes"/>
      <point x="218" y="632"/>
      <point x="218" y="632"/>
      <point x="409" y="632" type="curve" smooth="yes"/>
      <point x="547" y="632"/>
      <point x="552" y="628"/>
      <point x="552" y="520" type="curve" smooth="yes"/>
      <point x="552" y="142" type="line" smooth="yes"/>
      <point x="552" y="90"/>
      <point x="549" y="74"/>
      <point x="538" y="57" type="curve"/>
      <point x="524" y="38"/>
      <point x="497" y="26"/>
      <point x="464" y="26" type="curve" smooth="yes"/>
      <point x="461" y="26" type="line"/>
      <point x="461" y="0" type="line"/>
      <point x="745" y="0" type="line"/>
      <point x="745" y="26" type="line"/>
      <point x="742" y="26" type="line" smooth="yes"/>
      <point x="709" y="26"/>
      <point x="682" y="38"/>
      <point x="668" y="57" type="curve"/>
      <point x="657" y="74"/>
      <point x="654" y="90"/>
      <point x="654" y="142" type="curve" smooth="yes"/>
      <point x="654" y="531" type="line" smooth="yes"/>
      <point x="654" y="583"/>
      <point x="657" y="598"/>
      <point x="668" y="615" type="curve" smooth="yes"/>
      <point x="682" y="635"/>
      <point x="709" y="647"/>
      <point x="742" y="647" type="curve" smooth="yes"/>
      <point x="745" y="647" type="line"/>
      <point x="745" y="673" type="line"/>
      <point x="25" y="673" type="line"/>
    </contour>
  </outline>
</glyph>
<glyph name="Rho" format="1">
  <advance width="556"/>
  <unicode hex="03A1"/>
  <outline>
    <contour>
      <point x="28" y="647" type="line"/>
      <point x="31" y="647" type="line" smooth="yes"/>
      <point x="64" y="647"/>
      <point x="91" y="635"/>
      <point x="105" y="616" type="curve"/>
      <point x="116" y="599"/>
      <point x="119" y="583"/>
      <point x="119" y="531" type="curve" smooth="yes"/>
      <point x="119" y="142" type="line" smooth="yes"/>
      <point x="119" y="90"/>
      <point x="116" y="74"/>
      <point x="105" y="57" type="curve"/>
      <point x="91" y="38"/>
      <point x="64" y="26"/>
      <point x="31" y="26" type="curve" smooth="yes"/>
      <point x="28" y="26" type="line"/>
      <point x="28" y="0" type="line"/>
      <point x="337" y="0" type="line"/>
      <point x="337" y="26" type="line"/>
      <point x="322" y="26" type="line" smooth="yes"/>
      <point x="284" y="26"/>
      <point x="250" y="38"/>
      <point x="236" y="57" type="curve" smooth="yes"/>
      <point x="224" y="72"/>
      <point x="221" y="89"/>
      <point x="221" y="142" type="curve" smooth="yes"/>
      <point x="221" y="315" type="line"/>
      <point x="254" y="308"/>
      <point x="298" y="303"/>
      <point x="330" y="303" type="curve" smooth="yes"/>
      <point x="401" y="303"/>
      <point x="462" y="319"/>
      <point x="499" y="349" type="curve" smooth="yes"/>
      <point x="539" y="380"/>
      <point x="563" y="434"/>
      <point x="563" y="491" type="curve" smooth="yes"/>
      <point x="563" y="564"/>
      <point x="524" y="623"/>
      <point x="457" y="652" type="curve" smooth="yes"/>
      <point x="418" y="670"/>
      <point x="387" y="673"/>
      <point x="274" y="673" type="curve" smooth="yes"/>
      <point x="28" y="673" type="line"/>
    </contour>
    <contour>
      <point x="221" y="612" type="line" smooth="yes"/>
      <point x="221" y="631"/>
      <point x="228" y="633"/>
      <point x="303" y="633" type="curve" smooth="yes"/>
      <point x="335" y="633"/>
      <point x="358" y="629"/>
      <point x="377" y="621" type="curve" smooth="yes"/>
      <point x="422" y="601"/>
      <point x="448" y="554"/>
      <point x="448" y="494" type="curve" smooth="yes"/>
      <point x="448" y="444"/>
      <point x="430" y="401"/>
      <point x="399" y="375" type="curve" smooth="yes"/>
      <point x="376" y="356"/>
      <point x="346" y="347"/>
      <point x="302" y="347" type="curve" smooth="yes"/>
      <point x="278" y="347"/>
      <point x="258" y="350"/>
      <point x="221" y="359" type="curve"/>
    </contour>
  </outline>
</glyph>
<glyph name="Sigma" format="1">
  <advance width="592"/>
  <unicode hex="03A3"/>
  <outline>
    <contour>
      <point x="167" y="632" type="line"/>
      <point x="336" y="632" type="line" smooth="yes"/>
      <point x="452" y="632"/>
      <point x="483" y="609"/>
      <point x="500" y="510" type="curve"/>
      <point x="526" y="510" type="line"/>
      <point x="516" y="673" type="line"/>
      <point x="22" y="673" type="line"/>
      <point x="240" y="320" type="line"/>
      <point x="5" y="0" type="line"/>
      <point x="535" y="0" type="line"/>
      <point x="589" y="180" type="line"/>
      <point x="563" y="180" type="line"/>
      <point x="531" y="100"/>
      <point x="501" y="83"/>
      <point x="385" y="83" type="curve" smooth="yes"/>
      <point x="118" y="83" type="line"/>
      <point x="329" y="369" type="line"/>
    </contour>
  </outline>
</glyph>
<glyph name="Tau" format="1">
  <advance width="611"/>
  <unicode hex="03A4"/>
  <outline>
    <contour>
      <point x="269" y="628" type="line"/>
      <point x="269" y="142" type="line" smooth="yes"/>
      <point x="269" y="90"/>
      <point x="266" y="74"/>
      <point x="255" y="57" type="curve"/>
      <point x="241" y="38"/>
      <point x="214" y="26"/>
      <point x="181" y="26" type="curve" smooth="yes"/>
      <point x="161" y="26" type="line"/>
      <point x="161" y="0" type="line"/>
      <point x="479" y="0" type="line"/>
      <point x="479" y="26" type="line"/>
      <point x="459" y="26" type="line" smooth="yes"/>
      <point x="426" y="26"/>
      <point x="399" y="38"/>
      <point x="385" y="57" type="curve"/>
      <point x="374" y="75"/>
      <point x="371" y="89"/>
      <point x="371" y="142" type="curve" smooth="yes"/>
      <point x="371" y="628" type="line"/>
      <point x="445" y="628" type="line" smooth="yes"/>
      <point x="542" y="628"/>
      <point x="573" y="602"/>
      <point x="582" y="515" type="curve"/>
      <point x="607" y="515" type="line"/>
      <point x="596" y="673" type="line"/>
      <point x="44" y="673" type="line"/>
      <point x="33" y="515" type="line"/>
      <point x="59" y="515" type="line"/>
      <point x="66" y="600"/>
      <point x="102" y="628"/>
      <point x="204" y="628" type="curve" smooth="yes"/>
    </contour>
  </outline>
</glyph>
<glyph name="Upsilon" format="1">
  <advance width="690"/>
  <unicode hex="03A5"/>
  <outline>
    <contour>
      <point x="396" y="291" type="line"/>
      <point x="542" y="532" type="line" smooth="yes"/>
      <point x="592" y="617"/>
      <point x="619" y="638"/>
      <point x="694" y="647" type="curve"/>
      <point x="694" y="673" type="line"/>
      <point x="465" y="673" type="line"/>
      <point x="465" y="647" type="line"/>
      <point x="476" y="647" type="line" smooth="yes"/>
      <point x="516" y="647"/>
      <point x="531" y="637"/>
      <point x="531" y="613" type="curve" smooth="yes"/>
      <point x="531" y="596"/>
      <point x="518" y="564"/>
      <point x="497" y="532" type="curve" smooth="yes"/>
      <point x="380" y="347" type="line"/>
      <point x="266" y="532" type="line" smooth="yes"/>
      <point x="238" y="576"/>
      <point x="228" y="599"/>
      <point x="228" y="614" type="curve" smooth="yes"/>
      <point x="228" y="636"/>
      <point x="247" y="647"/>
      <point x="282" y="647" type="curve" smooth="yes"/>
      <point x="301" y="647" type="line"/>
      <point x="301" y="673" type="line"/>
      <point x="-8" y="673" type="line"/>
      <point x="-8" y="647" type="line"/>
      <point x="71" y="638"/>
      <point x="97" y="619"/>
      <point x="148" y="532" type="curve" smooth="yes"/>
      <point x="294" y="291" type="line"/>
      <point x="294" y="142" type="line" smooth="yes"/>
      <point x="294" y="90"/>
      <point x="291" y="74"/>
      <point x="280" y="57" type="curve"/>
      <point x="266" y="38"/>
      <point x="239" y="26"/>
      <point x="206" y="26" type="curve" smooth="yes"/>
      <point x="203" y="26" type="line"/>
      <point x="203" y="0" type="line"/>
      <point x="487" y="0" type="line"/>
      <point x="487" y="26" type="line"/>
      <point x="484" y="26" type="line" smooth="yes"/>
      <point x="451" y="26"/>
      <point x="424" y="38"/>
      <point x="410" y="57" type="curve"/>
      <point x="399" y="74"/>
      <point x="396" y="90"/>
      <point x="396" y="142" type="curve" smooth="yes"/>
    </contour>
  </outline>
</glyph>
<glyph name="Phi" format="1">
  <advance width="763"/>
  <unicode hex="03A6"/>
  <outline>
    <contour>
      <point x="238" y="0" type="line"/>
      <point x="529" y="0" type="line"/>
      <point x="529" y="26" type="line"/>
      <point x="457" y="27"/>
      <point x="431" y="55"/>
      <point x="433" y="129" type="curve"/>
      <point x="490" y="129"/>
      <point x="514" y="132"/>
      <point x="552" y="140" type="curve" smooth="yes"/>
      <point x="668" y="167"/>
      <point x="741" y="242"/>
      <point x="741" y="336" type="curve" smooth="yes"/>
      <point x="741" y="435"/>
      <point x="666" y="512"/>
      <point x="546" y="538" type="curve" smooth="yes"/>
      <point x="511" y="545"/>
      <point x="479" y="548"/>
      <point x="433" y="549" type="curve"/>
      <point x="432" y="618"/>
      <point x="459" y="646"/>
      <point x="529" y="647" type="curve"/>
      <point x="529" y="673" type="line"/>
      <point x="238" y="673" type="line"/>
      <point x="238" y="647" type="line"/>
      <point x="309" y="646"/>
      <point x="336" y="619"/>
      <point x="335" y="549" type="curve"/>
      <point x="288" y="548"/>
      <point x="256" y="545"/>
      <point x="221" y="538" type="curve" smooth="yes"/>
      <point x="101" y="512"/>
      <point x="26" y="435"/>
      <point x="26" y="336" type="curve" smooth="yes"/>
      <point x="26" y="242"/>
      <point x="99" y="167"/>
      <point x="215" y="140" type="curve" smooth="yes"/>
      <point x="253" y="132"/>
      <point x="277" y="129"/>
      <point x="335" y="129" type="curve"/>
      <point x="337" y="55"/>
      <point x="311" y="27"/>
      <point x="238" y="26" type="curve"/>
    </contour>
    <contour>
      <point x="335" y="167" type="line"/>
      <point x="200" y="175"/>
      <point x="134" y="233"/>
      <point x="134" y="343" type="curve" smooth="yes"/>
      <point x="134" y="403"/>
      <point x="157" y="445"/>
      <point x="205" y="476" type="curve" smooth="yes"/>
      <point x="240" y="497"/>
      <point x="273" y="507"/>
      <point x="335" y="512" type="curve"/>
    </contour>
    <contour>
      <point x="433" y="512" type="line"/>
      <point x="567" y="504"/>
      <point x="633" y="446"/>
      <point x="633" y="336" type="curve" smooth="yes"/>
      <point x="633" y="276"/>
      <point x="610" y="234"/>
      <point x="562" y="203" type="curve" smooth="yes"/>
      <point x="527" y="182"/>
      <point x="494" y="173"/>
      <point x="433" y="167" type="curve"/>
    </contour>
  </outline>
</glyph>
<glyph name="Chi" format="1">
  <advance width="722"/>
  <unicode hex="03A7"/>
  <outline>
    <contour>
      <point x="385" y="0" type="line"/>
      <point x="704" y="0" type="line"/>
      <point x="704" y="26" type="line"/>
      <point x="625" y="31"/>
      <point x="594" y="52"/>
      <point x="541" y="141" type="curve" smooth="yes"/>
      <point x="399" y="370" type="line"/>
      <point x="519" y="531" type="line" smooth="yes"/>
      <point x="584" y="620"/>
      <point x="621" y="643"/>
      <point x="704" y="647" type="curve"/>
      <point x="704" y="673" type="line"/>
      <point x="453" y="673" type="line"/>
      <point x="453" y="647" type="line"/>
      <point x="467" y="647" type="line" smooth="yes"/>
      <point x="502" y="647"/>
      <point x="517" y="637"/>
      <point x="517" y="615" type="curve" smooth="yes"/>
      <point x="517" y="601"/>
      <point x="505" y="582"/>
      <point x="467" y="532" type="curve" smooth="yes"/>
      <point x="373" y="408" type="line"/>
      <point x="295" y="531" type="line" smooth="yes"/>
      <point x="265" y="579"/>
      <point x="256" y="597"/>
      <point x="256" y="611" type="curve" smooth="yes"/>
      <point x="256" y="634"/>
      <point x="275" y="647"/>
      <point x="308" y="647" type="curve" smooth="yes"/>
      <point x="329" y="647" type="line"/>
      <point x="329" y="673" type="line"/>
      <point x="4" y="673" type="line"/>
      <point x="4" y="647" type="line"/>
      <point x="86" y="642"/>
      <point x="117" y="621"/>
      <point x="172" y="531" type="curve" smooth="yes"/>
      <point x="308" y="321" type="line"/>
      <point x="168" y="141" type="line" smooth="yes"/>
      <point x="103" y="54"/>
      <point x="70" y="32"/>
      <point x="-9" y="26" type="curve"/>
      <point x="-9" y="0" type="line"/>
      <point x="239" y="0" type="line"/>
      <point x="239" y="26" type="line"/>
      <point x="225" y="26" type="line" smooth="yes"/>
      <point x="191" y="26"/>
      <point x="176" y="36"/>
      <point x="176" y="57" type="curve" smooth="yes"/>
      <point x="176" y="72"/>
      <point x="176" y="72"/>
      <point x="227" y="141" type="curve" smooth="yes"/>
      <point x="328" y="279" type="line"/>
      <point x="419" y="141" type="line" smooth="yes"/>
      <point x="443" y="105"/>
      <point x="458" y="74"/>
      <point x="458" y="60" type="curve" smooth="yes"/>
      <point x="458" y="38"/>
      <point x="438" y="26"/>
      <point x="401" y="26" type="curve" smooth="yes"/>
      <point x="385" y="26" type="line"/>
    </contour>
  </outline>
</glyph>
<glyph name="Psi" format="1">
  <advance width="795"/>
  <unicode hex="03A8"/>
  <outline>
    <contour>
      <point x="446" y="271" type="line"/>
      <point x="527" y="270"/>
      <point x="582" y="279"/>
      <point x="624" y="300" type="curve" smooth="yes"/>
      <point x="692" y="332"/>
      <point x="730" y="394"/>
      <point x="730" y="473" type="curve" smooth="yes"/>
      <point x="728" y="557" type="line" smooth="yes"/>
      <point x="728" y="631"/>
      <point x="740" y="654"/>
      <point x="781" y="663" type="curve"/>
      <point x="781" y="686" type="line"/>
      <point x="664" y="677"/>
      <point x="624" y="629"/>
      <point x="617" y="490" type="curve" smooth="yes"/>
      <point x="612" y="382"/>
      <point x="604" y="361"/>
      <point x="562" y="331" type="curve" smooth="yes"/>
      <point x="539" y="316"/>
      <point x="505" y="310"/>
      <point x="446" y="311" type="curve"/>
      <point x="446" y="531" type="line" smooth="yes"/>
      <point x="446" y="621"/>
      <point x="464" y="644"/>
      <point x="540" y="647" type="curve"/>
      <point x="540" y="673" type="line"/>
      <point x="256" y="673" type="line"/>
      <point x="256" y="647" type="line"/>
      <point x="331" y="644"/>
      <point x="349" y="621"/>
      <point x="349" y="531" type="curve" smooth="yes"/>
      <point x="349" y="311" type="line"/>
      <point x="300" y="310"/>
      <point x="266" y="315"/>
      <point x="245" y="325" type="curve"/>
      <point x="194" y="354"/>
      <point x="184" y="377"/>
      <point x="179" y="490" type="curve" smooth="yes"/>
      <point x="172" y="629"/>
      <point x="132" y="677"/>
      <point x="15" y="686" type="curve"/>
      <point x="15" y="663" type="line"/>
      <point x="56" y="654"/>
      <point x="68" y="631"/>
      <point x="68" y="557" type="curve"/>
      <point x="66" y="473" type="line"/>
      <point x="66" y="403"/>
      <point x="96" y="346"/>
      <point x="151" y="311" type="curve" smooth="yes"/>
      <point x="196" y="283"/>
      <point x="256" y="270"/>
      <point x="349" y="271" type="curve"/>
      <point x="349" y="157" type="line" smooth="yes"/>
      <point x="349" y="98"/>
      <point x="343" y="69"/>
      <point x="328" y="52" type="curve" smooth="yes"/>
      <point x="317" y="39"/>
      <point x="285" y="28"/>
      <point x="260" y="28" type="curve" smooth="yes"/>
      <point x="241" y="28" type="line"/>
      <point x="241" y="0" type="line"/>
      <point x="554" y="0" type="line"/>
      <point x="554" y="28" type="line"/>
      <point x="535" y="28" type="line" smooth="yes"/>
      <point x="510" y="28"/>
      <point x="478" y="39"/>
      <point x="467" y="52" type="curve" smooth="yes"/>
      <point x="452" y="69"/>
      <point x="446" y="98"/>
      <point x="446" y="157" type="curve" smooth="yes"/>
    </contour>
  </outline>
</glyph>
<glyph name="Omega" format="1">
  <advance width="768"/>
  <unicode hex="03A9"/>
  <outline>
    <contour>
      <point x="326" y="0" type="line"/>
      <point x="308" y="155" type="line"/>
      <point x="230" y="199"/>
      <point x="180" y="288"/>
      <point x="180" y="382" type="curve" smooth="yes"/>
      <point x="180" y="434"/>
      <point x="195" y="493"/>
      <point x="221" y="540" type="curve" smooth="yes"/>
      <point x="257" y="605"/>
      <point x="317" y="642"/>
      <point x="385" y="642" type="curve" smooth="yes"/>
      <point x="453" y="642"/>
      <point x="513" y="605"/>
      <point x="549" y="540" type="curve" smooth="yes"/>
      <point x="575" y="493"/>
      <point x="590" y="434"/>
      <point x="590" y="382" type="curve" smooth="yes"/>
      <point x="590" y="288"/>
      <point x="540" y="199"/>
      <point x="462" y="155" type="curve"/>
      <point x="444" y="0" type="line"/>
      <point x="736" y="0" type="line"/>
      <point x="736" y="153" type="line"/>
      <point x="712" y="153" type="line"/>
      <point x="705" y="109"/>
      <point x="683" y="90"/>
      <point x="643" y="90" type="curve" smooth="yes"/>
      <point x="497" y="90" type="line"/>
      <point x="500" y="128" type="line"/>
      <point x="535" y="141"/>
      <point x="556" y="151"/>
      <point x="580" y="166" type="curve" smooth="yes"/>
      <point x="656" y="215"/>
      <point x="702" y="296"/>
      <point x="702" y="382" type="curve" smooth="yes"/>
      <point x="702" y="448"/>
      <point x="673" y="522"/>
      <point x="625" y="578" type="curve" smooth="yes"/>
      <point x="564" y="648"/>
      <point x="480" y="686"/>
      <point x="385" y="686" type="curve" smooth="yes"/>
      <point x="290" y="686"/>
      <point x="206" y="648"/>
      <point x="145" y="578" type="curve" smooth="yes"/>
      <point x="97" y="522"/>
      <point x="68" y="448"/>
      <point x="68" y="382" type="curve" smooth="yes"/>
      <point x="68" y="296"/>
      <point x="114" y="215"/>
      <point x="190" y="166" type="curve" smooth="yes"/>
      <point x="213" y="151"/>
      <point x="234" y="141"/>
      <point x="270" y="128" type="curve"/>
      <point x="273" y="90" type="line"/>
      <point x="127" y="90" type="line" smooth="yes"/>
      <point x="87" y="90"/>
      <point x="65" y="109"/>
      <point x="58" y="153" type="curve"/>
      <point x="34" y="153" type="line"/>
      <point x="34" y="0" type="line"/>
    </contour>
  </outline>
</glyph>
<glyph name="alpha" format="1">
  <advance width="631"/>
  <unicode hex="03B1"/>
  <outline>
    <contour>
      <point x="496" y="500" type="line"/>
      <point x="435" y="328" type="line"/>
      <point x="409" y="449"/>
      <point x="348" y="513"/>
      <point x="257" y="513" type="curve" smooth="yes"/>
      <point x="211" y="513"/>
      <point x="162" y="494"/>
      <point x="125" y="462" type="curve" smooth="yes"/>
      <point x="69" y="415"/>
      <point x="41" y="343"/>
      <point x="41" y="244" type="curve" smooth="yes"/>
      <point x="41" y="85"/>
      <point x="120" y="-13"/>
      <point x="250" y="-13" type="curve" smooth="yes"/>
      <point x="338" y="-13"/>
      <point x="403" y="32"/>
      <point x="444" y="121" type="curve"/>
      <point x="449" y="102"/>
      <point x="456" y="84"/>
      <point x="467" y="59" type="curve" smooth="yes"/>
      <point x="493" y="3"/>
      <point x="510" y="-13"/>
      <point x="542" y="-13" type="curve" smooth="yes"/>
      <point x="575" y="-13"/>
      <point x="598" y="8"/>
      <point x="611" y="50" type="curve" smooth="yes"/>
      <point x="618" y="73"/>
      <point x="621" y="95"/>
      <point x="622" y="151" type="curve"/>
      <point x="596" y="151" type="line"/>
      <point x="594" y="100"/>
      <point x="575" y="63"/>
      <point x="550" y="63" type="curve" smooth="yes"/>
      <point x="517" y="63"/>
      <point x="484" y="116"/>
      <point x="472" y="185" type="curve"/>
      <point x="585" y="500" type="line"/>
    </contour>
    <contour>
      <point x="406" y="241" type="line"/>
      <point x="383" y="176" type="line" smooth="yes"/>
      <point x="348" y="74"/>
      <point x="308" y="25"/>
      <point x="258" y="25" type="curve" smooth="yes"/>
      <point x="227" y="25"/>
      <point x="196" y="45"/>
      <point x="180" y="74" type="curve" smooth="yes"/>
      <point x="158" y="115"/>
      <point x="146" y="178"/>
      <point x="146" y="250" type="curve" smooth="yes"/>
      <point x="146" y="322"/>
      <point x="160" y="383"/>
      <point x="186" y="427" type="curve" smooth="yes"/>
      <point x="204" y="456"/>
      <point x="227" y="470"/>
      <point x="258" y="470" type="curve" smooth="yes"/>
      <point x="329" y="470"/>
      <point x="375" y="413"/>
      <point x="395" y="299" type="curve" smooth="yes"/>
    </contour>
  </outline>
</glyph>
<glyph name="beta" format="1">
  <advance width="549"/>
  <unicode hex="03B2"/>
  <outline>
    <contour>
      <point x="79" y="-62" type="line" smooth="yes"/>
      <point x="79" y="-115"/>
      <point x="71" y="-184"/>
      <point x="61" y="-222" type="curve"/>
      <point x="143" y="-222" type="line"/>
      <point x="156" y="-199"/>
      <point x="159" y="-172"/>
      <point x="159" y="-94" type="curve" smooth="yes"/>
      <point x="159" y="42" type="line"/>
      <point x="212" y="2"/>
      <point x="256" y="-13"/>
      <point x="314" y="-13" type="curve" smooth="yes"/>
      <point x="433" y="-13"/>
      <point x="515" y="75"/>
      <point x="515" y="204" type="curve" smooth="yes"/>
      <point x="515" y="311"/>
      <point x="462" y="386"/>
      <point x="352" y="433" type="curve"/>
      <point x="428" y="474"/>
      <point x="464" y="520"/>
      <point x="464" y="577" type="curve" smooth="yes"/>
      <point x="464" y="666"/>
      <point x="375" y="740"/>
      <point x="268" y="740" type="curve" smooth="yes"/>
      <point x="160" y="740"/>
      <point x="79" y="669"/>
      <point x="79" y="574" type="curve" smooth="yes"/>
    </contour>
    <contour>
      <point x="159" y="584" type="line" smooth="yes"/>
      <point x="159" y="654"/>
      <point x="201" y="703"/>
      <point x="260" y="703" type="curve" smooth="yes"/>
      <point x="323" y="703"/>
      <point x="368" y="645"/>
      <point x="368" y="565" type="curve" smooth="yes"/>
      <point x="368" y="512"/>
      <point x="340" y="455"/>
      <point x="314" y="455" type="curve" smooth="yes"/>
      <point x="311" y="455"/>
      <point x="308" y="455"/>
      <point x="292" y="459" type="curve" smooth="yes"/>
      <point x="277" y="462"/>
      <point x="269" y="463"/>
      <point x="261" y="463" type="curve" smooth="yes"/>
      <point x="237" y="463"/>
      <point x="218" y="447"/>
      <point x="218" y="428" type="curve" smooth="yes"/>
      <point x="218" y="409"/>
      <point x="236" y="397"/>
      <point x="262" y="397" type="curve" smooth="yes"/>
      <point x="268" y="397"/>
      <point x="273" y="398"/>
      <point x="283" y="400" type="curve" smooth="yes"/>
      <point x="295" y="403"/>
      <point x="305" y="404"/>
      <point x="313" y="404" type="curve" smooth="yes"/>
      <point x="326" y="404"/>
      <point x="333" y="402"/>
      <point x="339" y="396" type="curve" smooth="yes"/>
      <point x="384" y="354"/>
      <point x="411" y="278"/>
      <point x="411" y="196" type="curve" smooth="yes"/>
      <point x="411" y="96"/>
      <point x="367" y="37"/>
      <point x="293" y="37" type="curve" smooth="yes"/>
      <point x="243" y="37"/>
      <point x="193" y="60"/>
      <point x="159" y="99" type="curve"/>
    </contour>
  </outline>
</glyph>
<glyph name="gamma" format="1">
  <advance width="411"/>
  <unicode hex="03B3"/>
  <outline>
    <contour>
      <point x="377" y="500" type="line"/>
      <point x="266" y="156" type="line"/>
      <point x="236" y="310" type="line" smooth="yes"/>
      <point x="206" y="463"/>
      <point x="174" y="513"/>
      <point x="107" y="513" type="curve" smooth="yes"/>
      <point x="77" y="513"/>
      <point x="50" y="499"/>
      <point x="34" y="476" type="curve" smooth="yes"/>
      <point x="12" y="445"/>
      <point x="7" y="420"/>
      <point x="5" y="336" type="curve"/>
      <point x="5" y="323" type="line"/>
      <point x="27" y="323" type="line"/>
      <point x="29" y="350"/>
      <point x="31" y="365"/>
      <point x="35" y="379" type="curve"/>
      <point x="46" y="411"/>
      <point x="70" y="431"/>
      <point x="99" y="431" type="curve" smooth="yes"/>
      <point x="126" y="431"/>
      <point x="145" y="414"/>
      <point x="164" y="373" type="curve" smooth="yes"/>
      <point x="188" y="321"/>
      <point x="214" y="230"/>
      <point x="224" y="156" type="curve" smooth="yes"/>
      <point x="236" y="73" type="line"/>
      <point x="233" y="63"/>
      <point x="222" y="31"/>
      <point x="203" y="-23" type="curve" smooth="yes"/>
      <point x="183" y="-78"/>
      <point x="177" y="-107"/>
      <point x="177" y="-141" type="curve" smooth="yes"/>
      <point x="177" y="-188"/>
      <point x="198" y="-219"/>
      <point x="230" y="-219" type="curve" smooth="yes"/>
      <point x="271" y="-219"/>
      <point x="298" y="-168"/>
      <point x="298" y="-88" type="curve" smooth="yes"/>
      <point x="298" y="-57"/>
      <point x="293" y="-9"/>
      <point x="281" y="66" type="curve"/>
      <point x="484" y="500" type="line"/>
    </contour>
  </outline>
</glyph>
<glyph name="delta" format="1">
  <advance width="494"/>
  <unicode hex="03B4"/>
  <outline>
    <contour>
      <point x="256" y="444" type="line"/>
      <point x="204" y="428"/>
      <point x="174" y="415"/>
      <point x="144" y="395" type="curve" smooth="yes"/>
      <point x="78" y="350"/>
      <point x="40" y="280"/>
      <point x="40" y="205" type="curve" smooth="yes"/>
      <point x="40" y="86"/>
      <point x="135" y="-13"/>
      <point x="250" y="-13" type="curve" smooth="yes"/>
      <point x="375" y="-13"/>
      <point x="481" y="100"/>
      <point x="481" y="232" type="curve" smooth="yes"/>
      <point x="481" y="296"/>
      <point x="459" y="358"/>
      <point x="418" y="407" type="curve" smooth="yes"/>
      <point x="383" y="449"/>
      <point x="367" y="461"/>
      <point x="277" y="515" type="curve" smooth="yes"/>
      <point x="184" y="572"/>
      <point x="148" y="607"/>
      <point x="148" y="639" type="curve" smooth="yes"/>
      <point x="148" y="672"/>
      <point x="180" y="698"/>
      <point x="219" y="698" type="curve" smooth="yes"/>
      <point x="255" y="698"/>
      <point x="277" y="687"/>
      <point x="314" y="649" type="curve" smooth="yes"/>
      <point x="355" y="607"/>
      <point x="369" y="598"/>
      <point x="394" y="598" type="curve" smooth="yes"/>
      <point x="421" y="598"/>
      <point x="441" y="617"/>
      <point x="441" y="641" type="curve" smooth="yes"/>
      <point x="441" y="695"/>
      <point x="354" y="740"/>
      <point x="249" y="740" type="curve" smooth="yes"/>
      <point x="155" y="740"/>
      <point x="98" y="702"/>
      <point x="98" y="641" type="curve" smooth="yes"/>
      <point x="98" y="605"/>
      <point x="114" y="576"/>
      <point x="158" y="535" type="curve" smooth="yes"/>
    </contour>
    <contour>
      <point x="284" y="418" type="curve"/>
      <point x="351" y="355"/>
      <point x="383" y="285"/>
      <point x="383" y="199" type="curve" smooth="yes"/>
      <point x="383" y="101"/>
      <point x="336" y="34"/>
      <point x="266" y="34" type="curve" smooth="yes"/>
      <point x="196" y="34"/>
      <point x="148" y="112"/>
      <point x="148" y="227" type="curve" smooth="yes"/>
      <point x="148" y="335"/>
      <point x="193" y="399"/>
    </contour>
  </outline>
</glyph>
<glyph name="epsilon" format="1">
  <advance width="439"/>
  <unicode hex="03B5"/>
  <outline>
    <contour>
      <point x="403" y="125" type="line"/>
      <point x="382" y="62"/>
      <point x="345" y="37"/>
      <point x="273" y="37" type="curve" smooth="yes"/>
      <point x="225" y="37"/>
      <point x="185" y="49"/>
      <point x="157" y="73" type="curve" smooth="yes"/>
      <point x="137" y="91"/>
      <point x="129" y="111"/>
      <point x="129" y="143" type="curve" smooth="yes"/>
      <point x="129" y="202"/>
      <point x="163" y="240"/>
      <point x="216" y="240" type="curve" smooth="yes"/>
      <point x="226" y="240"/>
      <point x="235" y="239"/>
      <point x="245" y="237" type="curve" smooth="yes"/>
      <point x="258" y="234"/>
      <point x="270" y="232"/>
      <point x="280" y="232" type="curve" smooth="yes"/>
      <point x="310" y="232"/>
      <point x="332" y="246"/>
      <point x="332" y="264" type="curve" smooth="yes"/>
      <point x="332" y="280"/>
      <point x="320" y="288"/>
      <point x="297" y="288" type="curve" smooth="yes"/>
      <point x="289" y="288"/>
      <point x="281" y="288"/>
      <point x="263" y="286" type="curve" smooth="yes"/>
      <point x="230" y="283"/>
      <point x="222" y="282"/>
      <point x="213" y="282" type="curve" smooth="yes"/>
      <point x="162" y="282"/>
      <point x="129" y="317"/>
      <point x="129" y="371" type="curve" smooth="yes"/>
      <point x="129" y="430"/>
      <point x="171" y="478"/>
      <point x="223" y="478" type="curve" smooth="yes"/>
      <point x="259" y="478"/>
      <point x="282" y="462"/>
      <point x="293" y="430" type="curve" smooth="yes"/>
      <point x="298" y="415"/>
      <point x="301" y="407"/>
      <point x="302" y="405" type="curve" smooth="yes"/>
      <point x="313" y="383"/>
      <point x="330" y="371"/>
      <point x="350" y="371" type="curve" smooth="yes"/>
      <point x="376" y="371"/>
      <point x="398" y="393"/>
      <point x="398" y="421" type="curve" smooth="yes"/>
      <point x="398" y="474"/>
      <point x="330" y="513"/>
      <point x="237" y="513" type="curve" smooth="yes"/>
      <point x="174" y="513"/>
      <point x="128" y="499"/>
      <point x="89" y="468" type="curve" smooth="yes"/>
      <point x="53" y="440"/>
      <point x="36" y="409"/>
      <point x="36" y="372" type="curve" smooth="yes"/>
      <point x="36" y="339"/>
      <point x="51" y="309"/>
      <point x="76" y="290" type="curve"/>
      <point x="90" y="281"/>
      <point x="99" y="276"/>
      <point x="130" y="261" type="curve"/>
      <point x="90" y="247"/>
      <point x="71" y="236"/>
      <point x="53" y="216" type="curve" smooth="yes"/>
      <point x="34" y="195"/>
      <point x="22" y="164"/>
      <point x="22" y="135" type="curve" smooth="yes"/>
      <point x="22" y="49"/>
      <point x="110" y="-13"/>
      <point x="234" y="-13" type="curve" smooth="yes"/>
      <point x="345" y="-13"/>
      <point x="407" y="28"/>
      <point x="427" y="116" type="curve"/>
    </contour>
  </outline>
</glyph>
<glyph name="zeta" format="1">
  <advance width="494"/>
  <unicode hex="03B6"/>
  <outline>
    <contour>
      <point x="215" y="756" type="line"/>
      <point x="147" y="751"/>
      <point x="102" y="713"/>
      <point x="102" y="660" type="curve" smooth="yes"/>
      <point x="102" y="621"/>
      <point x="125" y="602"/>
      <point x="191" y="586" type="curve"/>
      <point x="97" y="459"/>
      <point x="60" y="360"/>
      <point x="60" y="230" type="curve" smooth="yes"/>
      <point x="60" y="132"/>
      <point x="82" y="77"/>
      <point x="140" y="32" type="curve" smooth="yes"/>
      <point x="173" y="6"/>
      <point x="208" y="-6"/>
      <point x="249" y="-6" type="curve" smooth="yes"/>
      <point x="255" y="-6"/>
      <point x="262" y="-6"/>
      <point x="272" y="-5" type="curve"/>
      <point x="315" y="-3"/>
      <point x="341" y="-2"/>
      <point x="349" y="-2" type="curve" smooth="yes"/>
      <point x="396" y="-2"/>
      <point x="425" y="-26"/>
      <point x="425" y="-65" type="curve" smooth="yes"/>
      <point x="425" y="-103"/>
      <point x="393" y="-138"/>
      <point x="359" y="-138" type="curve" smooth="yes"/>
      <point x="354" y="-138"/>
      <point x="348" y="-137"/>
      <point x="342" y="-136" type="curve"/>
      <point x="281" y="-120"/>
      <point x="281" y="-120"/>
      <point x="270" y="-120" type="curve" smooth="yes"/>
      <point x="239" y="-120"/>
      <point x="214" y="-141"/>
      <point x="214" y="-167" type="curve" smooth="yes"/>
      <point x="214" y="-199"/>
      <point x="250" y="-222"/>
      <point x="301" y="-222" type="curve" smooth="yes"/>
      <point x="398" y="-222"/>
      <point x="467" y="-148"/>
      <point x="467" y="-45" type="curve" smooth="yes"/>
      <point x="467" y="48"/>
      <point x="406" y="99"/>
      <point x="294" y="99" type="curve" smooth="yes"/>
      <point x="273" y="99" type="line"/>
      <point x="261" y="99" type="line"/>
      <point x="249" y="98" type="line"/>
      <point x="230" y="98" type="line" smooth="yes"/>
      <point x="158" y="98"/>
      <point x="110" y="160"/>
      <point x="110" y="253" type="curve" smooth="yes"/>
      <point x="110" y="373"/>
      <point x="170" y="511"/>
      <point x="254" y="586" type="curve"/>
      <point x="352" y="597"/>
      <point x="434" y="648"/>
      <point x="434" y="699" type="curve" smooth="yes"/>
      <point x="434" y="717"/>
      <point x="418" y="731"/>
      <point x="396" y="731" type="curve" smooth="yes"/>
      <point x="360" y="731"/>
      <point x="305" y="696"/>
      <point x="215" y="615" type="curve"/>
      <point x="179" y="626"/>
      <point x="162" y="645"/>
      <point x="162" y="674" type="curve" smooth="yes"/>
      <point x="162" y="701"/>
      <point x="180" y="722"/>
      <point x="215" y="736" type="curve"/>
    </contour>
  </outline>
</glyph>
<glyph name="eta" format="1">
  <advance width="603"/>
  <unicode hex="03B7"/>
  <outline>
    <contour>
      <point x="119" y="0" type="line"/>
      <point x="207" y="0" type="line"/>
      <point x="207" y="364" type="line"/>
      <point x="243" y="418"/>
      <point x="278" y="443"/>
      <point x="322" y="443" type="curve" smooth="yes"/>
      <point x="379" y="443"/>
      <point x="414" y="404"/>
      <point x="414" y="340" type="curve" smooth="yes"/>
      <point x="414" y="-99" type="line" smooth="yes"/>
      <point x="414" y="-133"/>
      <point x="420" y="-171"/>
      <point x="434" y="-222" type="curve"/>
      <point x="527" y="-222" type="line"/>
      <point x="511" y="-173"/>
      <point x="505" y="-147"/>
      <point x="505" y="-122" type="curve" smooth="yes"/>
      <point x="505" y="369" type="line" smooth="yes"/>
      <point x="505" y="452"/>
      <point x="445" y="513"/>
      <point x="362" y="513" type="curve" smooth="yes"/>
      <point x="303" y="513"/>
      <point x="261" y="486"/>
      <point x="207" y="411" type="curve"/>
      <point x="202" y="441"/>
      <point x="197" y="454"/>
      <point x="188" y="468" type="curve"/>
      <point x="171" y="491"/>
      <point x="142" y="505"/>
      <point x="112" y="505" type="curve" smooth="yes"/>
      <point x="72" y="505"/>
      <point x="34" y="480"/>
      <point x="15" y="440" type="curve" smooth="yes"/>
      <point x="4" y="416"/>
      <point x="0" y="395"/>
      <point x="0" y="358" type="curve"/>
      <point x="24" y="358" type="line"/>
      <point x="30" y="420"/>
      <point x="44" y="449"/>
      <point x="68" y="449" type="curve" smooth="yes"/>
      <point x="98" y="449"/>
      <point x="120" y="410"/>
      <point x="120" y="356" type="curve"/>
    </contour>
  </outline>
</glyph>
<glyph name="theta" format="1">
  <advance width="521"/>
  <unicode hex="03B8"/>
  <outline>
    <contour>
      <point x="264" y="686" type="curve" smooth="yes"/>
      <point x="225" y="686"/>
      <point x="185" y="670"/>
      <point x="148" y="639" type="curve" smooth="yes"/>
      <point x="80" y="584"/>
      <point x="43" y="476"/>
      <point x="43" y="336" type="curve" smooth="yes"/>
      <point x="43" y="205"/>
      <point x="76" y="102"/>
      <point x="135" y="45" type="curve" smooth="yes"/>
      <point x="174" y="8"/>
      <point x="221" y="-13"/>
      <point x="264" y="-13" type="curve" smooth="yes"/>
      <point x="303" y="-13"/>
      <point x="342" y="3"/>
      <point x="380" y="34" type="curve" smooth="yes"/>
      <point x="447" y="89"/>
      <point x="485" y="196"/>
      <point x="485" y="331" type="curve" smooth="yes"/>
      <point x="485" y="468"/>
      <point x="453" y="570"/>
      <point x="393" y="628" type="curve" smooth="yes"/>
      <point x="354" y="665"/>
      <point x="308" y="686"/>
    </contour>
    <contour>
      <point x="382" y="312" type="line"/>
      <point x="380" y="198"/>
      <point x="368" y="133"/>
      <point x="339" y="80" type="curve" smooth="yes"/>
      <point x="321" y="49"/>
      <point x="289" y="26"/>
      <point x="264" y="26" type="curve" smooth="yes"/>
      <point x="238" y="26"/>
      <point x="206" y="50"/>
      <point x="189" y="80" type="curve" smooth="yes"/>
      <point x="160" y="133"/>
      <point x="148" y="198"/>
      <point x="146" y="312" type="curve"/>
    </contour>
    <contour>
      <point x="146" y="368" type="line"/>
      <point x="148" y="477"/>
      <point x="161" y="543"/>
      <point x="189" y="595" type="curve" smooth="yes"/>
      <point x="206" y="625"/>
      <point x="239" y="649"/>
      <point x="264" y="649" type="curve" smooth="yes"/>
      <point x="289" y="649"/>
      <point x="322" y="625"/>
      <point x="339" y="595" type="curve" smooth="yes"/>
      <point x="367" y="543"/>
      <point x="380" y="477"/>
      <point x="382" y="368" type="curve"/>
    </contour>
  </outline>
</glyph>
<glyph name="iota" format="1">
  <advance width="329"/>
  <unicode hex="03B9"/>
  <outline>
    <contour>
      <point x="175" y="513" type="line"/>
      <point x="134" y="495"/>
      <point x="56" y="471"/>
      <point x="0" y="460" type="curve"/>
      <point x="0" y="435" type="line"/>
      <point x="19" y="437"/>
      <point x="31" y="438"/>
      <point x="39" y="438" type="curve" smooth="yes"/>
      <point x="78" y="438"/>
      <point x="88" y="422"/>
      <point x="88" y="357" type="curve" smooth="yes"/>
      <point x="88" y="116" type="line" smooth="yes"/>
      <point x="88" y="63"/>
      <point x="93" y="41"/>
      <point x="108" y="21" type="curve" smooth="yes"/>
      <point x="124" y="-1"/>
      <point x="151" y="-13"/>
      <point x="179" y="-13" type="curve" smooth="yes"/>
      <point x="217" y="-13"/>
      <point x="253" y="7"/>
      <point x="275" y="38" type="curve" smooth="yes"/>
      <point x="287" y="56"/>
      <point x="293" y="74"/>
      <point x="301" y="107" type="curve"/>
      <point x="273" y="108" type="line"/>
      <point x="263" y="59"/>
      <point x="249" y="39"/>
      <point x="224" y="39" type="curve" smooth="yes"/>
      <point x="191" y="39"/>
      <point x="174" y="70"/>
      <point x="175" y="131" type="curve" smooth="yes"/>
    </contour>
  </outline>
</glyph>
<glyph name="kappa" format="1">
  <advance width="549"/>
  <unicode hex="03BA"/>
  <outline>
    <contour>
      <point x="197" y="290" type="line"/>
      <point x="197" y="513" type="line"/>
      <point x="166" y="495"/>
      <point x="115" y="478"/>
      <point x="33" y="460" type="curve"/>
      <point x="33" y="435" type="line"/>
      <point x="51" y="437"/>
      <point x="62" y="438"/>
      <point x="70" y="438" type="curve" smooth="yes"/>
      <point x="110" y="438"/>
      <point x="119" y="422"/>
      <point x="119" y="357" type="curve" smooth="yes"/>
      <point x="119" y="0" type="line"/>
      <point x="197" y="0" type="line"/>
      <point x="197" y="250" type="line"/>
      <point x="342" y="74" type="line" smooth="yes"/>
      <point x="364" y="46"/>
      <point x="365" y="45"/>
      <point x="365" y="38" type="curve" smooth="yes"/>
      <point x="365" y="26"/>
      <point x="358" y="22"/>
      <point x="326" y="20" type="curve"/>
      <point x="321" y="20" type="line"/>
      <point x="321" y="0" type="line"/>
      <point x="558" y="0" type="line"/>
      <point x="558" y="24" type="line"/>
      <point x="549" y="24" type="line" smooth="yes"/>
      <point x="530" y="24"/>
      <point x="516" y="28"/>
      <point x="499" y="38" type="curve" smooth="yes"/>
      <point x="485" y="46"/>
      <point x="485" y="46"/>
      <point x="431" y="111" type="curve" smooth="yes"/>
      <point x="276" y="306" type="line"/>
      <point x="320" y="347" type="line" smooth="yes"/>
      <point x="389" y="411"/>
      <point x="408" y="425"/>
      <point x="426" y="425" type="curve" smooth="yes"/>
      <point x="435" y="425"/>
      <point x="441" y="422"/>
      <point x="459" y="408" type="curve" smooth="yes"/>
      <point x="475" y="395"/>
      <point x="482" y="392"/>
      <point x="498" y="392" type="curve" smooth="yes"/>
      <point x="531" y="392"/>
      <point x="558" y="416"/>
      <point x="558" y="445" type="curve" smooth="yes"/>
      <point x="558" y="478"/>
      <point x="527" y="501"/>
      <point x="483" y="501" type="curve" smooth="yes"/>
      <point x="459" y="501"/>
      <point x="437" y="494"/>
      <point x="414" y="479" type="curve" smooth="yes"/>
      <point x="379" y="457"/>
      <point x="299" y="388"/>
      <point x="248" y="337" type="curve" smooth="yes"/>
      <point x="229" y="319" type="line"/>
    </contour>
  </outline>
</glyph>
<glyph name="lambda" format="1">
  <advance width="549"/>
  <unicode hex="03BB"/>
  <outline>
    <contour>
      <point x="75" y="570" type="line"/>
      <point x="82" y="627"/>
      <point x="111" y="660"/>
      <point x="156" y="660" type="curve" smooth="yes"/>
      <point x="188" y="660"/>
      <point x="215" y="635"/>
      <point x="230" y="590" type="curve" smooth="yes"/>
      <point x="237" y="570"/>
      <point x="246" y="537"/>
      <point x="255" y="499" type="curve"/>
      <point x="24" y="0" type="line"/>
      <point x="118" y="0" type="line"/>
      <point x="288" y="358" type="line"/>
      <point x="320" y="163"/>
      <point x="336" y="92"/>
      <point x="354" y="53" type="curve" smooth="yes"/>
      <point x="376" y="10"/>
      <point x="408" y="-13"/>
      <point x="445" y="-13" type="curve" smooth="yes"/>
      <point x="484" y="-13"/>
      <point x="515" y="11"/>
      <point x="532" y="55" type="curve" smooth="yes"/>
      <point x="543" y="82"/>
      <point x="547" y="109"/>
      <point x="548" y="156" type="curve"/>
      <point x="527" y="156" type="line"/>
      <point x="519" y="104"/>
      <point x="496" y="75"/>
      <point x="460" y="75" type="curve" smooth="yes"/>
      <point x="430" y="75"/>
      <point x="404" y="94"/>
      <point x="388" y="129" type="curve" smooth="yes"/>
      <point x="375" y="155"/>
      <point x="368" y="181"/>
      <point x="354" y="255" type="curve" smooth="yes"/>
      <point x="327" y="384" type="line"/>
      <point x="326" y="387"/>
      <point x="325" y="394"/>
      <point x="323" y="404" type="curve" smooth="yes"/>
      <point x="300" y="533"/>
      <point x="264" y="655"/>
      <point x="240" y="691" type="curve" smooth="yes"/>
      <point x="218" y="723"/>
      <point x="188" y="740"/>
      <point x="155" y="740" type="curve" smooth="yes"/>
      <point x="94" y="740"/>
      <point x="62" y="688"/>
      <point x="51" y="570" type="curve"/>
    </contour>
  </outline>
</glyph>
<glyph name="mu" format="1">
  <advance width="576"/>
  <unicode hex="03BC"/>
  <outline>
    <contour>
      <point x="442" y="500" type="line"/>
      <point x="353" y="500" type="line"/>
      <point x="354" y="131" type="line"/>
      <point x="318" y="80"/>
      <point x="284" y="58"/>
      <point x="242" y="58" type="curve" smooth="yes"/>
      <point x="184" y="58"/>
      <point x="150" y="99"/>
      <point x="150" y="169" type="curve" smooth="yes"/>
      <point x="150" y="500" type="line"/>
      <point x="62" y="500" type="line"/>
      <point x="62" y="20" type="line" smooth="yes"/>
      <point x="62" y="-1"/>
      <point x="58" y="-26"/>
      <point x="51" y="-56" type="curve" smooth="yes"/>
      <point x="34" y="-118"/>
      <point x="33" y="-124"/>
      <point x="33" y="-147" type="curve" smooth="yes"/>
      <point x="33" y="-189"/>
      <point x="54" y="-219"/>
      <point x="83" y="-219" type="curve" smooth="yes"/>
      <point x="112" y="-219"/>
      <point x="132" y="-189"/>
      <point x="132" y="-145" type="curve" smooth="yes"/>
      <point x="132" y="-124"/>
      <point x="129" y="-111"/>
      <point x="113" y="-53" type="curve" smooth="yes"/>
      <point x="103" y="-17"/>
      <point x="101" y="-7"/>
      <point x="101" y="21" type="curve" smooth="yes"/>
      <point x="101" y="33" type="line"/>
      <point x="143" y="-2"/>
      <point x="166" y="-13"/>
      <point x="200" y="-13" type="curve" smooth="yes"/>
      <point x="250" y="-13"/>
      <point x="301" y="18"/>
      <point x="354" y="80" type="curve"/>
      <point x="362" y="48"/>
      <point x="367" y="36"/>
      <point x="377" y="21" type="curve" smooth="yes"/>
      <point x="392" y="0"/>
      <point x="419" y="-13"/>
      <point x="448" y="-13" type="curve" smooth="yes"/>
      <point x="510" y="-13"/>
      <point x="553" y="31"/>
      <point x="567" y="108" type="curve"/>
      <point x="540" y="109" type="line"/>
      <point x="536" y="71"/>
      <point x="515" y="41"/>
      <point x="492" y="41" type="curve" smooth="yes"/>
      <point x="462" y="41"/>
      <point x="442" y="77"/>
      <point x="442" y="131" type="curve" smooth="yes"/>
    </contour>
  </outline>
</glyph>
<glyph name="nu" format="1">
  <advance width="521"/>
  <unicode hex="03BD"/>
  <outline>
    <contour>
      <point x="-9" y="459" type="line"/>
      <point x="48" y="458"/>
      <point x="50" y="456"/>
      <point x="74" y="396" type="curve" smooth="yes"/>
      <point x="235" y="-13" type="line"/>
      <point x="265" y="-13" type="line"/>
      <point x="286" y="42"/>
      <point x="287" y="44"/>
      <point x="313" y="95" type="curve" smooth="yes"/>
      <point x="320" y="109"/>
      <point x="326" y="123"/>
      <point x="332" y="136" type="curve"/>
      <point x="391" y="246" type="line" smooth="yes"/>
      <point x="451" y="357"/>
      <point x="475" y="417"/>
      <point x="475" y="453" type="curve" smooth="yes"/>
      <point x="475" y="486"/>
      <point x="449" y="513"/>
      <point x="417" y="513" type="curve" smooth="yes"/>
      <point x="389" y="513"/>
      <point x="364" y="487"/>
      <point x="364" y="457" type="curve" smooth="yes"/>
      <point x="364" y="451"/>
      <point x="365" y="448"/>
      <point x="374" y="401" type="curve" smooth="yes"/>
      <point x="379" y="376"/>
      <point x="381" y="361"/>
      <point x="381" y="350" type="curve" smooth="yes"/>
      <point x="381" y="324"/>
      <point x="373" y="299"/>
      <point x="349" y="255" type="curve" smooth="yes"/>
      <point x="280" y="121" type="line"/>
      <point x="125" y="513" type="line"/>
      <point x="80" y="498"/>
      <point x="40" y="490"/>
      <point x="-9" y="488" type="curve"/>
    </contour>
  </outline>
</glyph>
<glyph name="xi" format="1">
  <advance width="493"/>
  <unicode hex="03BE"/>
  <outline>
    <contour>
      <point x="173" y="764" type="line"/>
      <point x="164" y="765"/>
      <point x="156" y="766"/>
      <point x="151" y="766" type="curve" smooth="yes"/>
      <point x="106" y="766"/>
      <point x="67" y="730"/>
      <point x="67" y="689" type="curve" smooth="yes"/>
      <point x="67" y="652"/>
      <point x="88" y="630"/>
      <point x="136" y="616" type="curve"/>
      <point x="112" y="592"/>
      <point x="99" y="562"/>
      <point x="99" y="529" type="curve" smooth="yes"/>
      <point x="99" y="491"/>
      <point x="115" y="459"/>
      <point x="153" y="423" type="curve"/>
      <point x="119" y="397"/>
      <point x="102" y="382"/>
      <point x="85" y="362" type="curve" smooth="yes"/>
      <point x="49" y="320"/>
      <point x="27" y="259"/>
      <point x="27" y="201" type="curve" smooth="yes"/>
      <point x="27" y="122"/>
      <point x="68" y="49"/>
      <point x="128" y="19" type="curve" smooth="yes"/>
      <point x="160" y="3"/>
      <point x="199" y="-3"/>
      <point x="260" y="-3" type="curve" smooth="yes"/>
      <point x="278" y="-3"/>
      <point x="299" y="-2"/>
      <point x="347" y="0" type="curve" smooth="yes"/>
      <point x="386" y="2"/>
      <point x="417" y="-27"/>
      <point x="417" y="-66" type="curve" smooth="yes"/>
      <point x="417" y="-104"/>
      <point x="390" y="-132"/>
      <point x="353" y="-132" type="curve" smooth="yes"/>
      <point x="348" y="-132"/>
      <point x="329" y="-130"/>
      <point x="309" y="-126" type="curve"/>
      <point x="286" y="-123"/>
      <point x="277" y="-122"/>
      <point x="268" y="-122" type="curve" smooth="yes"/>
      <point x="243" y="-122"/>
      <point x="226" y="-139"/>
      <point x="226" y="-164" type="curve" smooth="yes"/>
      <point x="226" y="-198"/>
      <point x="260" y="-222"/>
      <point x="309" y="-222" type="curve" smooth="yes"/>
      <point x="356" y="-222"/>
      <point x="392" y="-202"/>
      <point x="425" y="-159" type="curve" smooth="yes"/>
      <point x="453" y="-121"/>
      <point x="469" y="-75"/>
      <point x="469" y="-29" type="curve" smooth="yes"/>
      <point x="469" y="16"/>
      <point x="452" y="51"/>
      <point x="420" y="75" type="curve" smooth="yes"/>
      <point x="397" y="93"/>
      <point x="375" y="98"/>
      <point x="330" y="98" type="curve" smooth="yes"/>
      <point x="243" y="98" type="line" smooth="yes"/>
      <point x="200" y="98"/>
      <point x="166" y="102"/>
      <point x="148" y="110" type="curve" smooth="yes"/>
      <point x="105" y="129"/>
      <point x="76" y="176"/>
      <point x="76" y="228" type="curve" smooth="yes"/>
      <point x="76" y="299"/>
      <point x="119" y="359"/>
      <point x="203" y="407" type="curve"/>
      <point x="231" y="397"/>
      <point x="251" y="394"/>
      <point x="282" y="394" type="curve" smooth="yes"/>
      <point x="361" y="394"/>
      <point x="409" y="415"/>
      <point x="409" y="450" type="curve" smooth="yes"/>
      <point x="409" y="473"/>
      <point x="383" y="486"/>
      <point x="339" y="486" type="curve" smooth="yes"/>
      <point x="300" y="486"/>
      <point x="264" y="475"/>
      <point x="194" y="444" type="curve"/>
      <point x="151" y="475"/>
      <point x="137" y="495"/>
      <point x="137" y="527" type="curve" smooth="yes"/>
      <point x="137" y="558"/>
      <point x="156" y="588"/>
      <point x="193" y="616" type="curve"/>
      <point x="243" y="618"/>
      <point x="277" y="624"/>
      <point x="304" y="638" type="curve" smooth="yes"/>
      <point x="338" y="655"/>
      <point x="360" y="680"/>
      <point x="360" y="703" type="curve" smooth="yes"/>
      <point x="360" y="722"/>
      <point x="344" y="733"/>
      <point x="316" y="733" type="curve" smooth="yes"/>
      <point x="279" y="733"/>
      <point x="237" y="710"/>
      <point x="174" y="653" type="curve"/>
      <point x="142" y="654"/>
      <point x="121" y="673"/>
      <point x="121" y="699" type="curve" smooth="yes"/>
      <point x="121" y="721"/>
      <point x="138" y="736"/>
      <point x="173" y="746" type="curve"/>
    </contour>
  </outline>
</glyph>
<glyph name="omicron" format="1">
  <advance width="549"/>
  <unicode hex="03BF"/>
  <outline>
    <contour>
      <point x="276" y="513" type="curve" smooth="yes"/>
      <point x="139" y="513"/>
      <point x="35" y="395"/>
      <point x="35" y="241" type="curve" smooth="yes"/>
      <point x="35" y="95"/>
      <point x="132" y="-13"/>
      <point x="262" y="-13" type="curve" smooth="yes"/>
      <point x="396" y="-13"/>
      <point x="501" y="108"/>
      <point x="501" y="263" type="curve" smooth="yes"/>
      <point x="501" y="407"/>
      <point x="405" y="513"/>
    </contour>
    <contour>
      <point x="254" y="476" type="curve" smooth="yes"/>
      <point x="342" y="476"/>
      <point x="403" y="369"/>
      <point x="403" y="217" type="curve" smooth="yes"/>
      <point x="403" y="95"/>
      <point x="359" y="24"/>
      <point x="284" y="24" type="curve" smooth="yes"/>
      <point x="246" y="24"/>
      <point x="207" y="46"/>
      <point x="185" y="80" type="curve" smooth="yes"/>
      <point x="153" y="129"/>
      <point x="134" y="207"/>
      <point x="134" y="285" type="curve" smooth="yes"/>
      <point x="134" y="406"/>
      <point x="178" y="476"/>
    </contour>
  </outline>
</glyph>
<glyph name="pi" format="1">
  <advance width="549"/>
  <unicode hex="03C0"/>
  <outline>
    <contour>
      <point x="30" y="348" type="line"/>
      <point x="63" y="400"/>
      <point x="80" y="411"/>
      <point x="128" y="411" type="curve" smooth="yes"/>
      <point x="174" y="411" type="line"/>
      <point x="148" y="189" type="line" smooth="yes"/>
      <point x="144" y="161"/>
      <point x="131" y="139"/>
      <point x="97" y="108" type="curve" smooth="yes"/>
      <point x="66" y="80"/>
      <point x="57" y="64"/>
      <point x="57" y="42" type="curve" smooth="yes"/>
      <point x="57" y="12"/>
      <point x="81" y="-13"/>
      <point x="112" y="-13" type="curve" smooth="yes"/>
      <point x="143" y="-13"/>
      <point x="167" y="10"/>
      <point x="180" y="53" type="curve" smooth="yes"/>
      <point x="189" y="79"/>
      <point x="203" y="181"/>
      <point x="212" y="282" type="curve" smooth="yes"/>
      <point x="224" y="411" type="line"/>
      <point x="333" y="411" type="line"/>
      <point x="321" y="332"/>
      <point x="312" y="224"/>
      <point x="312" y="167" type="curve" smooth="yes"/>
      <point x="312" y="55"/>
      <point x="350" y="-13"/>
      <point x="411" y="-13" type="curve" smooth="yes"/>
      <point x="450" y="-13"/>
      <point x="485" y="14"/>
      <point x="509" y="61" type="curve" smooth="yes"/>
      <point x="523" y="89"/>
      <point x="527" y="108"/>
      <point x="530" y="158" type="curve"/>
      <point x="506" y="158" type="line"/>
      <point x="501" y="110"/>
      <point x="482" y="85"/>
      <point x="449" y="85" type="curve" smooth="yes"/>
      <point x="429" y="85"/>
      <point x="408" y="99"/>
      <point x="397" y="120" type="curve" smooth="yes"/>
      <point x="388" y="138"/>
      <point x="385" y="154"/>
      <point x="385" y="187" type="curve" smooth="yes"/>
      <point x="385" y="263"/>
      <point x="390" y="356"/>
      <point x="397" y="411" type="curve"/>
      <point x="523" y="411" type="line"/>
      <point x="523" y="500" type="line"/>
      <point x="173" y="500" type="line" smooth="yes"/>
      <point x="119" y="500"/>
      <point x="100" y="493"/>
      <point x="71" y="465" type="curve" smooth="yes"/>
      <point x="43" y="437"/>
      <point x="27" y="408"/>
      <point x="10" y="348" type="curve"/>
    </contour>
  </outline>
</glyph>
<glyph name="rho" format="1">
  <advance width="549"/>
  <unicode hex="03C1"/>
  <outline>
    <contour>
      <point x="150" y="46" type="line"/>
      <point x="176" y="8"/>
      <point x="217" y="-13"/>
      <point x="267" y="-13" type="curve" smooth="yes"/>
      <point x="386" y="-13"/>
      <point x="490" y="117"/>
      <point x="490" y="267" type="curve" smooth="yes"/>
      <point x="490" y="409"/>
      <point x="399" y="513"/>
      <point x="274" y="513" type="curve" smooth="yes"/>
      <point x="241" y="513"/>
      <point x="220" y="508"/>
      <point x="195" y="494" type="curve" smooth="yes"/>
      <point x="157" y="473"/>
      <point x="123" y="444"/>
      <point x="97" y="412" type="curve" smooth="yes"/>
      <point x="69" y="377"/>
      <point x="60" y="343"/>
      <point x="60" y="272" type="curve" smooth="yes"/>
      <point x="60" y="-120" type="line" smooth="yes"/>
      <point x="60" y="-160"/>
      <point x="58" y="-183"/>
      <point x="50" y="-220" type="curve"/>
      <point x="144" y="-220" type="line"/>
      <point x="149" y="-186"/>
      <point x="149" y="-184"/>
      <point x="150" y="-105" type="curve" smooth="yes"/>
    </contour>
    <contour>
      <point x="144" y="322" type="line"/>
      <point x="144" y="337" type="line" smooth="yes"/>
      <point x="144" y="375"/>
      <point x="150" y="398"/>
      <point x="168" y="421" type="curve" smooth="yes"/>
      <point x="184" y="442"/>
      <point x="202" y="453"/>
      <point x="224" y="453" type="curve" smooth="yes"/>
      <point x="318" y="453"/>
      <point x="398" y="344"/>
      <point x="398" y="217" type="curve" smooth="yes"/>
      <point x="398" y="109"/>
      <point x="342" y="36"/>
      <point x="260" y="36" type="curve" smooth="yes"/>
      <point x="219" y="36"/>
      <point x="177" y="65"/>
      <point x="158" y="105" type="curve" smooth="yes"/>
      <point x="152" y="117"/>
      <point x="151" y="124"/>
      <point x="150" y="155" type="curve" smooth="yes"/>
    </contour>
  </outline>
</glyph>
<glyph name="sigma1" format="1">
  <advance width="439"/>
  <unicode hex="03C2"/>
  <outline>
    <contour>
      <point x="239" y="433" type="curve" smooth="yes"/>
      <point x="248" y="433"/>
      <point x="264" y="431"/>
      <point x="278" y="428" type="curve" smooth="yes"/>
      <point x="343" y="416"/>
      <point x="344" y="416"/>
      <point x="360" y="416" type="curve" smooth="yes"/>
      <point x="395" y="416"/>
      <point x="416" y="430"/>
      <point x="416" y="455" type="curve" smooth="yes"/>
      <point x="416" y="490"/>
      <point x="371" y="513"/>
      <point x="303" y="513" type="curve" smooth="yes"/>
      <point x="162" y="513"/>
      <point x="40" y="373"/>
      <point x="40" y="209" type="curve" smooth="yes"/>
      <point x="40" y="86"/>
      <point x="114" y="-7"/>
      <point x="211" y="-7" type="curve" smooth="yes"/>
      <point x="226" y="-7"/>
      <point x="296" y="-4"/>
      <point x="315" y="-3" type="curve" smooth="yes"/>
      <point x="325" y="-2"/>
      <point x="335" y="-2"/>
      <point x="339" y="-2" type="curve" smooth="yes"/>
      <point x="373" y="-2"/>
      <point x="392" y="-20"/>
      <point x="392" y="-54" type="curve" smooth="yes"/>
      <point x="392" y="-97"/>
      <point x="364" y="-131"/>
      <point x="328" y="-131" type="curve" smooth="yes"/>
      <point x="322" y="-131"/>
      <point x="316" y="-130"/>
      <point x="311" y="-128" type="curve" smooth="yes"/>
      <point x="274" y="-115"/>
      <point x="264" y="-113"/>
      <point x="246" y="-113" type="curve" smooth="yes"/>
      <point x="212" y="-113"/>
      <point x="190" y="-130"/>
      <point x="190" y="-159" type="curve" smooth="yes"/>
      <point x="190" y="-193"/>
      <point x="227" y="-222"/>
      <point x="271" y="-222" type="curve" smooth="yes"/>
      <point x="360" y="-222"/>
      <point x="436" y="-137"/>
      <point x="436" y="-37" type="curve" smooth="yes"/>
      <point x="436" y="8"/>
      <point x="419" y="48"/>
      <point x="390" y="75" type="curve" smooth="yes"/>
      <point x="368" y="95"/>
      <point x="346" y="102"/>
      <point x="308" y="102" type="curve" smooth="yes"/>
      <point x="295" y="102"/>
      <point x="280" y="102"/>
      <point x="265" y="101" type="curve" smooth="yes"/>
      <point x="243" y="99"/>
      <point x="198" y="97"/>
      <point x="195" y="97" type="curve" smooth="yes"/>
      <point x="132" y="97"/>
      <point x="83" y="160"/>
      <point x="83" y="241" type="curve" smooth="yes"/>
      <point x="83" y="343"/>
      <point x="156" y="433"/>
    </contour>
  </outline>
</glyph>
<glyph name="sigma" format="1">
  <advance width="603"/>
  <unicode hex="03C3"/>
  <outline>
    <contour>
      <point x="588" y="413" type="line"/>
      <point x="588" y="500" type="line"/>
      <point x="361" y="500" type="line" smooth="yes"/>
      <point x="282" y="500"/>
      <point x="228" y="491"/>
      <point x="182" y="471" type="curve" smooth="yes"/>
      <point x="85" y="427"/>
      <point x="30" y="349"/>
      <point x="30" y="256" type="curve" smooth="yes"/>
      <point x="30" y="191"/>
      <point x="55" y="125"/>
      <point x="101" y="73" type="curve" smooth="yes"/>
      <point x="153" y="13"/>
      <point x="210" y="-13"/>
      <point x="289" y="-13" type="curve" smooth="yes"/>
      <point x="357" y="-13"/>
      <point x="415" y="8"/>
      <point x="461" y="49" type="curve" smooth="yes"/>
      <point x="506" y="90"/>
      <point x="533" y="147"/>
      <point x="533" y="201" type="curve" smooth="yes"/>
      <point x="533" y="277"/>
      <point x="475" y="352"/>
      <point x="369" y="413" type="curve"/>
    </contour>
    <contour>
      <point x="322" y="413" type="line"/>
      <point x="408" y="324"/>
      <point x="427" y="286"/>
      <point x="427" y="204" type="curve" smooth="yes"/>
      <point x="427" y="100"/>
      <point x="377" y="30"/>
      <point x="303" y="30" type="curve" smooth="yes"/>
      <point x="211" y="30"/>
      <point x="135" y="131"/>
      <point x="135" y="254" type="curve" smooth="yes"/>
      <point x="135" y="350"/>
      <point x="197" y="413"/>
      <point x="291" y="413" type="curve" smooth="yes"/>
    </contour>
  </outline>
</glyph>
<glyph name="tau" format="1">
  <advance width="439"/>
  <unicode hex="03C4"/>
  <outline>
    <contour>
      <point x="36" y="309" type="line"/>
      <point x="47" y="339"/>
      <point x="60" y="364"/>
      <point x="75" y="383" type="curve" smooth="yes"/>
      <point x="89" y="400"/>
      <point x="102" y="405"/>
      <point x="129" y="405" type="curve" smooth="yes"/>
      <point x="202" y="405" type="line"/>
      <point x="187" y="295"/>
      <point x="181" y="220"/>
      <point x="181" y="158" type="curve" smooth="yes"/>
      <point x="181" y="51"/>
      <point x="218" y="-13"/>
      <point x="280" y="-13" type="curve" smooth="yes"/>
      <point x="320" y="-13"/>
      <point x="360" y="16"/>
      <point x="376" y="57" type="curve" smooth="yes"/>
      <point x="388" y="86"/>
      <point x="392" y="114"/>
      <point x="394" y="161" type="curve"/>
      <point x="369" y="161" type="line"/>
      <point x="361" y="104"/>
      <point x="347" y="84"/>
      <point x="316" y="84" type="curve" smooth="yes"/>
      <point x="272" y="84"/>
      <point x="238" y="126"/>
      <point x="238" y="180" type="curve" smooth="yes"/>
      <point x="238" y="196"/>
      <point x="240" y="227"/>
      <point x="243" y="262" type="curve" smooth="yes"/>
      <point x="244" y="272"/>
      <point x="246" y="302"/>
      <point x="248" y="334" type="curve" smooth="yes"/>
      <point x="251" y="372"/>
      <point x="251" y="382"/>
      <point x="254" y="405" type="curve"/>
      <point x="418" y="405" type="line"/>
      <point x="418" y="500" type="line"/>
      <point x="191" y="500" type="line" smooth="yes"/>
      <point x="139" y="500"/>
      <point x="108" y="487"/>
      <point x="76" y="452" type="curve" smooth="yes"/>
      <point x="44" y="417"/>
      <point x="27" y="379"/>
      <point x="10" y="309" type="curve"/>
    </contour>
  </outline>
</glyph>
<glyph name="upsilon" format="1">
  <advance width="576"/>
  <unicode hex="03C5"/>
  <outline>
    <contour>
      <point x="37" y="364" type="line"/>
      <point x="50" y="409"/>
      <point x="72" y="433"/>
      <point x="100" y="433" type="curve" smooth="yes"/>
      <point x="128" y="433"/>
      <point x="137" y="412"/>
      <point x="138" y="340" type="curve" smooth="yes"/>
      <point x="141" y="178" type="line" smooth="yes"/>
      <point x="143" y="58"/>
      <point x="206" y="-13"/>
      <point x="311" y="-13" type="curve" smooth="yes"/>
      <point x="377" y="-13"/>
      <point x="435" y="12"/>
      <point x="472" y="54" type="curve" smooth="yes"/>
      <point x="511" y="101"/>
      <point x="535" y="175"/>
      <point x="535" y="250" type="curve" smooth="yes"/>
      <point x="535" y="320"/>
      <point x="513" y="384"/>
      <point x="474" y="430" type="curve" smooth="yes"/>
      <point x="442" y="467"/>
      <point x="410" y="487"/>
      <point x="343" y="513" type="curve"/>
      <point x="335" y="488" type="line"/>
      <point x="375" y="466"/>
      <point x="393" y="452"/>
      <point x="409" y="429" type="curve" smooth="yes"/>
      <point x="437" y="391"/>
      <point x="453" y="332"/>
      <point x="453" y="267" type="curve" smooth="yes"/>
      <point x="453" y="207"/>
      <point x="440" y="146"/>
      <point x="416" y="96" type="curve" smooth="yes"/>
      <point x="395" y="53"/>
      <point x="364" y="29"/>
      <point x="325" y="29" type="curve" smooth="yes"/>
      <point x="268" y="29"/>
      <point x="227" y="89"/>
      <point x="226" y="175" type="curve" smooth="yes"/>
      <point x="223" y="351" type="line" smooth="yes"/>
      <point x="222" y="467"/>
      <point x="195" y="513"/>
      <point x="131" y="513" type="curve" smooth="yes"/>
      <point x="98" y="513"/>
      <point x="72" y="500"/>
      <point x="53" y="473" type="curve" smooth="yes"/>
      <point x="36" y="450"/>
      <point x="30" y="437"/>
      <point x="12" y="379" type="curve"/>
      <point x="10" y="375"/>
      <point x="9" y="370"/>
      <point x="7" y="364" type="curve"/>
    </contour>
  </outline>
</glyph>
<glyph name="phi" format="1">
  <advance width="521"/>
  <unicode hex="03C6"/>
  <outline>
    <contour>
      <point x="279" y="-7" type="line"/>
      <point x="402" y="10"/>
      <point x="490" y="122"/>
      <point x="490" y="263" type="curve" smooth="yes"/>
      <point x="490" y="400"/>
      <point x="406" y="499"/>
      <point x="279" y="508" type="curve"/>
      <point x="279" y="588" type="line" smooth="yes"/>
      <point x="279" y="625"/>
      <point x="280" y="644"/>
      <point x="282" y="667" type="curve"/>
      <point x="235" y="686" type="line"/>
      <point x="237" y="662"/>
      <point x="238" y="637"/>
      <point x="238" y="597" type="curve" smooth="yes"/>
      <point x="238" y="508" type="line"/>
      <point x="118" y="494"/>
      <point x="27" y="380"/>
      <point x="27" y="242" type="curve" smooth="yes"/>
      <point x="27" y="103"/>
      <point x="113" y="1"/>
      <point x="238" y="-9" type="curve"/>
      <point x="238" y="-110" type="line" smooth="yes"/>
      <point x="238" y="-155"/>
      <point x="237" y="-183"/>
      <point x="235" y="-211" type="curve"/>
      <point x="282" y="-222" type="line"/>
      <point x="280" y="-189"/>
      <point x="280" y="-186"/>
      <point x="279" y="-142" type="curve" smooth="yes"/>
      <point x="279" y="-115" type="line"/>
    </contour>
    <contour>
      <point x="238" y="33" type="line"/>
      <point x="210" y="44"/>
      <point x="190" y="60"/>
      <point x="175" y="83" type="curve" smooth="yes"/>
      <point x="143" y="132"/>
      <point x="124" y="208"/>
      <point x="124" y="287" type="curve" smooth="yes"/>
      <point x="124" y="400"/>
      <point x="167" y="470"/>
      <point x="238" y="473" type="curve"/>
    </contour>
    <contour>
      <point x="279" y="466" type="line"/>
      <point x="350" y="440"/>
      <point x="393" y="345"/>
      <point x="393" y="218" type="curve" smooth="yes"/>
      <point x="393" y="100"/>
      <point x="352" y="32"/>
      <point x="279" y="28" type="curve"/>
    </contour>
  </outline>
</glyph>
<glyph name="chi" format="1">
  <advance width="549"/>
  <unicode hex="03C7"/>
  <outline>
    <contour>
      <point x="391" y="500" type="line"/>
      <point x="262" y="262" type="line"/>
      <point x="226" y="412" type="line" smooth="yes"/>
      <point x="211" y="475"/>
      <point x="173" y="513"/>
      <point x="124" y="513" type="curve" smooth="yes"/>
      <point x="64" y="513"/>
      <point x="22" y="446"/>
      <point x="12" y="335" type="curve"/>
      <point x="39" y="335" type="line"/>
      <point x="46" y="395"/>
      <point x="76" y="434"/>
      <point x="113" y="434" type="curve" smooth="yes"/>
      <point x="137" y="434"/>
      <point x="163" y="418"/>
      <point x="179" y="394" type="curve" smooth="yes"/>
      <point x="187" y="381"/>
      <point x="196" y="358"/>
      <point x="202" y="331" type="curve" smooth="yes"/>
      <point x="232" y="207" type="line"/>
      <point x="14" y="-191" type="line"/>
      <point x="120" y="-191" type="line"/>
      <point x="262" y="73" type="line"/>
      <point x="278" y="-14" type="line" smooth="yes"/>
      <point x="293" y="-89"/>
      <point x="296" y="-103"/>
      <point x="303" y="-123" type="curve" smooth="yes"/>
      <point x="324" y="-179"/>
      <point x="358" y="-210"/>
      <point x="399" y="-210" type="curve" smooth="yes"/>
      <point x="435" y="-210"/>
      <point x="471" y="-184"/>
      <point x="493" y="-145" type="curve" smooth="yes"/>
      <point x="510" y="-114"/>
      <point x="519" y="-77"/>
      <point x="522" y="-25" type="curve"/>
      <point x="498" y="-25" type="line"/>
      <point x="488" y="-60"/>
      <point x="484" y="-70"/>
      <point x="477" y="-80" type="curve"/>
      <point x="463" y="-104"/>
      <point x="439" y="-117"/>
      <point x="413" y="-117" type="curve" smooth="yes"/>
      <point x="366" y="-117"/>
      <point x="341" y="-76"/>
      <point x="311" y="48" type="curve" smooth="yes"/>
      <point x="292" y="127" type="line"/>
      <point x="495" y="500" type="line"/>
    </contour>
  </outline>
</glyph>
<glyph name="psi" format="1">
  <advance width="686"/>
  <unicode hex="03C8"/>
  <outline>
    <contour>
      <point x="389" y="500" type="line"/>
      <point x="324" y="500" type="line"/>
      <point x="324" y="40" type="line"/>
      <point x="258" y="55"/>
      <point x="231" y="95"/>
      <point x="224" y="188" type="curve" smooth="yes"/>
      <point x="206" y="357" type="line" smooth="yes"/>
      <point x="201" y="407"/>
      <point x="196" y="426"/>
      <point x="180" y="452" type="curve" smooth="yes"/>
      <point x="157" y="489"/>
      <point x="116" y="513"/>
      <point x="76" y="513" type="curve" smooth="yes"/>
      <point x="58" y="513"/>
      <point x="43" y="510"/>
      <point x="12" y="500" type="curve"/>
      <point x="12" y="481" type="line"/>
      <point x="77" y="470"/>
      <point x="87" y="459"/>
      <point x="96" y="388" type="curve" smooth="yes"/>
      <point x="110" y="225" type="line" smooth="yes"/>
      <point x="120" y="107"/>
      <point x="207" y="14"/>
      <point x="324" y="-3" type="curve"/>
      <point x="324" y="-222" type="line"/>
      <point x="389" y="-222" type="line"/>
      <point x="389" y="-3" type="line"/>
      <point x="506" y="14"/>
      <point x="593" y="107"/>
      <point x="603" y="225" type="curve" smooth="yes"/>
      <point x="617" y="388" type="line" smooth="yes"/>
      <point x="625" y="457"/>
      <point x="635" y="469"/>
      <point x="701" y="481" type="curve"/>
      <point x="701" y="500" type="line"/>
      <point x="670" y="510"/>
      <point x="655" y="513"/>
      <point x="637" y="513" type="curve" smooth="yes"/>
      <point x="601" y="513"/>
      <point x="562" y="492"/>
      <point x="539" y="461" type="curve" smooth="yes"/>
      <point x="520" y="434"/>
      <point x="512" y="411"/>
      <point x="507" y="357" type="curve" smooth="yes"/>
      <point x="489" y="188" type="line" smooth="yes"/>
      <point x="482" y="95"/>
      <point x="455" y="55"/>
      <point x="389" y="40" type="curve"/>
    </contour>
  </outline>
</glyph>
<glyph name="omega" format="1">
  <advance width="686"/>
  <unicode hex="03C9"/>
  <outline>
    <contour>
      <point x="428" y="487" type="line"/>
      <point x="465" y="477"/>
      <point x="487" y="465"/>
      <point x="509" y="445" type="curve" smooth="yes"/>
      <point x="552" y="405"/>
      <point x="578" y="326"/>
      <point x="578" y="238" type="curve" smooth="yes"/>
      <point x="578" y="174"/>
      <point x="566" y="111"/>
      <point x="547" y="75" type="curve" smooth="yes"/>
      <point x="535" y="52"/>
      <point x="510" y="37"/>
      <point x="484" y="37" type="curve" smooth="yes"/>
      <point x="434" y="37"/>
      <point x="401" y="78"/>
      <point x="387" y="159" type="curve"/>
      <point x="411" y="226"/>
      <point x="417" y="258"/>
      <point x="417" y="307" type="curve" smooth="yes"/>
      <point x="417" y="376"/>
      <point x="397" y="418"/>
      <point x="363" y="418" type="curve" smooth="yes"/>
      <point x="329" y="418"/>
      <point x="309" y="376"/>
      <point x="309" y="307" type="curve" smooth="yes"/>
      <point x="309" y="258"/>
      <point x="315" y="226"/>
      <point x="339" y="159" type="curve"/>
      <point x="325" y="79"/>
      <point x="292" y="37"/>
      <point x="242" y="37" type="curve" smooth="yes"/>
      <point x="216" y="37"/>
      <point x="191" y="52"/>
      <point x="179" y="75" type="curve" smooth="yes"/>
      <point x="160" y="111"/>
      <point x="148" y="173"/>
      <point x="148" y="238" type="curve" smooth="yes"/>
      <point x="148" y="319"/>
      <point x="171" y="395"/>
      <point x="208" y="436" type="curve" smooth="yes"/>
      <point x="231" y="461"/>
      <point x="256" y="475"/>
      <point x="298" y="487" type="curve"/>
      <point x="298" y="513" type="line"/>
      <point x="244" y="512"/>
      <point x="209" y="506"/>
      <point x="178" y="493" type="curve" smooth="yes"/>
      <point x="95" y="457"/>
      <point x="42" y="355"/>
      <point x="42" y="231" type="curve" smooth="yes"/>
      <point x="42" y="93"/>
      <point x="120" y="-13"/>
      <point x="222" y="-13" type="curve" smooth="yes"/>
      <point x="282" y="-13"/>
      <point x="329" y="20"/>
      <point x="363" y="88" type="curve"/>
      <point x="397" y="20"/>
      <point x="444" y="-13"/>
      <point x="504" y="-13" type="curve" smooth="yes"/>
      <point x="606" y="-13"/>
      <point x="684" y="93"/>
      <point x="684" y="231" type="curve" smooth="yes"/>
      <point x="684" y="349"/>
      <point x="635" y="448"/>
      <point x="558" y="488" type="curve" smooth="yes"/>
      <point x="526" y="505"/>
      <point x="488" y="512"/>
      <point x="428" y="513" type="curve"/>
    </contour>
  </outline>
</glyph>
<glyph name="theta1" format="1">
  <advance width="631"/>
  <unicode hex="03D1"/>
  <outline>
    <contour>
      <point x="623" y="330" type="line"/>
      <point x="604" y="335"/>
      <point x="594" y="338"/>
      <point x="591" y="339" type="curve" smooth="yes"/>
      <point x="570" y="346"/>
      <point x="556" y="352"/>
      <point x="548" y="354" type="curve"/>
      <point x="535" y="501"/>
      <point x="520" y="552"/>
      <point x="473" y="614" type="curve" smooth="yes"/>
      <point x="437" y="661"/>
      <point x="395" y="686"/>
      <point x="352" y="686" type="curve" smooth="yes"/>
      <point x="291" y="686"/>
      <point x="246" y="637"/>
      <point x="246" y="569" type="curve" smooth="yes"/>
      <point x="246" y="475"/>
      <point x="326" y="389"/>
      <point x="470" y="329" type="curve"/>
      <point x="471" y="282" type="line" smooth="yes"/>
      <point x="471" y="124"/>
      <point x="412" y="23"/>
      <point x="321" y="23" type="curve" smooth="yes"/>
      <point x="286" y="23"/>
      <point x="253" y="41"/>
      <point x="238" y="69" type="curve" smooth="yes"/>
      <point x="228" y="89"/>
      <point x="220" y="126"/>
      <point x="220" y="153" type="curve" smooth="yes"/>
      <point x="220" y="172"/>
      <point x="223" y="206"/>
      <point x="228" y="251" type="curve" smooth="yes"/>
      <point x="239" y="346"/>
      <point x="239" y="349"/>
      <point x="239" y="369" type="curve" smooth="yes"/>
      <point x="239" y="423"/>
      <point x="199" y="463"/>
      <point x="144" y="463" type="curve" smooth="yes"/>
      <point x="106" y="463"/>
      <point x="80" y="447"/>
      <point x="54" y="408" type="curve" smooth="yes"/>
      <point x="41" y="389"/>
      <point x="37" y="380"/>
      <point x="18" y="330" type="curve"/>
      <point x="45" y="330" type="line"/>
      <point x="74" y="383"/>
      <point x="85" y="395"/>
      <point x="106" y="395" type="curve" smooth="yes"/>
      <point x="132" y="395"/>
      <point x="151" y="377"/>
      <point x="151" y="352" type="curve" smooth="yes"/>
      <point x="151" y="344"/>
      <point x="150" y="330"/>
      <point x="148" y="316" type="curve" smooth="yes"/>
      <point x="134" y="208"/>
      <point x="132" y="187"/>
      <point x="132" y="151" type="curve" smooth="yes"/>
      <point x="132" y="52"/>
      <point x="198" y="-13"/>
      <point x="299" y="-13" type="curve" smooth="yes"/>
      <point x="406" y="-13"/>
      <point x="480" y="40"/>
      <point x="519" y="144" type="curve" smooth="yes"/>
      <point x="539" y="196"/>
      <point x="547" y="243"/>
      <point x="548" y="299" type="curve"/>
      <point x="578" y="286"/>
      <point x="603" y="275"/>
      <point x="623" y="267" type="curve"/>
    </contour>
    <contour>
      <point x="470" y="382" type="curve"/>
      <point x="357" y="425"/>
      <point x="280" y="505"/>
      <point x="280" y="581" type="curve" smooth="yes"/>
      <point x="280" y="621"/>
      <point x="306" y="650"/>
      <point x="342" y="650" type="curve" smooth="yes"/>
      <point x="381" y="650"/>
      <point x="413" y="619"/>
      <point x="436" y="560" type="curve" smooth="yes"/>
      <point x="451" y="524"/>
      <point x="458" y="486"/>
    </contour>
  </outline>
</glyph>
<glyph name="Upsilon1" format="1">
  <advance width="620"/>
  <unicode hex="03D2"/>
  <outline>
    <contour>
      <point x="10" y="643" type="line"/>
      <point x="33" y="646"/>
      <point x="43" y="647"/>
      <point x="57" y="647" type="curve" smooth="yes"/>
      <point x="135" y="647"/>
      <point x="192" y="602"/>
      <point x="216" y="520" type="curve" smooth="yes"/>
      <point x="232" y="462"/>
      <point x="242" y="385"/>
      <point x="242" y="310" type="curve" smooth="yes"/>
      <point x="242" y="142" type="line" smooth="yes"/>
      <point x="242" y="89"/>
      <point x="239" y="75"/>
      <point x="228" y="57" type="curve"/>
      <point x="214" y="38"/>
      <point x="187" y="26"/>
      <point x="154" y="26" type="curve" smooth="yes"/>
      <point x="149" y="26" type="line"/>
      <point x="149" y="0" type="line"/>
      <point x="436" y="0" type="line"/>
      <point x="436" y="26" type="line"/>
      <point x="431" y="26" type="line" smooth="yes"/>
      <point x="398" y="26"/>
      <point x="371" y="38"/>
      <point x="357" y="57" type="curve"/>
      <point x="346" y="75"/>
      <point x="343" y="89"/>
      <point x="343" y="142" type="curve" smooth="yes"/>
      <point x="343" y="314" type="line" smooth="yes"/>
      <point x="343" y="492"/>
      <point x="388" y="616"/>
      <point x="454" y="616" type="curve" smooth="yes"/>
      <point x="467" y="616"/>
      <point x="472" y="612"/>
      <point x="490" y="591" type="curve" smooth="yes"/>
      <point x="512" y="563"/>
      <point x="526" y="555"/>
      <point x="550" y="555" type="curve" smooth="yes"/>
      <point x="587" y="555"/>
      <point x="610" y="578"/>
      <point x="610" y="615" type="curve" smooth="yes"/>
      <point x="610" y="659"/>
      <point x="576" y="687"/>
      <point x="522" y="687" type="curve" smooth="yes"/>
      <point x="448" y="687"/>
      <point x="385" y="643"/>
      <point x="351" y="569" type="curve" smooth="yes"/>
      <point x="328" y="518"/>
      <point x="321" y="488"/>
      <point x="307" y="371" type="curve"/>
      <point x="305" y="450"/>
      <point x="299" y="507"/>
      <point x="288" y="548" type="curve" smooth="yes"/>
      <point x="265" y="632"/>
      <point x="181" y="686"/>
      <point x="74" y="686" type="curve" smooth="yes"/>
      <point x="47" y="686"/>
      <point x="29" y="684"/>
      <point x="-2" y="675" type="curve"/>
    </contour>
  </outline>
</glyph>
<glyph name="phi1" format="1">
  <advance width="603"/>
  <unicode hex="03D5"/>
  <outline>
    <contour>
      <point x="250" y="508" type="line"/>
      <point x="124" y="501"/>
      <point x="36" y="404"/>
      <point x="36" y="270" type="curve" smooth="yes"/>
      <point x="36" y="123"/>
      <point x="142" y="8"/>
      <point x="282" y="1" type="curve"/>
      <point x="282" y="-222" type="line"/>
      <point x="349" y="-222" type="line"/>
      <point x="349" y="1" type="line"/>
      <point x="479" y="4"/>
      <point x="587" y="125"/>
      <point x="587" y="268" type="curve" smooth="yes"/>
      <point x="587" y="398"/>
      <point x="498" y="513"/>
      <point x="398" y="513" type="curve" smooth="yes"/>
      <point x="322" y="513"/>
      <point x="273" y="450"/>
      <point x="273" y="354" type="curve"/>
      <point x="273" y="354"/>
      <point x="273" y="341"/>
      <point x="274" y="317" type="curve" smooth="yes"/>
      <point x="282" y="44" type="line"/>
      <point x="196" y="56"/>
      <point x="146" y="143"/>
      <point x="146" y="283" type="curve" smooth="yes"/>
      <point x="146" y="392"/>
      <point x="180" y="458"/>
      <point x="250" y="485" type="curve"/>
    </contour>
    <contour>
      <point x="337" y="305" type="line" smooth="yes"/>
      <point x="336" y="318"/>
      <point x="336" y="328"/>
      <point x="336" y="330" type="curve" smooth="yes"/>
      <point x="336" y="399"/>
      <point x="355" y="436"/>
      <point x="389" y="436" type="curve" smooth="yes"/>
      <point x="444" y="436"/>
      <point x="499" y="335"/>
      <point x="499" y="235" type="curve" smooth="yes"/>
      <point x="499" y="126"/>
      <point x="439" y="49"/>
      <point x="349" y="42" type="curve"/>
    </contour>
  </outline>
</glyph>
<glyph name="omega1" format="1">
  <advance width="713"/>
  <unicode hex="03D6"/>
  <outline>
    <contour>
      <point x="671" y="493" type="line"/>
      <point x="671" y="583" type="line"/>
      <point x="171" y="583" type="line" smooth="yes"/>
      <point x="134" y="583"/>
      <point x="114" y="576"/>
      <point x="85" y="553" type="curve" smooth="yes"/>
      <point x="51" y="525"/>
      <point x="29" y="491"/>
      <point x="12" y="441" type="curve"/>
      <point x="29" y="441" type="line"/>
      <point x="76" y="480"/>
      <point x="112" y="492"/>
      <point x="184" y="493" type="curve"/>
      <point x="88" y="466"/>
      <point x="25" y="362"/>
      <point x="25" y="230" type="curve" smooth="yes"/>
      <point x="25" y="93"/>
      <point x="103" y="-13"/>
      <point x="205" y="-13" type="curve" smooth="yes"/>
      <point x="266" y="-13"/>
      <point x="312" y="20"/>
      <point x="346" y="88" type="curve"/>
      <point x="380" y="20"/>
      <point x="426" y="-13"/>
      <point x="487" y="-13" type="curve" smooth="yes"/>
      <point x="589" y="-13"/>
      <point x="667" y="93"/>
      <point x="667" y="230" type="curve" smooth="yes"/>
      <point x="667" y="363"/>
      <point x="603" y="468"/>
      <point x="506" y="493" type="curve"/>
    </contour>
    <contour>
      <point x="411" y="493" type="line"/>
      <point x="448" y="482"/>
      <point x="470" y="470"/>
      <point x="492" y="449" type="curve" smooth="yes"/>
      <point x="535" y="409"/>
      <point x="561" y="328"/>
      <point x="561" y="238" type="curve" smooth="yes"/>
      <point x="561" y="173"/>
      <point x="549" y="111"/>
      <point x="530" y="75" type="curve" smooth="yes"/>
      <point x="518" y="52"/>
      <point x="493" y="37"/>
      <point x="466" y="37" type="curve" smooth="yes"/>
      <point x="434" y="37"/>
      <point x="403" y="59"/>
      <point x="388" y="92" type="curve" smooth="yes"/>
      <point x="379" y="111"/>
      <point x="376" y="125"/>
      <point x="370" y="159" type="curve"/>
      <point x="394" y="227"/>
      <point x="400" y="258"/>
      <point x="400" y="307" type="curve" smooth="yes"/>
      <point x="400" y="376"/>
      <point x="380" y="418"/>
      <point x="346" y="418" type="curve" smooth="yes"/>
      <point x="312" y="418"/>
      <point x="292" y="376"/>
      <point x="292" y="307" type="curve" smooth="yes"/>
      <point x="292" y="258"/>
      <point x="298" y="227"/>
      <point x="322" y="159" type="curve"/>
      <point x="316" y="125"/>
      <point x="313" y="111"/>
      <point x="304" y="92" type="curve" smooth="yes"/>
      <point x="289" y="59"/>
      <point x="258" y="37"/>
      <point x="226" y="37" type="curve" smooth="yes"/>
      <point x="199" y="37"/>
      <point x="174" y="52"/>
      <point x="162" y="75" type="curve" smooth="yes"/>
      <point x="143" y="111"/>
      <point x="131" y="174"/>
      <point x="131" y="238" type="curve" smooth="yes"/>
      <point x="131" y="320"/>
      <point x="154" y="399"/>
      <point x="191" y="440" type="curve" smooth="yes"/>
      <point x="214" y="465"/>
      <point x="239" y="480"/>
      <point x="281" y="493" type="curve"/>
    </contour>
  </outline>
</glyph>
<glyph name="bullet" format="1">
  <advance width="460"/>
  <unicode hex="2022"/>
  <outline>
    <contour>
      <point x="233" y="518" type="curve" smooth="yes"/>
      <point x="131" y="518"/>
      <point x="50" y="438"/>
      <point x="50" y="338" type="curve" smooth="yes"/>
      <point x="50" y="236"/>
      <point x="130" y="155"/>
      <point x="230" y="155" type="curve" smooth="yes"/>
      <point x="330" y="155"/>
      <point x="410" y="235"/>
      <point x="410" y="337" type="curve" smooth="yes"/>
      <point x="410" y="437"/>
      <point x="330" y="518"/>
    </contour>
  </outline>
</glyph>
<glyph name="ellipsis" format="1">
  <advance width="1000"/>
  <unicode hex="2026"/>
  <outline>
    <contour>
      <point x="168" y="100" type="curve" smooth="yes"/>
      <point x="137" y="100"/>
      <point x="111" y="75"/>
      <point x="111" y="44" type="curve" smooth="yes"/>
      <point x="111" y="13"/>
      <point x="136" y="-13"/>
      <point x="167" y="-13" type="curve" smooth="yes"/>
      <point x="198" y="-13"/>
      <point x="223" y="13"/>
      <point x="223" y="44" type="curve" smooth="yes"/>
      <point x="223" y="74"/>
      <point x="197" y="100"/>
    </contour>
    <contour>
      <point x="501" y="100" type="curve" smooth="yes"/>
      <point x="470" y="100"/>
      <point x="444" y="75"/>
      <point x="444" y="44" type="curve" smooth="yes"/>
      <point x="444" y="13"/>
      <point x="469" y="-13"/>
      <point x="500" y="-13" type="curve" smooth="yes"/>
      <point x="531" y="-13"/>
      <point x="556" y="13"/>
      <point x="556" y="44" type="curve" smooth="yes"/>
      <point x="556" y="74"/>
      <point x="530" y="100"/>
    </contour>
    <contour>
      <point x="834" y="100" type="curve" smooth="yes"/>
      <point x="803" y="100"/>
      <point x="777" y="75"/>
      <point x="777" y="44" type="curve" smooth="yes"/>
      <point x="777" y="13"/>
      <point x="802" y="-13"/>
      <point x="833" y="-13" type="curve" smooth="yes"/>
      <point x="864" y="-13"/>
      <point x="889" y="13"/>
      <point x="889" y="44" type="curve" smooth="yes"/>
      <point x="889" y="74"/>
      <point x="863" y="100"/>
    </contour>
  </outline>
</glyph>
<glyph name="minute" format="1">
  <advance width="247"/>
  <unicode hex="2032"/>
  <outline>
    <contour>
      <point x="27" y="486" type="line"/>
      <point x="42" y="476" type="line"/>
      <point x="208" y="649" type="line" smooth="yes"/>
      <point x="223" y="666"/>
      <point x="228" y="675"/>
      <point x="228" y="689" type="curve" smooth="yes"/>
      <point x="228" y="713"/>
      <point x="201" y="735"/>
      <point x="172" y="735" type="curve" smooth="yes"/>
      <point x="154" y="735"/>
      <point x="143" y="725"/>
      <point x="129" y="696" type="curve" smooth="yes"/>
    </contour>
  </outline>
</glyph>
<glyph name="second" format="1">
  <advance width="411"/>
  <unicode hex="2033"/>
  <outline>
    <contour>
      <point x="20" y="486" type="line"/>
      <point x="35" y="476" type="line"/>
      <point x="201" y="649" type="line" smooth="yes"/>
      <point x="216" y="666"/>
      <point x="221" y="675"/>
      <point x="221" y="689" type="curve" smooth="yes"/>
      <point x="221" y="713"/>
      <point x="194" y="735"/>
      <point x="165" y="735" type="curve" smooth="yes"/>
      <point x="147" y="735"/>
      <point x="136" y="725"/>
      <point x="122" y="696" type="curve" smooth="yes"/>
    </contour>
    <contour>
      <point x="212" y="486" type="line"/>
      <point x="227" y="476" type="line"/>
      <point x="393" y="649" type="line" smooth="yes"/>
      <point x="408" y="666"/>
      <point x="413" y="675"/>
      <point x="413" y="689" type="curve" smooth="yes"/>
      <point x="413" y="713"/>
      <point x="386" y="735"/>
      <point x="357" y="735" type="curve" smooth="yes"/>
      <point x="339" y="735"/>
      <point x="328" y="725"/>
      <point x="314" y="696" type="curve" smooth="yes"/>
    </contour>
  </outline>
</glyph>
<glyph name="fraction" format="1">
  <advance width="167"/>
  <unicode hex="2044"/>
  <outline>
    <contour>
      <point x="-180" y="0" type="line"/>
      <point x="-131" y="0" type="line"/>
      <point x="340" y="673" type="line"/>
      <point x="290" y="673" type="line"/>
    </contour>
  </outline>
</glyph>
<glyph name="Euro" format="1">
  <advance width="762"/>
  <unicode hex="20AC"/>
  <outline>
    <contour>
      <point x="53" y="361" type="line"/>
      <point x="147" y="361" type="line"/>
      <point x="145" y="346"/>
      <point x="145" y="341"/>
      <point x="145" y="334" type="curve" smooth="yes"/>
      <point x="145" y="328"/>
      <point x="145" y="321"/>
      <point x="147" y="306" type="curve"/>
      <point x="78" y="306" type="line"/>
      <point x="54" y="249" type="line"/>
      <point x="156" y="249" type="line"/>
      <point x="198" y="98"/>
      <point x="329" y="-4"/>
      <point x="483" y="-4" type="curve" smooth="yes"/>
      <point x="561" y="-4"/>
      <point x="630" y="21"/>
      <point x="698" y="74" type="curve"/>
      <point x="698" y="154" type="line"/>
      <point x="643" y="89"/>
      <point x="566" y="53"/>
      <point x="482" y="53" type="curve" smooth="yes"/>
      <point x="361" y="53"/>
      <point x="249" y="135"/>
      <point x="215" y="249" type="curve"/>
      <point x="588" y="249" type="line"/>
      <point x="612" y="306" type="line"/>
      <point x="203" y="306" type="line"/>
      <point x="202" y="321"/>
      <point x="202" y="327"/>
      <point x="202" y="334" type="curve" smooth="yes"/>
      <point x="202" y="341"/>
      <point x="202" y="347"/>
      <point x="203" y="361" type="curve"/>
      <point x="635" y="361" type="line"/>
      <point x="658" y="418" type="line"/>
      <point x="583" y="418" type="line"/>
      <point x="215" y="418" type="line"/>
      <point x="251" y="534"/>
      <point x="360" y="614"/>
      <point x="483" y="614" type="curve" smooth="yes"/>
      <point x="567" y="614"/>
      <point x="641" y="579"/>
      <point x="698" y="513" type="curve"/>
      <point x="722" y="570" type="line"/>
      <point x="653" y="638"/>
      <point x="573" y="671"/>
      <point x="483" y="671" type="curve" smooth="yes"/>
      <point x="329" y="671"/>
      <point x="198" y="569"/>
      <point x="156" y="418" type="curve"/>
      <point x="77" y="418" type="line"/>
    </contour>
  </outline>
</glyph>
<glyph name="Ifraktur" format="1">
  <advance width="686"/>
  <unicode hex="2111"/>
  <outline>
    <contour>
      <point x="10" y="62" type="line"/>
      <point x="28" y="43" type="line"/>
      <point x="55" y="55" type="line"/>
      <point x="68" y="60"/>
      <point x="81" y="63"/>
      <point x="90" y="63" type="curve" smooth="yes"/>
      <point x="102" y="63"/>
      <point x="110" y="60"/>
      <point x="133" y="48" type="curve" smooth="yes"/>
      <point x="295" y="-41" type="line"/>
      <point x="312" y="-49"/>
      <point x="325" y="-54"/>
      <point x="335" y="-54" type="curve" smooth="yes"/>
      <point x="354" y="-54"/>
      <point x="388" y="-36"/>
      <point x="444" y="3" type="curve" smooth="yes"/>
      <point x="492" y="38" type="line" smooth="yes"/>
      <point x="549" y="77"/>
      <point x="578" y="126"/>
      <point x="578" y="182" type="curve" smooth="yes"/>
      <point x="578" y="205"/>
      <point x="573" y="225"/>
      <point x="563" y="244" type="curve" smooth="yes"/>
      <point x="477" y="405" type="line" smooth="yes"/>
      <point x="457" y="441"/>
      <point x="447" y="471"/>
      <point x="447" y="492" type="curve" smooth="yes"/>
      <point x="447" y="508"/>
      <point x="455" y="525"/>
      <point x="472" y="544" type="curve" smooth="yes"/>
      <point x="564" y="651" type="line"/>
      <point x="441" y="714"/>
      <point x="373" y="736"/>
      <point x="293" y="736" type="curve" smooth="yes"/>
      <point x="157" y="736"/>
      <point x="57" y="649"/>
      <point x="57" y="530" type="curve" smooth="yes"/>
      <point x="57" y="469"/>
      <point x="86" y="412"/>
      <point x="134" y="381" type="curve" smooth="yes"/>
      <point x="165" y="361"/>
      <point x="196" y="353"/>
      <point x="255" y="350" type="curve"/>
      <point x="257" y="376" type="line"/>
      <point x="213" y="379"/>
      <point x="190" y="385"/>
      <point x="167" y="398" type="curve" smooth="yes"/>
      <point x="124" y="423"/>
      <point x="98" y="469"/>
      <point x="98" y="520" type="curve" smooth="yes"/>
      <point x="98" y="594"/>
      <point x="162" y="646"/>
      <point x="252" y="646" type="curve" smooth="yes"/>
      <point x="310" y="646"/>
      <point x="352" y="634"/>
      <point x="467" y="584" type="curve"/>
      <point x="402" y="508" type="line" smooth="yes"/>
      <point x="381" y="483"/>
      <point x="372" y="460"/>
      <point x="372" y="431" type="curve" smooth="yes"/>
      <point x="372" y="406"/>
      <point x="379" y="382"/>
      <point x="394" y="355" type="curve" smooth="yes"/>
      <point x="477" y="203" type="line" smooth="yes"/>
      <point x="492" y="176"/>
      <point x="500" y="150"/>
      <point x="500" y="126" type="curve" smooth="yes"/>
      <point x="500" y="99"/>
      <point x="490" y="77"/>
      <point x="471" y="61" type="curve" smooth="yes"/>
      <point x="450" y="44"/>
      <point x="415" y="32"/>
      <point x="387" y="32" type="curve" smooth="yes"/>
      <point x="371" y="32"/>
      <point x="360" y="36"/>
      <point x="337" y="48" type="curve" smooth="yes"/>
      <point x="190" y="126" type="line" smooth="yes"/>
      <point x="174" y="134"/>
      <point x="162" y="138"/>
      <point x="151" y="138" type="curve" smooth="yes"/>
      <point x="139" y="138"/>
      <point x="125" y="134"/>
      <point x="111" y="124" type="curve"/>
    </contour>
  </outline>
</glyph>
<glyph name="weierstrass" format="1">
  <advance width="987"/>
  <unicode hex="2118"/>
  <outline>
    <contour>
      <point x="471" y="574" type="line"/>
      <point x="376" y="510"/>
      <point x="340" y="481"/>
      <point x="303" y="436" type="curve" smooth="yes"/>
      <point x="249" y="371"/>
      <point x="222" y="307"/>
      <point x="222" y="245" type="curve" smooth="yes"/>
      <point x="222" y="207"/>
      <point x="229" y="180"/>
      <point x="255" y="123" type="curve"/>
      <point x="218" y="76"/>
      <point x="204" y="56"/>
      <point x="192" y="34" type="curve" smooth="yes"/>
      <point x="171" y="-4"/>
      <point x="159" y="-48"/>
      <point x="159" y="-86" type="curve" smooth="yes"/>
      <point x="159" y="-116"/>
      <point x="170" y="-147"/>
      <point x="189" y="-170" type="curve" smooth="yes"/>
      <point x="211" y="-199"/>
      <point x="238" y="-211"/>
      <point x="276" y="-211" type="curve" smooth="yes"/>
      <point x="349" y="-211"/>
      <point x="395" y="-146"/>
      <point x="395" y="-43" type="curve" smooth="yes"/>
      <point x="395" y="15"/>
      <point x="382" y="61"/>
      <point x="333" y="178" type="curve"/>
      <point x="486" y="375"/>
      <point x="592" y="460"/>
      <point x="684" y="460" type="curve" smooth="yes"/>
      <point x="740" y="460"/>
      <point x="773" y="423"/>
      <point x="773" y="357" type="curve" smooth="yes"/>
      <point x="773" y="294"/>
      <point x="744" y="211"/>
      <point x="698" y="140" type="curve" smooth="yes"/>
      <point x="647" y="62"/>
      <point x="591" y="22"/>
      <point x="530" y="22" type="curve" smooth="yes"/>
      <point x="497" y="22"/>
      <point x="470" y="50"/>
      <point x="470" y="84" type="curve" smooth="yes"/>
      <point x="470" y="93"/>
      <point x="472" y="105"/>
      <point x="475" y="119" type="curve"/>
      <point x="490" y="118" type="line"/>
      <point x="518" y="118"/>
      <point x="541" y="140"/>
      <point x="541" y="165" type="curve" smooth="yes"/>
      <point x="541" y="188"/>
      <point x="525" y="204"/>
      <point x="503" y="204" type="curve" smooth="yes"/>
      <point x="466" y="204"/>
      <point x="437" y="160"/>
      <point x="437" y="105" type="curve" smooth="yes"/>
      <point x="437" y="33"/>
      <point x="483" y="-13"/>
      <point x="554" y="-13" type="curve" smooth="yes"/>
      <point x="632" y="-13"/>
      <point x="720" y="41"/>
      <point x="779" y="124" type="curve" smooth="yes"/>
      <point x="842" y="213"/>
      <point x="870" y="284"/>
      <point x="870" y="355" type="curve" smooth="yes"/>
      <point x="870" y="443"/>
      <point x="810" y="497"/>
      <point x="711" y="497" type="curve" smooth="yes"/>
      <point x="630" y="497"/>
      <point x="559" y="462"/>
      <point x="468" y="376" type="curve" smooth="yes"/>
      <point x="429" y="340"/>
      <point x="410" y="318"/>
      <point x="321" y="207" type="curve"/>
      <point x="313" y="237"/>
      <point x="309" y="263"/>
      <point x="309" y="290" type="curve" smooth="yes"/>
      <point x="309" y="342"/>
      <point x="324" y="389"/>
      <point x="355" y="436" type="curve" smooth="yes"/>
      <point x="387" y="483"/>
      <point x="413" y="509"/>
      <point x="480" y="558" type="curve"/>
    </contour>
    <contour>
      <point x="269" y="97" type="curve"/>
      <point x="316" y="5"/>
      <point x="334" y="-47"/>
      <point x="334" y="-94" type="curve" smooth="yes"/>
      <point x="334" y="-144"/>
      <point x="312" y="-173"/>
      <point x="274" y="-173" type="curve" smooth="yes"/>
      <point x="228" y="-173"/>
      <point x="202" y="-137"/>
      <point x="202" y="-72" type="curve" smooth="yes"/>
      <point x="202" y="-14"/>
      <point x="218" y="26"/>
    </contour>
  </outline>
</glyph>
<glyph name="Rfraktur" format="1">
  <advance width="795"/>
  <unicode hex="211C"/>
  <outline>
    <contour>
      <point x="73" y="33" type="line"/>
      <point x="92" y="17" type="line"/>
      <point x="114" y="30"/>
      <point x="126" y="35"/>
      <point x="139" y="35" type="curve" smooth="yes"/>
      <point x="154" y="35"/>
      <point x="169" y="27"/>
      <point x="194" y="7" type="curve" smooth="yes"/>
      <point x="198" y="4"/>
      <point x="210" y="-5"/>
      <point x="223" y="-16" type="curve"/>
      <point x="276" y="14"/>
      <point x="333" y="65"/>
      <point x="380" y="123" type="curve" smooth="yes"/>
      <point x="423" y="180"/>
      <point x="436" y="226"/>
      <point x="436" y="323" type="curve" smooth="yes"/>
      <point x="437" y="394" type="line" smooth="yes"/>
      <point x="437" y="438"/>
      <point x="430" y="511"/>
      <point x="418" y="592" type="curve"/>
      <point x="483" y="634" type="line" smooth="yes"/>
      <point x="496" y="642"/>
      <point x="507" y="646"/>
      <point x="517" y="646" type="curve" smooth="yes"/>
      <point x="533" y="646"/>
      <point x="545" y="640"/>
      <point x="565" y="622" type="curve" smooth="yes"/>
      <point x="649" y="546" type="line"/>
      <point x="457" y="413" type="line"/>
      <point x="470" y="391" type="line"/>
      <point x="479" y="391" type="line" smooth="yes"/>
      <point x="496" y="391"/>
      <point x="509" y="383"/>
      <point x="518" y="367" type="curve" smooth="yes"/>
      <point x="530" y="345"/>
      <point x="544" y="288"/>
      <point x="552" y="224" type="curve" smooth="yes"/>
      <point x="571" y="48"/>
      <point x="583" y="18"/>
      <point x="649" y="-14" type="curve"/>
      <point x="759" y="74" type="line"/>
      <point x="742" y="97" type="line"/>
      <point x="721" y="89"/>
      <point x="712" y="86"/>
      <point x="704" y="86" type="curve" smooth="yes"/>
      <point x="685" y="86"/>
      <point x="676" y="100"/>
      <point x="672" y="131" type="curve" smooth="yes"/>
      <point x="644" y="322"/>
      <point x="624" y="384"/>
      <point x="571" y="453" type="curve"/>
      <point x="752" y="582" type="line"/>
      <point x="597" y="716" type="line"/>
      <point x="584" y="726"/>
      <point x="577" y="730"/>
      <point x="569" y="730" type="curve" smooth="yes"/>
      <point x="559" y="730"/>
      <point x="552" y="726"/>
      <point x="533" y="713" type="curve" smooth="yes"/>
      <point x="406" y="621" type="line"/>
      <point x="368" y="698"/>
      <point x="320" y="729"/>
      <point x="238" y="729" type="curve" smooth="yes"/>
      <point x="116" y="729"/>
      <point x="26" y="644"/>
      <point x="26" y="530" type="curve" smooth="yes"/>
      <point x="26" y="496"/>
      <point x="35" y="464"/>
      <point x="52" y="439" type="curve" smooth="yes"/>
      <point x="67" y="416"/>
      <point x="81" y="405"/>
      <point x="118" y="387" type="curve" smooth="yes"/>
      <point x="166" y="363" type="line" smooth="yes"/>
      <point x="194" y="349"/>
      <point x="205" y="339"/>
      <point x="205" y="327" type="curve" smooth="yes"/>
      <point x="205" y="318"/>
      <point x="200" y="311"/>
      <point x="186" y="300" type="curve"/>
      <point x="211" y="281" type="line"/>
      <point x="247" y="335" type="line" smooth="yes"/>
      <point x="254" y="345"/>
      <point x="258" y="357"/>
      <point x="258" y="367" type="curve" smooth="yes"/>
      <point x="258" y="388"/>
      <point x="242" y="408"/>
      <point x="214" y="422" type="curve" smooth="yes"/>
      <point x="160" y="450" type="line" smooth="yes"/>
      <point x="114" y="473"/>
      <point x="98" y="483"/>
      <point x="88" y="493" type="curve" smooth="yes"/>
      <point x="72" y="510"/>
      <point x="63" y="532"/>
      <point x="63" y="556" type="curve" smooth="yes"/>
      <point x="63" y="618"/>
      <point x="120" y="669"/>
      <point x="191" y="669" type="curve" smooth="yes"/>
      <point x="246" y="669"/>
      <point x="290" y="642"/>
      <point x="312" y="593" type="curve" smooth="yes"/>
      <point x="327" y="559"/>
      <point x="340" y="471"/>
      <point x="340" y="396" type="curve" smooth="yes"/>
      <point x="341" y="338" type="line"/>
      <point x="337" y="193"/>
      <point x="323" y="136"/>
      <point x="275" y="65" type="curve"/>
      <point x="202" y="116" type="line"/>
      <point x="194" y="121"/>
      <point x="188" y="124"/>
      <point x="184" y="124" type="curve" smooth="yes"/>
      <point x="179" y="124"/>
      <point x="173" y="121"/>
      <point x="165" y="114" type="curve" smooth="yes"/>
    </contour>
  </outline>
</glyph>
<glyph name="aleph" format="1">
  <advance width="823"/>
  <unicode hex="2135"/>
  <outline>
    <contour>
      <point x="472" y="319" type="line"/>
      <point x="192" y="674" type="line"/>
      <point x="181" y="651"/>
      <point x="175" y="628"/>
      <point x="175" y="605" type="curve" smooth="yes"/>
      <point x="175" y="584"/>
      <point x="182" y="568"/>
      <point x="206" y="539" type="curve" smooth="yes"/>
      <point x="282" y="444" type="line"/>
      <point x="220" y="329" type="line" smooth="yes"/>
      <point x="199" y="291"/>
      <point x="189" y="262"/>
      <point x="189" y="241" type="curve" smooth="yes"/>
      <point x="189" y="219"/>
      <point x="199" y="194"/>
      <point x="221" y="157" type="curve" smooth="yes"/>
      <point x="250" y="110"/>
      <point x="250" y="110"/>
      <point x="250" y="97" type="curve" smooth="yes"/>
      <point x="250" y="78"/>
      <point x="236" y="67"/>
      <point x="211" y="67" type="curve" smooth="yes"/>
      <point x="192" y="67" type="line"/>
      <point x="192" y="0" type="line"/>
      <point x="282" y="0" type="line" smooth="yes"/>
      <point x="327" y="0"/>
      <point x="356" y="4"/>
      <point x="371" y="11" type="curve"/>
      <point x="391" y="22"/>
      <point x="402" y="47"/>
      <point x="402" y="81" type="curve" smooth="yes"/>
      <point x="402" y="124"/>
      <point x="392" y="146"/>
      <point x="333" y="226" type="curve" smooth="yes"/>
      <point x="296" y="276"/>
      <point x="282" y="306"/>
      <point x="282" y="338" type="curve" smooth="yes"/>
      <point x="282" y="359"/>
      <point x="286" y="371"/>
      <point x="307" y="410" type="curve"/>
      <point x="633" y="0" type="line"/>
      <point x="645" y="23"/>
      <point x="650" y="43"/>
      <point x="650" y="64" type="curve" smooth="yes"/>
      <point x="650" y="88"/>
      <point x="641" y="107"/>
      <point x="613" y="142" type="curve" smooth="yes"/>
      <point x="571" y="195" type="line" smooth="yes"/>
      <point x="532" y="244"/>
      <point x="520" y="270"/>
      <point x="520" y="304" type="curve" smooth="yes"/>
      <point x="520" y="323"/>
      <point x="527" y="352"/>
      <point x="536" y="375" type="curve" smooth="yes"/>
      <point x="584" y="491" type="line"/>
      <point x="608" y="491" type="line" smooth="yes"/>
      <point x="632" y="491"/>
      <point x="642" y="482"/>
      <point x="648" y="453" type="curve"/>
      <point x="658" y="486"/>
      <point x="662" y="515"/>
      <point x="662" y="546" type="curve" smooth="yes"/>
      <point x="662" y="603"/>
      <point x="643" y="625"/>
      <point x="595" y="625" type="curve" smooth="yes"/>
      <point x="521" y="625" type="line" smooth="yes"/>
      <point x="478" y="625"/>
      <point x="464" y="637"/>
      <point x="464" y="673" type="curve" smooth="yes"/>
      <point x="464" y="689" type="line"/>
      <point x="432" y="656"/>
      <point x="417" y="620"/>
      <point x="417" y="576" type="curve" smooth="yes"/>
      <point x="417" y="547"/>
      <point x="426" y="520"/>
      <point x="441" y="506" type="curve" smooth="yes"/>
      <point x="452" y="495"/>
      <point x="467" y="491"/>
      <point x="501" y="491" type="curve" smooth="yes"/>
      <point x="545" y="491" type="line"/>
    </contour>
  </outline>
</glyph>
<glyph name="arrowleft" format="1">
  <advance width="987"/>
  <unicode hex="2190"/>
  <outline>
    <contour>
      <point x="942" y="220" type="line"/>
      <point x="942" y="276" type="line"/>
      <point x="152" y="276" type="line"/>
      <point x="220" y="350"/>
      <point x="280" y="420"/>
      <point x="321" y="473" type="curve"/>
      <point x="283" y="511" type="line"/>
      <point x="184" y="395"/>
      <point x="97" y="303"/>
      <point x="32" y="248" type="curve"/>
      <point x="96" y="193"/>
      <point x="184" y="101"/>
      <point x="283" y="-15" type="curve"/>
      <point x="321" y="23" type="line"/>
      <point x="280" y="76"/>
      <point x="220" y="146"/>
      <point x="152" y="220" type="curve"/>
    </contour>
  </outline>
</glyph>
<glyph name="arrowup" format="1">
  <advance width="603"/>
  <unicode hex="2191"/>
  <outline>
    <contour>
      <point x="83" y="621" type="line"/>
      <point x="136" y="662"/>
      <point x="205" y="721"/>
      <point x="280" y="790" type="curve"/>
      <point x="280" y="0" type="line"/>
      <point x="336" y="0" type="line"/>
      <point x="336" y="790" type="line"/>
      <point x="411" y="721"/>
      <point x="480" y="662"/>
      <point x="533" y="621" type="curve"/>
      <point x="571" y="659" type="line"/>
      <point x="458" y="755"/>
      <point x="361" y="848"/>
      <point x="308" y="910" type="curve"/>
      <point x="255" y="848"/>
      <point x="158" y="755"/>
      <point x="45" y="659" type="curve"/>
    </contour>
  </outline>
</glyph>
<glyph name="arrowright" format="1">
  <advance width="987"/>
  <unicode hex="2192"/>
  <outline>
    <contour>
      <point x="839" y="220" type="line"/>
      <point x="771" y="146"/>
      <point x="711" y="76"/>
      <point x="670" y="23" type="curve"/>
      <point x="708" y="-15" type="line"/>
      <point x="807" y="101"/>
      <point x="895" y="193"/>
      <point x="959" y="248" type="curve"/>
      <point x="895" y="303"/>
      <point x="807" y="395"/>
      <point x="708" y="511" type="curve"/>
      <point x="670" y="473" type="line"/>
      <point x="711" y="420"/>
      <point x="771" y="350"/>
      <point x="839" y="276" type="curve"/>
      <point x="49" y="276" type="line"/>
      <point x="49" y="220" type="line"/>
    </contour>
  </outline>
</glyph>
<glyph name="arrowdown" format="1">
  <advance width="603"/>
  <unicode hex="2193"/>
  <outline>
    <contour>
      <point x="533" y="267" type="line"/>
      <point x="480" y="226"/>
      <point x="411" y="167"/>
      <point x="336" y="98" type="curve"/>
      <point x="336" y="888" type="line"/>
      <point x="280" y="888" type="line"/>
      <point x="280" y="98" type="line"/>
      <point x="205" y="167"/>
      <point x="136" y="226"/>
      <point x="83" y="267" type="curve"/>
      <point x="45" y="229" type="line"/>
      <point x="158" y="133"/>
      <point x="255" y="40"/>
      <point x="308" y="-22" type="curve"/>
      <point x="361" y="40"/>
      <point x="458" y="133"/>
      <point x="571" y="229" type="curve"/>
    </contour>
  </outline>
</glyph>
<glyph name="arrowboth" format="1">
  <advance width="1042"/>
  <unicode hex="2194"/>
  <outline>
    <contour>
      <point x="143" y="276" type="line"/>
      <point x="212" y="351"/>
      <point x="272" y="421"/>
      <point x="313" y="474" type="curve"/>
      <point x="275" y="512" type="line"/>
      <point x="173" y="392"/>
      <point x="109" y="325"/>
      <point x="24" y="248" type="curve"/>
      <point x="108" y="172"/>
      <point x="173" y="103"/>
      <point x="275" y="-16" type="curve"/>
      <point x="313" y="22" type="line"/>
      <point x="272" y="75"/>
      <point x="212" y="146"/>
      <point x="143" y="220" type="curve"/>
      <point x="905" y="220" type="line"/>
      <point x="836" y="145"/>
      <point x="776" y="75"/>
      <point x="735" y="22" type="curve"/>
      <point x="773" y="-16" type="line"/>
      <point x="875" y="103"/>
      <point x="940" y="172"/>
      <point x="1024" y="248" type="curve"/>
      <point x="939" y="325"/>
      <point x="875" y="392"/>
      <point x="773" y="512" type="curve"/>
      <point x="735" y="474" type="line"/>
      <point x="776" y="421"/>
      <point x="836" y="351"/>
      <point x="905" y="276" type="curve"/>
    </contour>
  </outline>
</glyph>
<glyph name="carriagereturn" format="1">
  <advance width="658"/>
  <unicode hex="21B5"/>
  <outline>
    <contour>
      <point x="602" y="68" type="line"/>
      <point x="602" y="629" type="line"/>
      <point x="547" y="629" type="line"/>
      <point x="547" y="124" type="line"/>
      <point x="185" y="124" type="line"/>
      <point x="185" y="208" type="line"/>
      <point x="15" y="96" type="line"/>
      <point x="185" y="-16" type="line"/>
      <point x="185" y="68" type="line"/>
    </contour>
  </outline>
</glyph>
<glyph name="arrowdblleft" format="1">
  <advance width="987"/>
  <unicode hex="21D0"/>
  <outline>
    <contour>
      <point x="939" y="320" type="line"/>
      <point x="939" y="375" type="line"/>
      <point x="244" y="375" type="line"/>
      <point x="262" y="395"/>
      <point x="275" y="411"/>
      <point x="286" y="425" type="curve" smooth="yes"/>
      <point x="305" y="450"/>
      <point x="317" y="465"/>
      <point x="322" y="472" type="curve"/>
      <point x="279" y="506" type="line"/>
      <point x="220" y="428"/>
      <point x="105" y="307"/>
      <point x="30" y="244" type="curve"/>
      <point x="109" y="177"/>
      <point x="207" y="73"/>
      <point x="279" y="-19" type="curve"/>
      <point x="322" y="15" type="line"/>
      <point x="319" y="19"/>
      <point x="316" y="23"/>
      <point x="313" y="26" type="curve"/>
      <point x="271" y="80"/>
      <point x="271" y="81"/>
      <point x="244" y="112" type="curve"/>
      <point x="939" y="112" type="line"/>
      <point x="939" y="167" type="line"/>
      <point x="197" y="167" type="line"/>
      <point x="194" y="169"/>
      <point x="192" y="172"/>
      <point x="190" y="174" type="curve" smooth="yes"/>
      <point x="157" y="206"/>
      <point x="151" y="212"/>
      <point x="145" y="218" type="curve" smooth="yes"/>
      <point x="135" y="228"/>
      <point x="130" y="233"/>
      <point x="117" y="244" type="curve"/>
      <point x="134" y="259"/>
      <point x="144" y="268"/>
      <point x="197" y="321" type="curve"/>
    </contour>
  </outline>
</glyph>
<glyph name="arrowdblup" format="1">
  <advance width="603"/>
  <unicode hex="21D1"/>
  <outline>
    <contour>
      <point x="380" y="742" type="line"/>
      <point x="380" y="0" type="line"/>
      <point x="435" y="0" type="line"/>
      <point x="435" y="695" type="line"/>
      <point x="455" y="678"/>
      <point x="470" y="665"/>
      <point x="485" y="653" type="curve" smooth="yes"/>
      <point x="520" y="626" type="line"/>
      <point x="533" y="616" type="line"/>
      <point x="567" y="659" type="line"/>
      <point x="490" y="717"/>
      <point x="366" y="835"/>
      <point x="303" y="909" type="curve"/>
      <point x="236" y="830"/>
      <point x="131" y="731"/>
      <point x="39" y="659" type="curve"/>
      <point x="73" y="616" type="line"/>
      <point x="86" y="626" type="line" smooth="yes"/>
      <point x="140" y="668"/>
      <point x="140" y="668"/>
      <point x="171" y="695" type="curve"/>
      <point x="171" y="0" type="line"/>
      <point x="226" y="0" type="line"/>
      <point x="226" y="742" type="line"/>
      <point x="228" y="745"/>
      <point x="230" y="747"/>
      <point x="233" y="749" type="curve"/>
      <point x="246" y="762" type="line"/>
      <point x="252" y="769"/>
      <point x="259" y="775"/>
      <point x="266" y="782" type="curve" smooth="yes"/>
      <point x="283" y="799"/>
      <point x="290" y="807"/>
      <point x="303" y="822" type="curve"/>
      <point x="316" y="808"/>
      <point x="322" y="801"/>
      <point x="341" y="782" type="curve" smooth="yes"/>
    </contour>
  </outline>
</glyph>
<glyph name="arrowdblright" format="1">
  <advance width="987"/>
  <unicode hex="21D2"/>
  <outline>
    <contour>
      <point x="45" y="167" type="line"/>
      <point x="45" y="112" type="line"/>
      <point x="740" y="112" type="line"/>
      <point x="722" y="92"/>
      <point x="710" y="77"/>
      <point x="698" y="62" type="curve" smooth="yes"/>
      <point x="679" y="37"/>
      <point x="667" y="21"/>
      <point x="662" y="15" type="curve"/>
      <point x="705" y="-19" type="line"/>
      <point x="777" y="74"/>
      <point x="870" y="171"/>
      <point x="954" y="244" type="curve"/>
      <point x="871" y="315"/>
      <point x="776" y="414"/>
      <point x="705" y="506" type="curve"/>
      <point x="662" y="472" type="line"/>
      <point x="671" y="460" type="line" smooth="yes"/>
      <point x="680" y="449"/>
      <point x="689" y="437"/>
      <point x="698" y="425" type="curve" smooth="yes"/>
      <point x="710" y="410" type="line"/>
      <point x="721" y="398"/>
      <point x="726" y="391"/>
      <point x="740" y="375" type="curve"/>
      <point x="45" y="375" type="line"/>
      <point x="45" y="320" type="line"/>
      <point x="787" y="321" type="line"/>
      <point x="794" y="314" type="line"/>
      <point x="827" y="281" type="line" smooth="yes"/>
      <point x="844" y="264"/>
      <point x="852" y="256"/>
      <point x="867" y="244" type="curve"/>
      <point x="851" y="230"/>
      <point x="842" y="221"/>
      <point x="827" y="206" type="curve" smooth="yes"/>
      <point x="816" y="194"/>
      <point x="805" y="184"/>
      <point x="795" y="173" type="curve"/>
      <point x="793" y="172"/>
      <point x="791" y="169"/>
      <point x="787" y="166" type="curve"/>
    </contour>
  </outline>
</glyph>
<glyph name="arrowdbldown" format="1">
  <advance width="603"/>
  <unicode hex="21D3"/>
  <outline>
    <contour>
      <point x="231" y="167" type="line"/>
      <point x="231" y="909" type="line"/>
      <point x="176" y="909" type="line"/>
      <point x="176" y="214" type="line"/>
      <point x="156" y="231"/>
      <point x="141" y="244"/>
      <point x="126" y="256" type="curve" smooth="yes"/>
      <point x="91" y="283" type="line" smooth="yes"/>
      <point x="86" y="287"/>
      <point x="83" y="290"/>
      <point x="78" y="293" type="curve"/>
      <point x="44" y="250" type="line"/>
      <point x="123" y="191"/>
      <point x="245" y="75"/>
      <point x="308" y="0" type="curve"/>
      <point x="374" y="78"/>
      <point x="483" y="181"/>
      <point x="572" y="250" type="curve"/>
      <point x="538" y="293" type="line"/>
      <point x="534" y="290"/>
      <point x="530" y="286"/>
      <point x="525" y="283" type="curve"/>
      <point x="471" y="241"/>
      <point x="471" y="241"/>
      <point x="440" y="214" type="curve"/>
      <point x="440" y="909" type="line"/>
      <point x="385" y="909" type="line"/>
      <point x="385" y="167" type="line"/>
      <point x="378" y="160" type="line"/>
      <point x="345" y="127" type="line" smooth="yes"/>
      <point x="328" y="110"/>
      <point x="321" y="102"/>
      <point x="308" y="87" type="curve"/>
      <point x="295" y="101"/>
      <point x="289" y="108"/>
      <point x="270" y="127" type="curve" smooth="yes"/>
    </contour>
  </outline>
</glyph>
